<svg width="53" height="52" viewBox="0 0 53 52" fill="none" xmlns="http://www.w3.org/2000/svg">
<g filter="url(#filter0_d_1404_1044)">
<g style="mix-blend-mode:multiply">
<path d="M43.7916 21.7405L43.7847 21.7324C43.7887 21.7372 43.7916 21.7405 43.7916 21.7405ZM43.7763 21.7226L43.7438 21.6849C43.7562 21.6995 43.7675 21.7127 43.7763 21.7226ZM4.01868 40.2008L3.42767 40.5418V40.6445L4.60749 41.3254L5.28145 40.9362L5.83371 41.2549L5.91303 41.2966L5.96895 41.3214L6.05593 41.3543L6.14731 41.3817L6.24197 41.404L6.33883 41.4208L6.43787 41.4325L6.53765 41.4391L6.6378 41.4398L6.73794 41.4351L6.83736 41.4252L6.93458 41.4102L7.03034 41.3901L7.12244 41.3642L7.21126 41.3335L7.29569 41.2973L7.375 41.2556L9.62461 39.957L9.69552 40.0192L9.96269 40.2355L10.243 40.4461L10.5361 40.6511L10.8417 40.8496L11.1597 41.0422L11.6198 41.3075L11.9331 41.4844L12.2565 41.6544L12.5899 41.8178L12.9331 41.9735L13.2858 42.1226L13.6476 42.264L14.0178 42.3982L14.3965 42.5246L14.7821 42.643L15.1754 42.753L15.5759 42.855L15.9824 42.949L16.3943 43.0348L16.8117 43.1127L17.2338 43.1814L17.6603 43.2424L18.0905 43.2943L18.5244 43.3382L18.9608 43.374L19.3994 43.4014L19.8398 43.4201L20.2813 43.4303L20.7235 43.4329L21.1662 43.427L21.608 43.4128L22.0499 43.3901L22.49 43.3598L22.9289 43.3214L23.3657 43.2753L23.7999 43.2212L24.2312 43.1595L24.6588 43.09L25.0828 43.0129L25.5024 42.9281L25.9172 42.836L26.3269 42.7366L26.7312 42.6299L27.1299 42.5158L27.5217 42.3945L27.9073 42.2669L28.2856 42.1321L28.6566 41.9906L29.0199 41.8426L29.3748 41.6884L29.7209 41.5279L30.0586 41.3609L30.3872 41.1884L30.7399 40.9906L31.1149 40.7933L31.4716 40.6029L31.8269 40.4121L32.1832 40.2194L32.5388 40.0257L32.8912 39.8328L33.2435 39.6387L33.5947 39.4435L33.9453 39.248L34.295 39.0517L34.6437 38.8543L34.9909 38.6566L35.3363 38.4589L35.6802 38.2604L35.7925 38.1961L36.1378 37.9962L36.4829 37.7959L36.8268 37.5948L37.1696 37.3935L37.5103 37.191L37.8491 36.9881L38.1872 36.7845L38.5242 36.5802L38.8589 36.3748L39.1919 36.1691L39.523 35.9622L39.8527 35.7546L40.1798 35.5459L40.5051 35.3368L40.8279 35.1263L41.1484 34.915L41.4656 34.7023L41.7807 34.4889L42.0928 34.2743L42.4009 34.0583L42.7054 33.8416L43.0062 33.623L43.3026 33.4026L43.5943 33.1815L43.8797 32.9586L44.159 32.7341C44.3176 32.5982 44.481 32.4673 44.6396 32.331C45.6948 31.4231 46.7514 30.3087 47.0332 28.8965C47.1513 28.3058 47.1644 27.6998 47.1597 27.0975C47.1567 26.728 47.1469 26.3574 47.0931 25.9915C47.0193 25.4897 46.853 25.0065 46.6132 24.5603C46.2594 23.9009 45.7741 23.3348 45.2394 22.8172C44.951 22.538 44.6509 22.2708 44.3402 22.0168C44.1849 21.8896 44.027 21.7661 43.8662 21.6455C43.7456 21.5548 43.5881 21.4718 43.4667 21.3717L43.447 21.3494L43.4002 21.3026L43.2164 21.1195L42.9671 20.8944L42.7028 20.6736L42.4265 20.4572L42.1374 20.2431L41.8479 20.0278L41.5541 19.8162L41.2551 19.6067L40.9518 19.3991L40.644 19.1937L40.3315 18.9905L40.0157 18.7891L39.6959 18.5892L39.3728 18.3915L39.0461 18.1952L38.7164 18.0011L38.575 17.9192L38.3834 17.8085L38.2435 17.7274L37.9087 17.5373L37.5709 17.3494L37.2303 17.1634L36.8864 16.9788L36.5399 16.7968L36.1897 16.617L35.8363 16.4394L35.48 16.2643L35.1196 16.0921L34.7559 15.9229L34.3857 15.7563L34.0154 15.5903L33.6448 15.431L33.2691 15.2793L32.8872 15.1364L32.4983 15.0041L32.1028 14.8849L31.7041 14.7833L31.3027 14.7066L30.9084 14.6605L30.5246 14.6554L30.1324 14.6956L29.7216 14.765L29.3115 14.8568L28.9066 14.9642L28.5049 15.0856L28.1094 15.2172L27.7198 15.3568L27.3342 15.5037L26.9541 15.6565L26.5791 15.8144L26.2081 15.9767L25.8412 16.1426L25.4779 16.3125L25.1186 16.4851L24.7626 16.6605L24.4373 16.8239L24.4322 16.8264L24.2739 16.8984L23.9019 17.0713L23.5313 17.2467L23.1625 17.4244L22.7959 17.6038L22.4308 17.7847L22.0671 17.9679L21.7053 18.1524L21.3445 18.3381L20.9856 18.5252L20.6278 18.7138L20.2718 18.9035L19.9165 19.0943L19.5627 19.2866L19.21 19.4792L18.8592 19.6729L18.509 19.8677L18.16 20.0632L17.812 20.2599L17.4655 20.4565L17.1205 20.6542L16.7758 20.8531L16.664 20.9174L16.3179 21.1173L15.9725 21.318L15.6278 21.519L15.285 21.7207L14.9436 21.9232L14.603 22.1261L14.2631 22.3297L13.9246 22.5336L13.5873 22.7386L13.2518 22.9437L12.9181 23.1491L12.5829 23.3567L12.2507 23.5636L11.9133 23.7763L11.5745 23.9813L11.2529 24.1805L10.9473 24.3823L10.6527 24.5899L10.3691 24.8026L10.0976 25.0201L9.83769 25.2426L9.58952 25.4692L9.35378 25.7002L9.13083 25.9356L8.91994 26.1746L8.48281 26.6838L8.27886 26.9345L8.08844 27.1885L7.91118 27.4458L7.74817 27.7061C7.2204 28.6373 6.80922 29.6293 6.63268 30.6918C6.52084 31.3654 6.49599 32.0507 6.49453 32.7338C6.49306 33.5243 6.52486 34.32 6.67252 35.0985C6.80337 35.7882 7.06141 36.407 7.34357 37.0448L7.41447 37.1961L4.09945 39.1098L4.02745 39.1559L3.98432 39.188L3.92767 39.2388L3.88015 39.2915L3.84178 39.3463L3.8129 39.4022L3.7928 39.4596L3.7822 39.5173L3.78111 39.5754V39.832L3.78878 39.8898L3.80559 39.9475L3.83154 40.0038L3.867 40.059L3.91122 40.1124L3.96495 40.1635L4.01685 40.2041L4.01868 40.2008ZM43.656 21.5822C43.656 21.5822 43.6955 21.6283 43.7313 21.6699L43.656 21.5822Z" fill="#FF5C5D"/>
</g>
<path d="M31.4198 31.119L31.4297 31.1168L31.4425 31.1135L31.4976 31.1026L31.8657 31.0265L31.968 31.0017L32.2933 30.9238L32.4223 30.8884L32.7118 30.8091L32.8609 30.7627L33.1204 30.6819L33.2838 30.6245L33.5177 30.5426L33.6902 30.475L33.9033 30.3913L34.0802 30.3146L34.2769 30.2287L34.4545 30.1428L34.6365 30.0547L34.8138 29.96L34.9823 29.8694L35.1676 29.7733L35.3317 29.6888L35.525 29.5894L35.6836 29.5079L35.7169 29.4904L35.8803 29.4074L36.0323 29.331L36.2337 29.2276L36.3803 29.1523L36.5842 29.0456L36.726 28.9717L36.9329 28.8621L37.0678 28.7908L37.2783 28.6772L37.4099 28.6066L37.6211 28.4908L37.7476 28.4217L37.9614 28.3029L38.0838 28.2349L38.2987 28.1136L38.4183 28.0459L38.6332 27.9224L38.7494 27.8563L38.9647 27.7302L39.0783 27.664L39.2922 27.5368L39.4044 27.4703L39.616 27.3416L39.7275 27.2748L39.9358 27.1454L40.0473 27.077L40.2523 26.9473L40.3634 26.8771L40.5637 26.7474L40.6763 26.6746L40.8696 26.546L40.9844 26.4699L41.1701 26.3431L41.2885 26.2627L41.3718 26.2039L41.465 26.1384L41.5874 26.0525L41.753 25.9316L41.8809 25.8391L42.0337 25.7232L42.1682 25.622L42.3056 25.5138L42.4482 25.402L42.5677 25.3029L42.7201 25.1779L42.8192 25.0913L42.9836 24.9491L43.0589 24.8786L43.2358 24.7152L43.2848 24.6659L43.2972 24.6534L43.4741 24.4762L43.4942 24.4539L43.6832 24.2445L43.6963 24.2302L43.8469 24.0398L43.8974 23.9784L43.9858 23.8457L44.0728 23.7189L44.0973 23.6714L44.173 23.5295L44.2135 23.4579L44.2194 23.4404L44.2428 23.3771L44.2716 23.3066L44.2789 23.2898L44.3078 23.2203V23.213L44.3118 23.0895L44.3148 22.9868V22.9334L44.2833 22.7065L44.2018 22.44L44.1112 22.2361L43.973 21.9835L43.7925 21.7372C43.7925 21.7372 43.658 21.5804 43.6569 21.5789C43.575 21.4835 43.4866 21.394 43.3996 21.3026C43.5238 21.4334 43.7234 21.531 43.8689 21.6403C44.0293 21.7609 44.1876 21.8845 44.3429 22.0117C44.6536 22.2657 44.9536 22.5328 45.242 22.8121C45.7767 23.3296 46.2621 23.8958 46.6159 24.5551C46.8557 25.0018 47.022 25.4846 47.0958 25.9864C47.1495 26.3519 47.1594 26.7225 47.1623 27.0924C47.1671 27.6947 47.1539 28.3007 47.0359 28.8913C46.7537 30.3036 45.6974 31.4184 44.6422 32.3259C44.4836 32.4622 44.3202 32.593 44.1616 32.729L43.8824 32.9534L43.5969 33.1764L43.3053 33.3975L43.0089 33.6179L42.7081 33.8365L42.4036 34.0532L42.0955 34.2692L41.7834 34.4841L41.4683 34.6976L41.1511 34.9103L40.8305 35.1215L40.5078 35.3321L40.1825 35.5411L39.8554 35.7498L39.5257 35.9574L39.1946 36.1643L38.8616 36.3701L38.5268 36.5755L38.1898 36.7798L37.8517 36.9834L37.5129 37.1862L37.1723 37.3887L36.8295 37.5901L36.4855 37.7911L36.1405 37.9914L35.7951 38.1913L35.6829 38.2556L35.339 38.4541L34.9936 38.6518L34.6464 38.8496L34.2977 39.0469L33.9479 39.2432L33.5974 39.4387L33.2462 39.6339L32.8938 39.828L32.5415 40.021L32.1859 40.2147L31.8295 40.4073L31.4743 40.5981L31.1175 40.7885L30.7429 40.9859L30.3902 41.1836L30.0616 41.3561L29.7239 41.5231L29.3778 41.6836L29.0229 41.8378L28.6596 41.9859L28.2886 42.1273L27.9103 42.2622L27.5247 42.3897L27.1329 42.5111L26.7342 42.6251L26.3299 42.7318L25.9202 42.8312L25.5054 42.9233L25.0858 43.0081L24.6618 43.0853L24.2342 43.1547L23.8029 43.2165L23.3687 43.2706L22.9319 43.3166L22.493 43.355L22.0529 43.3853L21.6111 43.408L21.1692 43.4222L20.7266 43.4281L20.2843 43.4255L19.8428 43.4153L19.4024 43.3967L18.9638 43.3693L18.5274 43.3334L18.0935 43.2896L17.6634 43.2377L17.2368 43.1766L16.8147 43.1079L16.3973 43.0301L15.9854 42.9442L15.579 42.8502L15.1784 42.7483L14.7851 42.6383L14.3995 42.5198L14.0209 42.3934L13.6506 42.2592L13.2888 42.1178L12.9361 41.9687L12.5929 41.813L12.2595 41.6496L11.9361 41.4796L11.6229 41.3028L11.1627 41.0374L10.8447 40.8448L10.5392 40.6463L10.246 40.4413L9.96571 40.2308L9.69853 40.0144L9.44525 39.7929L9.20585 39.5663L8.98071 39.3346L8.77018 39.0985L8.33342 38.5901L8.12984 38.3404L7.94161 38.0868L7.76946 37.8298L7.6123 37.5689L7.47158 37.305L7.34659 37.0385C7.06442 36.4008 6.80639 35.7823 6.67554 35.0923C6.52825 34.3138 6.49608 33.5181 6.49754 32.7276C6.49864 32.0444 6.52349 31.3595 6.6357 30.6855C6.81223 29.6231 7.22341 28.6311 7.75119 27.6998L7.9142 27.4396L8.09146 27.1823L8.28188 26.9283L8.48583 26.6775L8.92296 26.1684L9.13385 25.9294L9.3568 25.694L9.59254 25.463L9.84071 25.2364L10.1006 25.0138L10.3721 24.7963L10.6558 24.5836L10.9503 24.376L11.2559 24.1743L11.5775 23.9751L11.9163 23.77L12.2537 23.5573L12.5859 23.3505L12.9211 23.1429L13.2548 22.9374L13.5903 22.7324L13.9277 22.5274L14.2661 22.3234L14.606 22.1198L14.9467 21.917L15.288 21.7145L15.6309 21.5128L15.9755 21.3117L16.3209 21.1111L16.667 20.9112L16.7789 20.8468L17.1235 20.648L17.4686 20.4503L17.815 20.2536L18.163 20.057L18.512 19.8615L18.8622 19.6667L19.2131 19.4729L19.5658 19.2803L19.9196 19.0881L20.2748 18.8973L20.6308 18.7076L20.9886 18.519L21.3475 18.3319L21.7083 18.1462L22.0701 17.9616L22.4338 17.7785L22.7989 17.5976L23.1655 17.4181L23.5343 17.2405L23.9049 17.0651L24.277 16.8922L24.4352 16.8202L24.4126 16.8323L24.0624 17.0124L23.7148 17.1945L23.3702 17.379L23.0281 17.5651L22.6885 17.7529L22.3515 17.9419L22.0168 18.1327L21.8764 18.2138L21.6838 18.3253L21.5423 18.4068L21.2116 18.6009L20.8823 18.7964L20.5555 18.9927L20.2306 19.1911L19.9086 19.39L19.5884 19.5906L19.2723 19.792L18.955 19.9963L18.6301 20.1937L18.3275 20.3947L18.0402 20.6034L17.7694 20.8194L17.5157 21.042L17.2789 21.2708L17.0596 21.5054L16.9258 21.6604L16.7215 21.9038L16.5354 22.152L16.3677 22.4046C16.3677 22.4046 16.3063 22.5106 16.3059 22.5098L13.4456 24.266C13.4456 24.266 12.6481 24.758 11.9193 25.595C10.8663 26.8044 9.86374 28.7484 11.2468 30.8083C12.7215 33.0042 16.0154 34.2681 19.5533 34.4465C19.8929 34.4636 20.6794 34.4914 21.4495 34.4549C22.2755 34.4158 23.0807 34.3116 23.2284 34.2981C23.8289 34.244 24.8522 34.0393 25.7751 33.7718C26.7715 33.4827 27.6578 33.1263 27.9487 32.9746C29.9077 31.9556 31.3741 31.1402 31.4194 31.1139L31.4198 31.119ZM7.82246 35.5535C7.85279 35.5959 8.51836 36.51 10.1799 37.5583C12.2182 38.8441 14.3812 39.3514 14.3812 39.3514C14.3812 39.3514 14.6374 36.612 14.31 35.438C13.7723 33.5112 12.1276 32.9293 11.2954 32.8251C10.1642 32.6837 9.47814 32.964 8.96791 33.3266C7.8517 34.1204 7.82136 35.5521 7.82136 35.5521C7.82136 35.5521 7.82173 35.5524 7.82246 35.5539V35.5535Z" fill="#00A4CF"/>
<path d="M44.3141 22.9369V22.9902L44.3112 23.0929L44.3079 23.2165V23.2238L44.2783 23.2932L44.271 23.31L44.2421 23.3806L44.2187 23.4438L44.2129 23.4613L44.1723 23.533L44.0966 23.6748L44.0722 23.7223L43.9852 23.8491L43.8967 23.9818L43.8463 24.0432L43.6957 24.2336L43.6825 24.2479L43.4936 24.4573L43.4735 24.4796L43.2966 24.6569L43.2841 24.6693L43.2352 24.7186L43.0583 24.882L42.983 24.9526L42.8185 25.0947L42.7195 25.1814L42.567 25.3064L42.4475 25.4054L42.305 25.5172L42.1676 25.6254L42.0331 25.7267L41.8803 25.8425L41.7524 25.935L41.5868 26.056L41.4644 26.1419L41.3712 26.2073L41.2878 26.2661L41.1694 26.3465L40.9837 26.4734L40.869 26.5494L40.6756 26.678L40.563 26.7508L40.3628 26.8805L40.2516 26.9507L40.0466 27.0805L39.9351 27.1488L39.7268 27.2782L39.6153 27.3451L39.4037 27.4737L39.2915 27.5402L39.0777 27.6674L38.964 27.7336L38.7487 27.8597L38.6325 27.9258L38.4176 28.0494L38.2981 28.117L38.0832 28.2383L37.9607 28.3063L37.7469 28.4251L37.6205 28.4942L37.4092 28.61L37.2776 28.6806L37.0671 28.7943L36.9322 28.8655L36.7254 28.9752L36.5836 29.049L36.3796 29.1557L36.2331 29.231L36.0317 29.3345L35.8796 29.4108L35.7162 29.4938L35.683 29.5114L35.5244 29.5929L35.331 29.6923L35.1669 29.7767L34.9816 29.8728L34.8131 29.9635L34.6358 30.0581L34.4538 30.1462L34.2762 30.2321L34.0796 30.318L33.9027 30.3947L33.6896 30.4784L33.5171 30.5461L33.2832 30.6279L33.1198 30.6853L32.8603 30.7661L32.7112 30.8125L32.4217 30.8918L32.2927 30.9273L31.9674 31.0051L31.865 31.03L31.497 31.106L31.4418 31.117L31.429 31.1203L31.4191 31.1224L31.2115 31.1674L31.2068 31.1681L30.986 31.216L30.9469 31.2237L30.6936 31.2716L30.6779 31.2745L30.5372 31.3008L30.4265 31.3191L30.183 31.3582L30.1571 31.3626L30.0818 31.375L29.9159 31.3977L29.6469 31.4342L29.622 31.4375L29.611 31.4386L29.3848 31.4638L29.209 31.4836L29.1655 31.4887L29.1582 31.4894L28.9813 31.5048L28.7905 31.5216L28.7412 31.526L28.6907 31.5303L28.5427 31.5398L28.3388 31.5526L28.2847 31.5559L28.2211 31.5603L28.0738 31.5658L27.8578 31.5742L27.7993 31.5764L27.7492 31.5786L27.5774 31.5811L27.3508 31.5852L27.2894 31.5859H27.2766L27.0584 31.5841H26.9967L26.8041 31.5819L26.7591 31.5804L26.5204 31.5727L26.455 31.5705L26.3315 31.5665L26.2116 31.5599L26.1462 31.5559L25.8987 31.5424L25.8611 31.5402L25.6509 31.5234L25.5829 31.5183L25.3925 31.5029L25.3311 31.4963L25.2635 31.4894L25.0095 31.4635L24.9273 31.455L24.7562 31.4327L24.6868 31.4236L24.4656 31.3955L24.4305 31.39L24.3611 31.3798L24.1045 31.3406L24.0351 31.33L24.0091 31.3257L23.7785 31.2847L23.7094 31.2723L23.5574 31.2449L23.4521 31.2237L23.1963 31.1711L23.1261 31.1568L23.1118 31.1539L22.8721 31.098L22.8034 31.0822L22.6733 31.0519L22.5494 31.0197L22.4828 31.0022L22.2423 30.9397L22.2299 30.9357L22.1623 30.9163L21.9123 30.8436L21.852 30.826L21.8195 30.8165L21.6046 30.7482L21.5563 30.7328L21.5146 30.7197L21.4054 30.6846L21.2701 30.6367L21.2365 30.625L21.2127 30.6166L21.0019 30.5428L20.9708 30.5303L20.958 30.5256L20.9562 30.5249L20.7248 30.4361L20.719 30.4339L20.6777 30.4178L20.6404 30.4035L20.6089 30.3911L20.4083 30.307L20.3674 30.2899L20.3239 30.2716L20.2266 30.231L20.0965 30.1718L20.0516 30.1513L19.8557 30.0618L19.8286 30.0486L19.7829 30.026L19.7362 30.0029L19.5198 29.8955L19.4971 29.8845L19.4723 29.8714L19.2621 29.7588L19.2142 29.7332L19.1656 29.7069L19.1506 29.6992L18.9628 29.5899L18.9142 29.5618L18.8169 29.5051L18.7175 29.4426L18.6693 29.4123L18.4975 29.3038L18.4789 29.2913L18.431 29.2584L18.382 29.2252L18.1989 29.1005L18.1919 29.0954L18.1503 29.0647L17.9756 28.9353L17.9266 28.8988L17.9014 28.8805L17.8765 28.8604L17.7113 28.7274L17.6612 28.6872L17.6258 28.6587L17.5037 28.5512L17.4547 28.5081L17.4036 28.4631L17.367 28.4306L17.2563 28.3239L17.2062 28.2756L17.124 28.1963L17.0662 28.1353L17.0172 28.0834L16.9664 28.0296L16.8977 27.9569L16.8374 27.886L16.7874 27.8275L16.6887 27.7117L16.6667 27.6832L16.6181 27.6199L16.5673 27.5538L16.4972 27.4624L16.4595 27.4068L16.4105 27.3352L16.3239 27.2084L16.3122 27.1886L16.2654 27.1104L16.1773 26.9639L16.1689 26.9503L16.1317 26.8791L16.0841 26.7884L16.0322 26.689L16.011 26.6411L15.9668 26.5414L15.9149 26.4248L15.904 26.3952L15.8634 26.2851L15.8159 26.1576L15.8108 26.1404L15.7742 26.0187L15.7358 25.8886V25.8868L15.7018 25.7387L15.6748 25.6178L15.67 25.5878L15.6474 25.443L15.6324 25.3462L15.6258 25.2676L15.6141 25.1276L15.6094 25.0735L15.6075 24.9193L15.6057 24.8005L15.6134 24.666L15.6214 24.5322V24.5275L15.6569 24.2552L15.6642 24.2026L15.7183 23.9314L15.7921 23.662L15.8853 23.3945L15.9975 23.1298L16.0871 22.9266L16.2172 22.6668L16.3045 22.5165L16.3659 22.4106L16.5337 22.158L16.7197 21.9098L16.924 21.6664L17.0578 21.5114L17.2771 21.2768L17.514 21.048L17.7676 20.8254L18.0384 20.6094L18.3257 20.4007L18.6283 20.1997L18.9533 20.0023L19.2705 19.798L19.5867 19.5966L19.9068 19.396L20.2288 19.1971L20.5538 18.9987L20.8805 18.8024L21.2098 18.6069L21.5406 18.4128L21.682 18.3313L21.8747 18.2198L22.015 18.1387L22.3498 17.9479L22.6868 17.7589L23.0263 17.5711L23.3684 17.385L23.7131 17.2004L24.0607 17.0184L24.4108 16.8382L24.4335 16.8262L24.4386 16.8236L24.7639 16.6602L25.1199 16.4848L25.4791 16.3123L25.8424 16.1423L26.2094 15.9764L26.5804 15.8141L26.955 15.6562L27.3351 15.5035L27.7207 15.3565L28.1103 15.2169L28.5058 15.0853L28.9075 14.964L29.3124 14.8565L29.7225 14.7648L30.1333 14.6954L30.5255 14.6552L30.9093 14.6603L31.3036 14.7063L31.705 14.7831L32.1037 14.8847L32.4992 15.0038L32.8881 15.1361L33.27 15.279L33.6457 15.4307L34.0163 15.5901L34.3866 15.756L34.7568 15.9227L35.1205 16.0919L35.4809 16.2641L35.8372 16.4391L36.1907 16.6168L36.5408 16.7966L36.8873 16.9786L37.2312 17.1632L37.5719 17.3492L37.9096 17.5371L38.2444 17.7271L38.3843 17.8083L38.5759 17.919L38.7173 18.0009L39.047 18.195L39.3737 18.3912L39.6968 18.589L40.0166 18.7889L40.3324 18.9903L40.6449 19.1935L40.9527 19.3989L41.256 19.6065L41.555 19.8159L41.8489 20.0275L42.1383 20.2428L42.4274 20.457L42.7037 20.6734L42.968 20.8941L43.2173 21.1193L43.4011 21.3024L43.4479 21.3492L43.6548 21.5838L43.7904 21.7421L43.9709 21.9884L44.1091 22.241L44.1997 22.4449L44.2812 22.7114L44.3126 22.9383L44.3141 22.9369ZM41.1478 24.1613C41.7831 23.6108 43.4885 22.3963 42.9409 21.6638C42.2352 20.7194 41.0294 19.9098 39.7462 19.074C37.2952 17.4764 34.7053 16.2271 33.1527 15.5627C32.9816 15.4896 32.69 15.3558 32.3468 15.2421C31.7404 15.0411 30.997 14.8562 30.6213 14.8832C29.5559 14.9596 27.9729 15.5473 27.0139 15.9684C24.9079 16.8934 21.3187 18.8748 19.0348 20.4117C18.7164 20.6258 14.9935 23.215 17.9924 26.7903C18.4624 27.3509 20.3118 28.9145 23.5281 29.6331C25.6246 30.1009 28.7185 30.2376 31.5573 29.4478C32.5193 29.1802 33.2302 28.8827 33.8084 28.5921C33.9374 28.5278 35.123 27.9035 36.1037 27.3506C37.846 26.3677 40.2389 24.9489 41.1482 24.1613H41.1478Z" fill="#B7CFED"/>
<path d="M40.8875 21.8999L40.7742 21.8034L40.6438 21.7084L40.6423 21.7076L40.5071 21.6294L31.5507 16.458L31.3986 16.3784L31.2974 16.3334L31.134 16.2724L30.9644 16.2212L30.7893 16.1803L30.6092 16.1492L30.4257 16.128L30.24 16.1163L30.0536 16.1145L29.8679 16.1229L29.6834 16.1408L29.5021 16.1686L29.3248 16.2066L29.1538 16.2541L28.9889 16.3118L28.8321 16.3795L28.6812 16.4584L21.7818 20.4419L21.6465 20.5201L21.6443 20.5256L21.6323 20.5289L21.5332 20.6005L21.4985 20.6137L21.4371 20.6795H21.4115L21.3355 20.7793L21.2967 20.7815L21.2043 20.8838L21.2003 20.8886L21.1264 20.9931L21.122 20.9989L21.0669 21.1049L21.0628 21.1126L21.0606 21.1192L21.0256 21.2193L21.0223 21.2285L21.0208 21.2365L21.0025 21.3352L21.0003 21.3458V21.3553L20.9974 21.4514V21.4638L20.9989 21.4744L21.0113 21.5676L21.0131 21.5812L21.0164 21.5932L21.0427 21.6828L21.0471 21.6974L21.053 21.7105L21.0928 21.7964L21.1001 21.8118L21.1093 21.826L21.1619 21.9075L21.1721 21.9236L21.2485 22.0154L21.262 22.0322L21.3538 22.1195L21.3709 22.1356L21.4777 22.2186L21.4985 22.2347L21.5961 22.2972L21.6451 22.3271L24.6388 24.057L25.6231 24.6239L25.6542 24.6414L26.0993 24.8987L26.2766 25.0007L29.8391 27.0581L29.8409 27.0588L29.8657 27.0731L30.5551 27.4725L30.607 27.5029L30.7345 27.5694L30.7681 27.5873L30.8438 27.6206L30.8814 27.6378L31.0244 27.6911L31.0591 27.7039L31.2064 27.7481L31.2444 27.7598L31.395 27.7953L31.4359 27.8048L31.5894 27.8311L31.6325 27.8388L31.7882 27.8567L31.8332 27.8622L31.9903 27.8717L32.036 27.8746L32.1939 27.8761H32.24L32.2857 27.8746L32.4432 27.8673L32.4885 27.8629L32.6446 27.8475L32.6884 27.8406L32.8427 27.8168L32.8843 27.8084L33.0364 27.7759L33.0751 27.7649L33.2235 27.724L33.2593 27.7112L33.4037 27.6608L33.4362 27.6473L33.5744 27.5862L33.604 27.5727L33.737 27.5025L37.1043 25.5585L39.0922 24.4104L40.6416 23.515L40.6905 23.485L40.7881 23.4225L40.8141 23.4031L40.8751 23.3571L40.8974 23.3374L40.9906 23.2544L41.0056 23.2376L41.0871 23.1469L41.0988 23.1309L41.1551 23.0504L41.165 23.0362L41.173 23.0205L41.2169 22.936L41.2242 22.9229L41.2293 22.9079L41.26 22.8195L41.2644 22.807L41.2669 22.7928L41.2845 22.7007L41.2863 22.6897V22.6773L41.2892 22.5822V22.5724L41.2881 22.5607L41.2753 22.4631L41.2739 22.4547L41.2713 22.4452L41.2417 22.3454L41.2395 22.3385L41.2355 22.3304L41.1865 22.2241L41.1825 22.2175L41.1149 22.1122L41.0242 22.0037L41.021 22.0004L40.9153 21.9002H40.8854L40.8875 21.8999ZM42.9405 21.6634C43.4884 22.3958 41.7826 23.6104 41.1474 24.1608C40.2381 24.9485 37.8448 26.3673 36.1029 27.3501C35.1223 27.9031 33.9362 28.527 33.8076 28.5917C33.2297 28.8819 32.5185 29.1794 31.5565 29.4473C28.7177 30.2371 25.6238 30.1004 23.5274 29.6326C20.311 28.9141 18.4616 27.3505 17.9916 26.7898C14.9927 23.2146 18.7156 20.6254 19.034 20.4112C21.3179 18.8743 24.9071 16.893 27.0131 15.9679C27.9718 15.5469 29.5547 14.9592 30.6205 14.8828C30.9962 14.8557 31.74 15.0407 32.346 15.2417C32.6892 15.3554 32.9808 15.4891 33.1519 15.5622C34.7045 16.2263 37.2944 17.4759 39.7454 19.0735C41.0286 19.9094 42.2351 20.7193 42.9405 21.6634Z" fill="#D8E5F5"/>
<path d="M40.6432 23.5143L40.5843 23.5468L40.2956 23.7131L40.0021 23.8827L39.7031 24.0556L39.3998 24.2306L39.0924 24.4083L37.1019 25.557L36.811 25.7251L36.4937 25.9083L36.209 26.0727L35.8965 26.2533L35.6173 26.4141L35.3391 26.5753L35.0329 26.7518L34.7591 26.9097L34.4557 27.0848L34.1853 27.2412L33.8845 27.4148L33.7365 27.5003L33.606 27.5687L33.576 27.5855L33.4042 27.6582L33.224 27.7211L33.2189 27.7226L33.0369 27.773L32.8432 27.8143L32.6634 27.8421L32.6455 27.8446L32.4437 27.8644L32.2405 27.8739L32.0369 27.8717L31.8352 27.8593H31.8341L31.6341 27.8359L31.4371 27.8015L31.2456 27.7569L31.0607 27.7014L30.8834 27.6349L30.8619 27.6253L30.7705 27.5848L30.6089 27.5003L30.3699 27.3618L29.8662 27.0724L29.8414 27.0585L29.8396 27.0577L29.367 26.7833L29.1451 26.655L28.7478 26.4258L28.5918 26.3355L28.2486 26.1378L28.1342 26.0713L27.8312 25.8966L27.7431 25.8458L27.6656 25.8008L27.4017 25.6484L27.3392 25.6126L27.0976 25.473L27.0457 25.443L26.2771 25.0004L26.1006 24.8984H26.1002L25.8981 24.7804L25.8743 24.7665L25.8502 24.7526L25.8261 24.7387L25.6547 24.6407L25.624 24.6236H25.6236L24.6404 24.0545L24.4595 23.9496L24.3988 23.9149L24.1434 23.7672L24.0677 23.7233L23.7837 23.5596L23.6872 23.5037L23.5772 23.4401L23.2424 23.2471L23.0926 23.1605L22.7055 22.9372L22.2852 22.6948L22.0301 22.5468L21.6456 22.3268L21.5962 22.2968L21.4986 22.2343L21.4778 22.2182L21.3711 22.1353L21.3539 22.1192L21.2622 22.0318L21.2483 22.015L21.1719 21.9233L21.1617 21.9072L21.1094 21.8253L21.1003 21.8114L21.093 21.7961L21.0535 21.7102L21.0473 21.6971L21.0432 21.6824L21.0166 21.5929L21.0133 21.5808L21.0114 21.5673L20.999 21.4741L20.9979 21.4635V21.4511L21.0008 21.3549V21.3458L21.003 21.3348L21.0213 21.2365L21.0224 21.2281L21.0261 21.2194L21.0612 21.1188L21.063 21.1126L21.067 21.105L21.1222 20.999L21.1262 20.9931L21.2 20.8886L21.2041 20.8838L21.2965 20.7815L21.3356 20.7793L21.3002 20.8813L21.2461 20.9851L21.2092 21.0914L21.1891 21.1985L21.1865 21.306L21.2008 21.4134L21.2318 21.5198L21.2805 21.6243L21.3459 21.727L21.4281 21.8261L21.5275 21.9207L21.6445 22.0114L21.7815 22.0984L30.738 27.2697L30.8904 27.349L30.9916 27.3944L31.1546 27.4554L31.3242 27.5062L31.4996 27.5475L31.6791 27.5789L31.8629 27.6001L32.0486 27.6118L32.235 27.6129L32.421 27.6049L32.6056 27.587L32.7869 27.5588L32.9638 27.5212L33.1352 27.4733L33.3001 27.4163L33.4569 27.3487L33.6074 27.2697L40.5076 23.2858L40.6454 23.1985L40.7232 23.14L40.8292 23.0457L40.9177 22.9478L40.9886 22.8465L41.0427 22.7424L41.0796 22.6367L41.0997 22.5296L41.1026 22.4218L41.088 22.3144L41.0569 22.208L41.0087 22.1031L40.9429 22.0011L40.8877 21.8999L40.9177 21.9003L41.0233 22.0004L41.0266 22.0041L41.1172 22.1123L41.1845 22.2179L41.1885 22.2241L41.2375 22.3304L41.2411 22.3385L41.2433 22.3454L41.2729 22.4452L41.2755 22.4547L41.2766 22.4631L41.2894 22.5611L41.2912 22.5724L41.2908 22.5823L41.2883 22.6777L41.2879 22.6901L41.2861 22.7011L41.2685 22.7932L41.266 22.8074L41.262 22.8198L41.2309 22.9083L41.2258 22.9229L41.2188 22.9364L41.1746 23.0209L41.1666 23.0366L41.1567 23.0508L41.1004 23.1309L41.0887 23.1473L41.0072 23.2376L40.9926 23.2544L40.8994 23.337L40.8771 23.3568L40.8161 23.4028L40.7901 23.4222L40.6922 23.4843L40.6432 23.5143Z" fill="#8FB3DF"/>
<path d="M41.088 22.3144L41.1026 22.4218L41.0997 22.5296L41.0796 22.6367L41.0427 22.7424L40.9886 22.8465L40.9177 22.9478L40.8292 23.0457L40.7232 23.14L40.6454 23.1985L40.5076 23.2858L33.6074 27.2697L33.4569 27.3487L33.3001 27.4163L33.1352 27.4733L32.9638 27.5212L32.7869 27.5588L32.6056 27.587L32.4211 27.6049L32.235 27.6129L32.0486 27.6118L31.8629 27.6001L31.6791 27.5789L31.4996 27.5475L31.3242 27.5062L31.1546 27.4554L30.9916 27.3944L30.8904 27.349L30.738 27.2697L21.7815 22.0984L21.6445 22.0114L21.5275 21.9207L21.4281 21.8261L21.3459 21.727L21.2805 21.6243L21.2318 21.5198L21.2008 21.4134L21.1865 21.306L21.1891 21.1985L21.2092 21.0914L21.2461 20.9851L21.3002 20.8813L21.3356 20.7793L21.4373 20.6791L21.533 20.6002L21.6441 20.5253L21.7815 20.4416L28.681 16.4581L28.8323 16.3791L28.9891 16.3119L29.1535 16.2541L29.325 16.2066L29.5022 16.1686L29.6835 16.1408L29.8677 16.1229L30.0538 16.1145L30.2402 16.1163L30.4258 16.1277L30.6093 16.1492L30.7895 16.1803L30.9646 16.2212L31.1341 16.2724L31.2975 16.3334L31.3988 16.3784L31.5508 16.4581L40.5076 21.6291L40.6428 21.7073L40.6439 21.708L40.7748 21.8034L40.8877 21.8999L40.9429 22.0011L41.0087 22.1031L41.0569 22.208L41.088 22.3144Z" fill="#2B4E76"/>
<path d="M31.4199 31.1192V31.1199C31.3746 31.1455 29.9083 31.9609 27.9492 32.9799C27.6579 33.1316 26.772 33.488 25.7756 33.7771C24.8528 34.0446 23.8294 34.2493 23.2289 34.3034C23.0812 34.3165 22.276 34.4207 21.45 34.4602C20.6799 34.4964 19.893 34.4686 19.5538 34.4518C16.0159 34.2734 12.722 33.0095 11.2473 30.8137C9.86425 28.7537 10.8664 26.8097 11.9198 25.6003C12.6486 24.7633 13.4461 24.2713 13.4461 24.2713L16.3064 22.5151H16.3068L16.2194 22.6657L16.0893 22.9256L15.9998 23.1288L15.8876 23.3934L15.7944 23.661L15.7206 23.9303L15.6665 24.2015L15.6591 24.2542L15.6237 24.5264V24.5312L15.6157 24.665L15.608 24.7995L15.6098 24.9183L15.6116 25.0725L15.6164 25.1266L15.6281 25.2666L15.6347 25.3452L15.6496 25.442L15.6723 25.5867L15.6771 25.6167L15.7041 25.7377L15.7377 25.8857V25.8875L15.7765 26.0177L15.813 26.1394L15.8181 26.1565L15.8657 26.2841L15.9062 26.3941L15.9172 26.4237L15.9691 26.5403L16.0133 26.6401L16.0345 26.688L16.0864 26.7874L16.1339 26.878L16.1712 26.9493L16.1796 26.9628L16.2677 27.1094L16.3145 27.1876L16.3262 27.2073L16.4128 27.3342L16.4618 27.4058L16.4994 27.4614L16.5696 27.5527L16.6204 27.6189L16.669 27.6821L16.6909 27.7106L16.7896 27.8265L16.8397 27.885L16.9 27.9559L16.9687 28.0286L17.0195 28.0823L17.0685 28.1342L17.1262 28.1953L17.2085 28.2746L17.2585 28.3228L17.3693 28.4295L17.4058 28.4621L17.457 28.507L17.506 28.5502L17.6281 28.6576L17.6635 28.6861L17.7136 28.7263L17.8788 28.8594L17.9036 28.8795L17.9289 28.8977L17.9778 28.9343L18.1525 29.0637L18.1942 29.0944L18.2012 29.0995L18.3843 29.2241L18.4332 29.2574L18.4811 29.2903L18.4998 29.3027L18.6715 29.4113L18.7198 29.4416L18.8192 29.5041L18.9164 29.5607L18.965 29.5889L19.1529 29.6982L19.1679 29.7058L19.2165 29.7322L19.2644 29.7577L19.4745 29.8703L19.4994 29.8835L19.522 29.8944L19.7384 30.0019L19.7852 30.0249L19.8309 30.0476L19.8579 30.0607L20.0538 30.1503L20.0988 30.1708L20.2289 30.23L20.3261 30.2705L20.3696 30.2888L20.4106 30.306L20.6112 30.3901L20.6426 30.4025L20.6799 30.4167L20.7212 30.4328L20.7271 30.435L20.9584 30.5238L20.9603 30.5246L20.9731 30.5293L21.0041 30.5417L21.215 30.6156L21.2388 30.624L21.2724 30.6357L21.4076 30.6835L21.5169 30.7186L21.5586 30.7318L21.6068 30.7471L21.8217 30.8155L21.8543 30.825L21.9146 30.8425L22.1646 30.9153L22.2322 30.9346L22.2446 30.9387L22.4851 31.0012L22.5516 31.0187L22.6755 31.0509L22.8056 31.0812L22.8743 31.0969L23.1141 31.1528L23.1284 31.1558L23.1985 31.17L23.4544 31.2226L23.5596 31.2438L23.7117 31.2713L23.7808 31.2837L24.0114 31.3246L24.0373 31.329L24.1068 31.3396L24.3634 31.3787L24.4328 31.3889L24.4679 31.3944L24.689 31.4226L24.7585 31.4317L24.9295 31.454L25.0118 31.4624L25.2658 31.4884L25.3334 31.4953L25.3948 31.5019L25.5852 31.5172L25.6532 31.5224L25.8634 31.5392L25.901 31.5414L26.1484 31.5549L26.2139 31.5589L26.3337 31.5655L26.4573 31.5695L26.5227 31.5717L26.7614 31.5794L26.8063 31.5808L26.9989 31.5827H27.0607L27.2789 31.5848H27.2917L27.3531 31.5841L27.5797 31.5801L27.7515 31.5775L27.8016 31.5753L27.86 31.5732L28.076 31.5647L28.2233 31.5593L28.2869 31.5549L28.341 31.5516L28.545 31.5388L28.693 31.5293L28.7434 31.5249L28.7928 31.5205L28.9836 31.5037L29.1605 31.4884L29.1678 31.4876L29.2113 31.4825L29.3871 31.4628L29.6133 31.4376L29.6243 31.4365L29.6491 31.4332L29.9181 31.3966L30.0841 31.374L30.1594 31.3615L30.1853 31.3571L30.4287 31.318L30.5395 31.2998L30.6802 31.2735L30.6959 31.2705L30.9492 31.2226L30.9883 31.215L31.2091 31.1671L31.2138 31.1664L31.4214 31.1214L31.4199 31.1192Z" fill="#00A4CF"/>
<path d="M14.1558 38.7835V38.7802C14.1741 38.5024 14.2732 36.7345 13.9365 35.6161C13.4486 33.9952 11.9771 33.4126 11.2728 33.3245C10.3156 33.205 9.7531 33.4685 9.30355 33.7488C8.55063 34.2181 8.33207 35.41 8.33207 35.41C8.33207 35.41 8.33243 35.4104 8.3328 35.4111H8.33207L7.82293 35.5536C7.8222 35.5525 7.82184 35.5518 7.82184 35.5518C7.82184 35.5518 7.85217 34.1205 8.96839 33.3263C9.47862 32.9634 10.1646 32.6834 11.2959 32.8249C12.1284 32.929 13.7732 33.5109 14.3104 35.4378C14.6379 36.6117 14.3817 39.3511 14.3817 39.3511L14.154 38.8146C14.154 38.8095 14.1547 38.7992 14.1562 38.7835H14.1558Z" fill="#0CE0FF"/>
<path d="M8.33426 35.4132C8.37958 35.4717 9.01115 36.2714 10.3967 37.1456C12.1215 38.2337 14.1533 38.8178 14.1533 38.8178C14.1533 38.8178 14.1533 38.817 14.1536 38.8148L14.3813 39.3514C14.3813 39.3514 12.2184 38.8441 10.18 37.5583C8.51847 36.5104 7.85291 35.596 7.82257 35.5536L8.3317 35.4114H8.33243C8.33243 35.4114 8.33316 35.4121 8.33426 35.4132Z" fill="#1CC5F2"/>
<path d="M14.1536 38.815C14.1532 38.8172 14.1532 38.8179 14.1532 38.8179C14.1532 38.8179 12.1211 38.2339 10.3967 37.1458C9.01149 36.2716 8.37955 35.4719 8.33423 35.4134C9.42084 35.4013 10.252 35.5972 10.252 35.5972H10.2534V35.595L10.2585 35.5925L13.9047 37.7185V37.7266C14.23 38.2927 14.1624 38.5168 14.1562 38.7803V38.7836C14.1551 38.7993 14.154 38.8095 14.154 38.8147L14.1536 38.815Z" fill="#21446C"/>
<path d="M10.2531 35.5954V35.5976H10.2517C10.2517 35.5976 9.42053 35.4017 8.33392 35.4137C8.33319 35.413 8.33282 35.4119 8.33209 35.4116C8.33173 35.4108 8.33136 35.4105 8.33136 35.4105C8.33136 35.4105 8.54992 34.2186 9.30284 33.7493C9.7524 33.469 10.3149 33.2054 11.2721 33.325C11.9764 33.413 13.4479 33.9956 13.9358 35.6166C14.2728 36.735 14.1738 38.5029 14.1551 38.7807C14.1617 38.5171 14.229 38.2931 13.904 37.727V37.7262L13.9037 37.7189V36.9506C13.2867 35.8911 12.0554 35.33 11.1939 35.0545C10.6493 34.8801 10.2528 34.8202 10.2528 34.8202V35.5958L10.2531 35.5954Z" fill="#2B4E76"/>
<path d="M13.9044 36.9503V37.7185L10.2582 35.5924L11.1943 35.0537C12.0557 35.3297 13.2874 35.8903 13.904 36.9499L13.9044 36.9503Z" fill="#082B53"/>
<path d="M11.1947 35.0537L10.2587 35.5925L10.2535 35.5896V34.8195C10.2535 34.8195 10.6501 34.8798 11.1947 35.0537Z" fill="#082B53"/>
<path d="M44.3141 22.9369V22.9902L44.3112 23.0929L44.3079 23.2165V23.2238L44.2783 23.2932L44.271 23.31L44.2421 23.3806L44.2187 23.4438L44.2129 23.4613L44.1723 23.533L44.0966 23.6748L44.0722 23.7223L43.9852 23.8491L43.8967 23.9818L43.8463 24.0432L43.6957 24.2336L43.6825 24.2479L43.4936 24.4573L43.4735 24.4796L43.2966 24.6569L43.2841 24.6693L43.2352 24.7186L43.0583 24.882L42.983 24.9526L42.8185 25.0947L42.7195 25.1814L42.567 25.3064L42.4475 25.4054L42.305 25.5172L42.1676 25.6254L42.0331 25.7267L41.8803 25.8425L41.7524 25.935L41.5868 26.056L41.4644 26.1419L41.3712 26.2073L41.2878 26.2661L41.1694 26.3465L40.9837 26.4734L40.869 26.5494L40.6756 26.678L40.563 26.7508L40.3628 26.8805L40.2516 26.9507L40.0466 27.0805L39.9351 27.1488L39.7268 27.2782L39.6153 27.3451L39.4037 27.4737L39.2915 27.5402L39.0777 27.6674L38.964 27.7336L38.7487 27.8597L38.6325 27.9258L38.4176 28.0494L38.2981 28.117L38.0832 28.2383L37.9607 28.3063L37.7469 28.4251L37.6205 28.4942L37.4092 28.61L37.2776 28.6806L37.0671 28.7943L36.9322 28.8655L36.7254 28.9752L36.5836 29.049L36.3796 29.1557L36.2331 29.231L36.0317 29.3345L35.8796 29.4108L35.7162 29.4938L35.683 29.5114L35.5244 29.5929L35.331 29.6923L35.1669 29.7767L34.9816 29.8728L34.8131 29.9635L34.6358 30.0581L34.4538 30.1462L34.2762 30.2321L34.0796 30.318L33.9027 30.3947L33.6896 30.4784L33.5171 30.5461L33.2832 30.6279L33.1198 30.6853L32.8603 30.7661L32.7112 30.8125L32.4217 30.8918L32.2927 30.9273L31.9674 31.0051L31.865 31.03L31.497 31.106L31.4418 31.117L31.429 31.1203L31.4191 31.1224L31.2115 31.1674L31.2068 31.1681L30.986 31.216L30.9469 31.2237L30.6936 31.2716L30.6779 31.2745L30.5372 31.3008L30.4265 31.3191L30.183 31.3582L30.1571 31.3626L30.0818 31.375L29.9159 31.3977L29.6469 31.4342L29.622 31.4375L29.611 31.4386L29.3848 31.4638L29.209 31.4836L29.1655 31.4887L29.1582 31.4894L28.9813 31.5048L28.7905 31.5216L28.7412 31.526L28.6907 31.5303L28.5427 31.5398L28.3388 31.5526L28.2847 31.5559L28.2211 31.5603L28.0738 31.5658L27.8578 31.5742L27.7993 31.5764L27.7492 31.5786L27.5774 31.5811L27.3508 31.5852L27.2894 31.5859H27.2766L27.0584 31.5841H26.9967L26.8041 31.5819L26.7591 31.5804L26.5204 31.5727L26.455 31.5705L26.3315 31.5665L26.2116 31.5599L26.1462 31.5559L25.8987 31.5424L25.8611 31.5402L25.6509 31.5234L25.5829 31.5183L25.3925 31.5029L25.3311 31.4963L25.2635 31.4894L25.0095 31.4635L24.9273 31.455L24.7562 31.4327L24.6868 31.4236L24.4656 31.3955L24.4305 31.39L24.3611 31.3798L24.1045 31.3406L24.0351 31.33L24.0091 31.3257L23.7785 31.2847L23.7094 31.2723L23.5574 31.2449L23.4521 31.2237L23.1963 31.1711L23.1261 31.1568L23.1118 31.1539L22.8721 31.098L22.8034 31.0822L22.6733 31.0519L22.5494 31.0197L22.4828 31.0022L22.2423 30.9397L22.2299 30.9357L22.1623 30.9163L21.9123 30.8436L21.852 30.826L21.8195 30.8165L21.6046 30.7482L21.5563 30.7328L21.5146 30.7197L21.4054 30.6846L21.2701 30.6367L21.2365 30.625L21.2127 30.6166L21.0019 30.5428L20.9708 30.5303L20.958 30.5256L20.9562 30.5249L20.7248 30.4361L20.719 30.4339L20.6777 30.4178L20.6404 30.4035L20.6089 30.3911L20.4083 30.307L20.3674 30.2899L20.3239 30.2716L20.2266 30.231L20.0965 30.1718L20.0516 30.1513L19.8557 30.0618L19.8286 30.0486L19.7829 30.026L19.7362 30.0029L19.5198 29.8955L19.4971 29.8845L19.4723 29.8714L19.2621 29.7588L19.2142 29.7332L19.1656 29.7069L19.1506 29.6992L18.9628 29.5899L18.9142 29.5618L18.8169 29.5051L18.7175 29.4426L18.6693 29.4123L18.4975 29.3038L18.4789 29.2913L18.431 29.2584L18.382 29.2252L18.1989 29.1005L18.1919 29.0954L18.1503 29.0647L17.9756 28.9353L17.9266 28.8988L17.9014 28.8805L17.8765 28.8604L17.7113 28.7274L17.6612 28.6872L17.6258 28.6587L17.5037 28.5512L17.4547 28.5081L17.4036 28.4631L17.367 28.4306L17.2563 28.3239L17.2062 28.2756L17.124 28.1963L17.0662 28.1353L17.0172 28.0834L16.9664 28.0296L16.8977 27.9569L16.8374 27.886L16.7874 27.8275L16.6887 27.7117L16.6667 27.6832L16.6181 27.6199L16.5673 27.5538L16.4972 27.4624L16.4595 27.4068L16.4105 27.3352L16.3239 27.2084L16.3122 27.1886L16.2654 27.1104L16.1773 26.9639L16.1689 26.9503L16.1317 26.8791L16.0841 26.7884L16.0322 26.689L16.011 26.6411L15.9668 26.5414L15.9149 26.4248L15.904 26.3952L15.8634 26.2851L15.8159 26.1576L15.8108 26.1404L15.7742 26.0187L15.7358 25.8886V25.8868L15.7018 25.7387L15.6748 25.6178L15.67 25.5878L15.6474 25.443L15.6324 25.3462L15.6258 25.2676L15.6141 25.1276L15.6094 25.0735L15.6075 24.9193L15.6057 24.8005L15.6134 24.666L15.6214 24.5322V24.5275L15.6569 24.2552L15.6642 24.2026L15.7183 23.9314L15.7921 23.662L15.8853 23.3945L15.9975 23.1298L16.0871 22.9266L16.2172 22.6668L16.3045 22.5165L16.3659 22.4106L16.5337 22.158L16.7197 21.9098L16.924 21.6664L17.0578 21.5114L17.2771 21.2768L17.514 21.048L17.7676 20.8254L18.0384 20.6094L18.3257 20.4007L18.6283 20.1997L18.9533 20.0023L19.2705 19.798L19.5867 19.5966L19.9068 19.396L20.2288 19.1971L20.5538 18.9987L20.8805 18.8024L21.2098 18.6069L21.5406 18.4128L21.682 18.3313L21.8747 18.2198L22.015 18.1387L22.3498 17.9479L22.6868 17.7589L23.0263 17.5711L23.3684 17.385L23.7131 17.2004L24.0607 17.0184L24.4108 16.8382L24.4335 16.8262L24.4386 16.8236L24.7639 16.6602L25.1199 16.4848L25.4791 16.3123L25.8424 16.1423L26.2094 15.9764L26.5804 15.8141L26.955 15.6562L27.3351 15.5035L27.7207 15.3565L28.1103 15.2169L28.5058 15.0853L28.9075 14.964L29.3124 14.8565L29.7225 14.7648L30.1333 14.6954L30.5255 14.6552L30.9093 14.6603L31.3036 14.7063L31.705 14.7831L32.1037 14.8847L32.4992 15.0038L32.8881 15.1361L33.27 15.279L33.6457 15.4307L34.0163 15.5901L34.3866 15.756L34.7568 15.9227L35.1205 16.0919L35.4809 16.2641L35.8372 16.4391L36.1907 16.6168L36.5408 16.7966L36.8873 16.9786L37.2312 17.1632L37.5719 17.3492L37.9096 17.5371L38.2444 17.7271L38.3843 17.8083L38.5759 17.919L38.7173 18.0009L39.047 18.195L39.3737 18.3912L39.6968 18.589L40.0166 18.7889L40.3324 18.9903L40.6449 19.1935L40.9527 19.3989L41.256 19.6065L41.555 19.8159L41.8489 20.0275L42.1383 20.2428L42.4274 20.457L42.7037 20.6734L42.968 20.8941L43.2173 21.1193L43.4011 21.3024L43.4479 21.3492L43.6548 21.5838L43.7904 21.7421L43.9709 21.9884L44.1091 22.241L44.1997 22.4449L44.2812 22.7114L44.3126 22.9383L44.3141 22.9369ZM41.1478 24.1613C41.7831 23.6108 43.4885 22.3963 42.9409 21.6638C42.2352 20.7194 41.0294 19.9098 39.7462 19.074C37.2952 17.4764 34.7053 16.2271 33.1527 15.5627C32.9816 15.4896 32.69 15.3558 32.3468 15.2421C31.7404 15.0411 30.997 14.8562 30.6213 14.8832C29.5559 14.9596 27.9729 15.5473 27.0139 15.9684C24.9079 16.8934 21.3187 18.8748 19.0348 20.4117C18.7164 20.6258 14.9935 23.215 17.9924 26.7903C18.4624 27.3509 20.3118 28.9145 23.5281 29.6331C25.6246 30.1009 28.7185 30.2376 31.5573 29.4478C32.5193 29.1802 33.2302 28.8827 33.8084 28.5921C33.9374 28.5278 35.123 27.9035 36.1037 27.3506C37.846 26.3677 40.2389 24.9489 41.1482 24.1613H41.1478Z" fill="#80ABDF"/>
<g style="mix-blend-mode:overlay">
<path d="M31.4199 31.1192V31.1199C31.3746 31.1455 29.9083 31.9609 27.9492 32.9799C27.6579 33.1316 26.772 33.488 25.7756 33.7771C24.8528 34.0446 23.8294 34.2493 23.2289 34.3034C23.0812 34.3165 22.276 34.4207 21.45 34.4602C20.6799 34.4964 19.893 34.4686 19.5538 34.4518C16.0159 34.2734 12.722 33.0095 11.2473 30.8137C9.86425 28.7537 10.8664 26.8097 11.9198 25.6003C12.6486 24.7633 13.4461 24.2713 13.4461 24.2713L16.3064 22.5151H16.3068L16.2194 22.6657L16.0893 22.9256L15.9998 23.1288L15.8876 23.3934L15.7944 23.661L15.7206 23.9303L15.6665 24.2015L15.6591 24.2542L15.6237 24.5264V24.5312L15.6157 24.665L15.608 24.7995L15.6098 24.9183L15.6116 25.0725L15.6164 25.1266L15.6281 25.2666L15.6347 25.3452L15.6496 25.442L15.6723 25.5867L15.6771 25.6167L15.7041 25.7377L15.7377 25.8857V25.8875L15.7765 26.0177L15.813 26.1394L15.8181 26.1565L15.8657 26.2841L15.9062 26.3941L15.9172 26.4237L15.9691 26.5403L16.0133 26.6401L16.0345 26.688L16.0864 26.7874L16.1339 26.878L16.1712 26.9493L16.1796 26.9628L16.2677 27.1094L16.3145 27.1876L16.3262 27.2073L16.4128 27.3342L16.4618 27.4058L16.4994 27.4614L16.5696 27.5527L16.6204 27.6189L16.669 27.6821L16.6909 27.7106L16.7896 27.8265L16.8397 27.885L16.9 27.9559L16.9687 28.0286L17.0195 28.0823L17.0685 28.1342L17.1262 28.1953L17.2085 28.2746L17.2585 28.3228L17.3693 28.4295L17.4058 28.4621L17.457 28.507L17.506 28.5502L17.6281 28.6576L17.6635 28.6861L17.7136 28.7263L17.8788 28.8594L17.9036 28.8795L17.9289 28.8977L17.9778 28.9343L18.1525 29.0637L18.1942 29.0944L18.2012 29.0995L18.3843 29.2241L18.4332 29.2574L18.4811 29.2903L18.4998 29.3027L18.6715 29.4113L18.7198 29.4416L18.8192 29.5041L18.9164 29.5607L18.965 29.5889L19.1529 29.6982L19.1679 29.7058L19.2165 29.7322L19.2644 29.7577L19.4745 29.8703L19.4994 29.8835L19.522 29.8944L19.7384 30.0019L19.7852 30.0249L19.8309 30.0476L19.8579 30.0607L20.0538 30.1503L20.0988 30.1708L20.2289 30.23L20.3261 30.2705L20.3696 30.2888L20.4106 30.306L20.6112 30.3901L20.6426 30.4025L20.6799 30.4167L20.7212 30.4328L20.7271 30.435L20.9584 30.5238L20.9603 30.5246L20.9731 30.5293L21.0041 30.5417L21.215 30.6156L21.2388 30.624L21.2724 30.6357L21.4076 30.6835L21.5169 30.7186L21.5586 30.7318L21.6068 30.7471L21.8217 30.8155L21.8543 30.825L21.9146 30.8425L22.1646 30.9153L22.2322 30.9346L22.2446 30.9387L22.4851 31.0012L22.5516 31.0187L22.6755 31.0509L22.8056 31.0812L22.8743 31.0969L23.1141 31.1528L23.1284 31.1558L23.1985 31.17L23.4544 31.2226L23.5596 31.2438L23.7117 31.2713L23.7808 31.2837L24.0114 31.3246L24.0373 31.329L24.1068 31.3396L24.3634 31.3787L24.4328 31.3889L24.4679 31.3944L24.689 31.4226L24.7585 31.4317L24.9295 31.454L25.0118 31.4624L25.2658 31.4884L25.3334 31.4953L25.3948 31.5019L25.5852 31.5172L25.6532 31.5224L25.8634 31.5392L25.901 31.5414L26.1484 31.5549L26.2139 31.5589L26.3337 31.5655L26.4573 31.5695L26.5227 31.5717L26.7614 31.5794L26.8063 31.5808L26.9989 31.5827H27.0607L27.2789 31.5848H27.2917L27.3531 31.5841L27.5797 31.5801L27.7515 31.5775L27.8016 31.5753L27.86 31.5732L28.076 31.5647L28.2233 31.5593L28.2869 31.5549L28.341 31.5516L28.545 31.5388L28.693 31.5293L28.7434 31.5249L28.7928 31.5205L28.9836 31.5037L29.1605 31.4884L29.1678 31.4876L29.2113 31.4825L29.3871 31.4628L29.6133 31.4376L29.6243 31.4365L29.6491 31.4332L29.9181 31.3966L30.0841 31.374L30.1594 31.3615L30.1853 31.3571L30.4287 31.318L30.5395 31.2998L30.6802 31.2735L30.6959 31.2705L30.9492 31.2226L30.9883 31.215L31.2091 31.1671L31.2138 31.1664L31.4214 31.1214L31.4199 31.1192Z" fill="#BFBFBF"/>
</g>
<path style="mix-blend-mode:overlay" opacity="0.5" d="M31.4198 31.119L31.4297 31.1168L31.4425 31.1135L31.4976 31.1026L31.8657 31.0265L31.968 31.0017L32.2933 30.9238L32.4223 30.8884L32.7118 30.8091L32.8609 30.7627L33.1204 30.6819L33.2838 30.6245L33.5177 30.5426L33.6902 30.475L33.9033 30.3913L34.0802 30.3146L34.2769 30.2287L34.4545 30.1428L34.6365 30.0547L34.8138 29.96L34.9823 29.8694L35.1676 29.7733L35.3317 29.6888L35.525 29.5894L35.6836 29.5079L35.7169 29.4904L35.8803 29.4074L36.0323 29.331L36.2337 29.2276L36.3803 29.1523L36.5842 29.0456L36.726 28.9717L36.9329 28.8621L37.0678 28.7908L37.2783 28.6772L37.4099 28.6066L37.6211 28.4908L37.7476 28.4217L37.9614 28.3029L38.0838 28.2349L38.2987 28.1136L38.4183 28.0459L38.6332 27.9224L38.7494 27.8563L38.9647 27.7302L39.0783 27.664L39.2922 27.5368L39.4044 27.4703L39.616 27.3416L39.7275 27.2748L39.9358 27.1454L40.0473 27.077L40.2523 26.9473L40.3634 26.8771L40.5637 26.7474L40.6763 26.6746L40.8696 26.546L40.9844 26.4699L41.1701 26.3431L41.2885 26.2627L41.3718 26.2039L41.465 26.1384L41.5874 26.0525L41.753 25.9316L41.8809 25.8391L42.0337 25.7232L42.1682 25.622L42.3056 25.5138L42.4482 25.402L42.5677 25.3029L42.7201 25.1779L42.8192 25.0913L42.9836 24.9491L43.0589 24.8786L43.2358 24.7152L43.2848 24.6659L43.2972 24.6534L43.4741 24.4762L43.4942 24.4539L43.6832 24.2445L43.6963 24.2302L43.8469 24.0398L43.8974 23.9784L43.9858 23.8457L44.0728 23.7189L44.0973 23.6714L44.173 23.5295L44.2135 23.4579L44.2194 23.4404L44.2428 23.3771L44.2716 23.3066L44.2789 23.2898L44.3078 23.2203V23.213L44.3118 23.0895L44.3148 22.9868V22.9334L44.2833 22.7065L44.2018 22.44L44.1112 22.2361L43.973 21.9835L43.7925 21.7372C43.7925 21.7372 43.658 21.5804 43.6569 21.5789C43.575 21.4835 43.4866 21.394 43.3996 21.3026C43.5238 21.4334 43.7234 21.531 43.8689 21.6403C44.0293 21.7609 44.1876 21.8845 44.3429 22.0117C44.6536 22.2657 44.9536 22.5328 45.242 22.8121C45.7767 23.3296 46.2621 23.8958 46.6159 24.5551C46.8557 25.0018 47.022 25.4846 47.0958 25.9864C47.1495 26.3519 47.1594 26.7225 47.1623 27.0924C47.1671 27.6947 47.1539 28.3007 47.0359 28.8913C46.7537 30.3036 45.6974 31.4184 44.6422 32.3259C44.4836 32.4622 44.3202 32.593 44.1616 32.729L43.8824 32.9534L43.5969 33.1764L43.3053 33.3975L43.0089 33.6179L42.7081 33.8365L42.4036 34.0532L42.0955 34.2692L41.7834 34.4841L41.4683 34.6976L41.1511 34.9103L40.8305 35.1215L40.5078 35.3321L40.1825 35.5411L39.8554 35.7498L39.5257 35.9574L39.1946 36.1643L38.8616 36.3701L38.5268 36.5755L38.1898 36.7798L37.8517 36.9834L37.5129 37.1862L37.1723 37.3887L36.8295 37.5901L36.4855 37.7911L36.1405 37.9914L35.7951 38.1913L35.6829 38.2556L35.339 38.4541L34.9936 38.6518L34.6464 38.8496L34.2977 39.0469L33.9479 39.2432L33.5974 39.4387L33.2462 39.6339L32.8938 39.828L32.5415 40.021L32.1859 40.2147L31.8295 40.4073L31.4743 40.5981L31.1175 40.7885L30.7429 40.9859L30.3902 41.1836L30.0616 41.3561L29.7239 41.5231L29.3778 41.6836L29.0229 41.8378L28.6596 41.9859L28.2886 42.1273L27.9103 42.2622L27.5247 42.3897L27.1329 42.5111L26.7342 42.6251L26.3299 42.7318L25.9202 42.8312L25.5054 42.9233L25.0858 43.0081L24.6618 43.0853L24.2342 43.1547L23.8029 43.2165L23.3687 43.2706L22.9319 43.3166L22.493 43.355L22.0529 43.3853L21.6111 43.408L21.1692 43.4222L20.7266 43.4281L20.2843 43.4255L19.8428 43.4153L19.4024 43.3967L18.9638 43.3693L18.5274 43.3334L18.0935 43.2896L17.6634 43.2377L17.2368 43.1766L16.8147 43.1079L16.3973 43.0301L15.9854 42.9442L15.579 42.8502L15.1784 42.7483L14.7851 42.6383L14.3995 42.5198L14.0209 42.3934L13.6506 42.2592L13.2888 42.1178L12.9361 41.9687L12.5929 41.813L12.2595 41.6496L11.9361 41.4796L11.6229 41.3028L11.1627 41.0374L10.8447 40.8448L10.5392 40.6463L10.246 40.4413L9.96571 40.2308L9.69853 40.0144L9.44525 39.7929L9.20585 39.5663L8.98071 39.3346L8.77018 39.0985L8.33342 38.5901L8.12984 38.3404L7.94161 38.0868L7.76946 37.8298L7.6123 37.5689L7.47158 37.305L7.34659 37.0385C7.06442 36.4008 6.80639 35.7823 6.67554 35.0923C6.52825 34.3138 6.49608 33.5181 6.49754 32.7276C6.49864 32.0444 6.52349 31.3595 6.6357 30.6855C6.81223 29.6231 7.22341 28.6311 7.75119 27.6998L7.9142 27.4396L8.09146 27.1823L8.28188 26.9283L8.48583 26.6775L8.92296 26.1684L9.13385 25.9294L9.3568 25.694L9.59254 25.463L9.84071 25.2364L10.1006 25.0138L10.3721 24.7963L10.6558 24.5836L10.9503 24.376L11.2559 24.1743L11.5775 23.9751L11.9163 23.77L12.2537 23.5573L12.5859 23.3505L12.9211 23.1429L13.2548 22.9374L13.5903 22.7324L13.9277 22.5274L14.2661 22.3234L14.606 22.1198L14.9467 21.917L15.288 21.7145L15.6309 21.5128L15.9755 21.3117L16.3209 21.1111L16.667 20.9112L16.7789 20.8468L17.1235 20.648L17.4686 20.4503L17.815 20.2536L18.163 20.057L18.512 19.8615L18.8622 19.6667L19.2131 19.4729L19.5658 19.2803L19.9196 19.0881L20.2748 18.8973L20.6308 18.7076L20.9886 18.519L21.3475 18.3319L21.7083 18.1462L22.0701 17.9616L22.4338 17.7785L22.7989 17.5976L23.1655 17.4181L23.5343 17.2405L23.9049 17.0651L24.277 16.8922L24.4352 16.8202L24.4126 16.8323L24.0624 17.0124L23.7148 17.1945L23.3702 17.379L23.0281 17.5651L22.6885 17.7529L22.3515 17.9419L22.0168 18.1327L21.8764 18.2138L21.6838 18.3253L21.5423 18.4068L21.2116 18.6009L20.8823 18.7964L20.5555 18.9927L20.2306 19.1911L19.9086 19.39L19.5884 19.5906L19.2723 19.792L18.955 19.9963L18.6301 20.1937L18.3275 20.3947L18.0402 20.6034L17.7694 20.8194L17.5157 21.042L17.2789 21.2708L17.0596 21.5054L16.9258 21.6604L16.7215 21.9038L16.5354 22.152L16.3677 22.4046C16.3677 22.4046 16.3063 22.5106 16.3059 22.5098L13.4456 24.266C13.4456 24.266 12.6481 24.758 11.9193 25.595C10.8663 26.8044 9.86374 28.7484 11.2468 30.8083C12.7215 33.0042 16.0154 34.2681 19.5533 34.4465C19.8929 34.4636 20.6794 34.4914 21.4495 34.4549C22.2755 34.4158 23.0807 34.3116 23.2284 34.2981C23.8289 34.244 24.8522 34.0393 25.7751 33.7718C26.7715 33.4827 27.6578 33.1263 27.9487 32.9746C29.9077 31.9556 31.3741 31.1402 31.4194 31.1139L31.4198 31.119ZM7.82246 35.5535C7.85279 35.5959 8.51836 36.51 10.1799 37.5583C12.2182 38.8441 14.3812 39.3514 14.3812 39.3514C14.3812 39.3514 14.6374 36.612 14.31 35.438C13.7723 33.5112 12.1276 32.9293 11.2954 32.8251C10.1642 32.6837 9.47814 32.964 8.96791 33.3266C7.8517 34.1204 7.82136 35.5521 7.82136 35.5521C7.82136 35.5521 7.82173 35.5524 7.82246 35.5539V35.5535Z" fill="url(#paint0_linear_1404_1044)"/>
<path d="M37.2986 22.9667L36.2785 22.9477L34.6798 22.0244L34.7259 21.4813L37.2986 22.9667Z" fill="#DCE8F6"/>
<path d="M37.2986 23.0659L35.1944 24.0841L34.8173 24.0798L34.8417 23.7362L36.273 23.0432L37.2986 23.0659Z" fill="#DCE8F6"/>
<path d="M34.6129 24.1739L34.5858 24.3782L32.4886 25.3943L32.5431 24.8559L33.9682 24.1589L34.6129 24.1739Z" fill="#DCE8F6"/>
<path d="M34.5417 21.4738L34.4942 22.0158L33.0629 22.7088L32.4215 22.6963L32.4372 22.4924L34.5417 21.4738Z" fill="#DCE8F6"/>
<path d="M32.4757 20.1823L31.4552 20.1633L29.8566 19.2404L29.9026 18.6969L32.4757 20.1823Z" fill="#DCE8F6"/>
<path d="M32.4235 20.3159L30.3259 21.3312L29.9392 21.3279L29.9659 20.9865L31.3909 20.2896L32.4235 20.3159Z" fill="#DCE8F6"/>
<path d="M32.3494 24.8504L32.2975 25.3899L29.7142 23.8983L30.7478 23.9254L32.3494 24.8504Z" fill="#DCE8F6"/>
<path d="M32.2161 22.7902L32.189 23.1312L30.764 23.8285L29.7314 23.8018L31.829 22.7869L32.2161 22.7902Z" fill="#DCE8F6"/>
<path d="M29.8176 21.0183L29.8011 21.2935L29.2781 21.2763L27.5566 20.2822L27.5899 20.0172L28.1001 20.0267L29.8176 21.0183Z" fill="#DCE8F6"/>
<path d="M29.7912 21.3905L29.7642 21.5951L27.6655 22.6098L27.7204 22.0718L29.1465 21.3755L29.7912 21.3905Z" fill="#DCE8F6"/>
<path d="M29.7185 18.6893L29.671 19.2306L28.2397 19.924L27.5983 19.9115L27.6136 19.7076L29.7185 18.6893Z" fill="#DCE8F6"/>
<path d="M29.3892 23.1413L28.8497 23.4001L28.3563 23.115L28.8958 22.8566L29.3892 23.1413Z" fill="#DCE8F6"/>
<path d="M27.5263 22.0659L27.4741 22.6061L24.8907 21.1145L25.9247 21.1408L27.5263 22.0659Z" fill="#DCE8F6"/>
<path d="M17.4438 29.0803V29.5938L17.4343 29.717L17.3444 29.8289L17.1956 29.9177L17.0432 30.0054L16.8912 30.0935L16.7388 30.1816L16.5867 30.2689L16.4347 30.357L16.2822 30.4451L16.1302 30.5328L15.9782 30.6205L15.8257 30.7082L15.6741 30.7963L15.5217 30.8844L15.3696 30.9721L15.2172 31.0598L15.0652 31.1476L14.9127 31.2356L14.7607 31.323L14.6083 31.4114L14.4562 31.4988L14.3046 31.5869L14.1514 31.675L13.9997 31.7627L13.8338 31.8402L13.6288 31.8745L13.4153 31.8654L13.2128 31.8237L13.0283 31.7598L12.8627 31.6808L12.7297 31.584L12.628 31.4747L12.5451 31.3599L12.4742 31.2426L12.412 31.1238L12.3569 31.0032L12.3068 30.8826L12.2615 30.7612L12.2194 30.6395L12.1811 30.5171L12.1452 30.3946L12.1123 30.2722L12.0824 30.149L12.0542 30.0259L12.0286 29.9023L12.0056 29.7791L11.9851 29.6552L11.9672 29.5313L11.9526 29.4071L11.9431 29.2835V28.7697L11.9526 28.8939L11.9672 29.0182L11.9851 29.1421L12.0056 29.2653L12.0286 29.3892L12.0542 29.5127L12.0824 29.6355L12.1123 29.759L12.1452 29.8815L12.1811 30.0039L12.2194 30.1264L12.2615 30.2481L12.3068 30.3694L12.3569 30.49L12.412 30.6103L12.4742 30.7294L12.5451 30.8468L12.628 30.9615L12.7297 31.0708L12.8627 31.1677L13.0283 31.2466L13.2128 31.3106L13.4153 31.3519L13.6288 31.3614L13.8338 31.327L13.9997 31.2495L14.1514 31.1618L14.3046 31.0737L14.4562 30.986L14.6083 30.8979L14.7607 30.8098L14.9127 30.7225L15.0652 30.6344L15.2172 30.5467L15.3696 30.4586L15.5217 30.3712L15.6741 30.2832L15.8257 30.1951L15.9782 30.1074L16.1302 30.0193L16.2822 29.9316L16.4347 29.8438L16.5867 29.7561L16.7388 29.6684L16.8912 29.5803L17.0432 29.4922L17.1956 29.4045L17.3444 29.3153L17.4343 29.2039L17.4438 29.0803Z" fill="#80ABDF"/>
<path d="M15.1049 32.4031L15.2153 32.5095L15.3524 32.6052L15.5201 32.682L15.7098 32.7404L15.9083 32.7887L16.1119 32.8296L16.3176 32.8651L16.5256 32.8972L16.7347 32.9261L16.9452 32.9528L17.1561 32.9766L17.3677 32.9988L17.58 33.0193L17.7924 33.0383L18.0058 33.0559L18.2193 33.0716L18.4327 33.0866L18.6469 33.1001L18.8611 33.1118L19.0753 33.122L19.2906 33.1308L19.5051 33.1363L19.7204 33.1344L19.9305 33.1111L20.1217 33.0551L20.2799 32.9714L20.4057 32.8709L20.4729 32.7536L20.4938 32.6304V33.1436L20.4729 33.2668L20.4057 33.3841L20.2799 33.4846L20.1217 33.5683L19.9305 33.6242L19.7204 33.648L19.5051 33.6494L19.2906 33.6439L19.0753 33.6355L18.8611 33.6249L18.6469 33.6136L18.4327 33.5997L18.2193 33.5855L18.0058 33.569L17.7924 33.5515L17.58 33.5328L17.3677 33.5124L17.1561 33.4901L16.9452 33.4656L16.7347 33.4393L16.5256 33.4108L16.3176 33.3786L16.1119 33.3428L15.9083 33.3018L15.7098 33.254L15.5201 33.1951L15.3524 33.1184L15.2153 33.0226L15.1049 32.9162L15.0337 32.7993L15.0168 32.6761V32.163L15.0337 32.2861L15.1049 32.4031Z" fill="#80ABDF"/>
<path d="M13.5962 30.9212L13.6854 30.9062L13.7889 30.8579L13.9296 30.7768L14.082 30.6887L14.234 30.601L14.3864 30.5133L14.5388 30.4252L14.6909 30.3371L14.8426 30.2494L14.995 30.1613L15.147 30.074L15.2994 29.9859L15.4515 29.8978L15.6035 29.8101L15.7559 29.722L15.908 29.6346L16.0604 29.5466L16.2121 29.4588L16.3641 29.3711L16.5165 29.2834L16.6686 29.1953L16.8214 29.1072L16.9716 29.0202L17.0819 28.9545L17.1232 28.9033L17.128 28.8415L17.0962 28.7662L17.029 28.6887L16.9332 28.6156L16.9968 28.6518L17.1671 28.7501L17.2965 28.8492L17.3933 28.9596L17.4438 29.0802L17.4343 29.2037L17.3444 29.3152L17.1956 29.4044L17.0432 29.4921L16.8912 29.5802L16.7388 29.6683L16.5867 29.756L16.4347 29.8437L16.2822 29.9314L16.1302 30.0191L15.9782 30.1072L15.8257 30.1949L15.6741 30.283L15.5217 30.3711L15.3696 30.4585L15.2172 30.5465L15.0652 30.6343L14.9127 30.7223L14.7607 30.8097L14.6083 30.8978L14.4562 30.9859L14.3046 31.0736L14.1514 31.1617L13.9997 31.2494L13.8338 31.3269L13.6288 31.3612L13.4153 31.3517L13.2128 31.3104L13.0283 31.2465L12.8627 31.1675L12.7297 31.0707L12.628 30.9614L12.5451 30.8466L12.4742 30.7293L12.412 30.6101L12.3569 30.4899L12.3068 30.3693L12.2615 30.2479L12.2194 30.1262L12.1811 30.0038L12.1452 29.8813L12.1123 29.7589L12.0824 29.6354L12.0542 29.5126L12.0286 29.389L12.0056 29.2651L11.9851 29.142L11.9672 29.0181L11.9526 28.8938L11.9431 28.7695L11.9457 28.6456L11.9862 28.5243L12.0838 28.4139L12.2286 28.3222L12.3543 28.2501L12.4384 28.2019L12.3444 28.2618L12.2863 28.3273L12.2596 28.4077L12.2574 28.5104L12.2666 28.6273L12.2805 28.748L12.298 28.8693L12.3181 28.9903L12.3411 29.112L12.3664 29.2333L12.3938 29.3547L12.4234 29.4753L12.4555 29.5963L12.4906 29.7161L12.5283 29.8357L12.5692 29.9548L12.6131 30.0725L12.6613 30.1891L12.7147 30.3039L12.7731 30.4168L12.8389 30.525L12.9124 30.6266L12.9935 30.7143L13.0886 30.7834L13.2106 30.8415L13.3473 30.8886L13.4807 30.9161L13.5962 30.9212Z" fill="#D8E5F5"/>
<path d="M15.5735 32.2185L15.6934 32.273L15.8451 32.3201L16.0209 32.3622L16.2087 32.4002L16.4035 32.4338L16.6027 32.4649L16.8048 32.493L17.0088 32.5182L17.2149 32.542L17.4222 32.5636L17.6298 32.5837L17.8385 32.6023L18.0482 32.6191L18.2584 32.6356L18.4682 32.6498L18.6787 32.6626L18.8892 32.6747L19.0987 32.6849L19.3077 32.6926L19.5102 32.6981L19.6882 32.697L19.8275 32.6813L19.9411 32.648L20.0446 32.5935L20.1224 32.531L20.1634 32.459L20.1794 32.3662L20.1772 32.2551L20.1677 32.1356L20.1539 32.0153L20.1367 31.894L20.1169 31.7723L20.0943 31.6509L20.0694 31.53L20.0424 31.4086L20.0124 31.2876L19.9799 31.1674L19.9448 31.0475L19.9068 30.928L19.8658 30.8092L19.8213 30.6915L19.7715 30.5753L19.7175 30.4609L19.6575 30.3494L19.5903 30.2427L19.5142 30.144L19.4316 30.0629L19.3286 29.9985L19.4196 30.0504L19.5398 30.1202L19.6853 30.2105L19.7942 30.3172L19.8819 30.4313L19.955 30.5479L20.0194 30.6667L20.076 30.7862L20.1272 30.9068L20.1732 31.0285L20.2156 31.1502L20.2544 31.2723L20.2902 31.3947L20.3231 31.5179L20.3534 31.6407L20.3812 31.7639L20.4068 31.887L20.4294 32.0109L20.4499 32.1341L20.4674 32.2584L20.4817 32.3819L20.4912 32.5065L20.4938 32.6305L20.4729 32.7536L20.4057 32.8709L20.2799 32.9715L20.1217 33.0552L19.9305 33.1111L19.7204 33.1345L19.5051 33.1363L19.2906 33.1308L19.0753 33.122L18.8611 33.1118L18.6469 33.1001L18.4327 33.0866L18.2193 33.0716L18.0058 33.0559L17.7924 33.0383L17.58 33.0193L17.3677 32.9989L17.1561 32.9766L16.9452 32.9528L16.7347 32.9261L16.5256 32.8973L16.3176 32.8651L16.1119 32.8296L15.9083 32.7887L15.7098 32.7405L15.5201 32.682L15.3524 32.6052L15.2153 32.5095L15.1049 32.4031L15.0337 32.2862L15.0168 32.163L15.0764 32.0446L15.2102 31.9492L15.3286 31.8808L15.3684 31.8578L15.4441 31.8139L15.3604 31.8735L15.3345 31.925L15.3432 31.9916L15.3907 32.0691L15.4726 32.148L15.5735 32.2185Z" fill="#D8E5F5"/>
<path d="M20.0425 31.4085L20.0699 31.5299L20.0948 31.6512L20.1174 31.7725L20.1372 31.8942L20.1544 32.0156L20.1686 32.1358L20.1781 32.2554L20.1803 32.3665L20.1646 32.4597L20.1237 32.5313L20.0454 32.5942L19.942 32.6483L19.8283 32.6815L19.6891 32.6972L19.5111 32.6983L19.3082 32.6929L19.0995 32.6852L18.8901 32.6749L18.6796 32.6629L18.4691 32.6501L18.2589 32.6355L18.0487 32.6194L17.8393 32.6022L17.6306 32.5839L17.4227 32.5638L17.2158 32.5419L17.0097 32.5181L16.8057 32.4929L16.604 32.4648L16.4048 32.4341L16.21 32.4005L16.0221 32.3624L15.8463 32.32L15.6946 32.2733L15.5747 32.2184L15.4738 32.1479L15.392 32.069L15.3445 31.9918L15.3353 31.9253L15.3613 31.8738L15.445 31.8146L15.5853 31.7331L15.7381 31.645L15.8901 31.5569L16.0426 31.4688L16.195 31.3815L16.3466 31.2934L16.4991 31.2053L16.6511 31.1172L16.8035 31.0299L16.9556 30.9418L17.108 30.8537L17.26 30.7656L17.4124 30.6775L17.5645 30.5902L17.7169 30.5021L17.8689 30.414L18.021 30.3259L18.173 30.2386L18.3254 30.1505L18.4778 30.062L18.6281 29.9754L18.7421 29.9118L18.8316 29.8881L18.9384 29.8851L19.0685 29.9034L19.203 29.9425L19.3298 29.9977L19.4332 30.062L19.5155 30.1432L19.5915 30.2419L19.6591 30.3486L19.7191 30.4601L19.7731 30.5745L19.8225 30.6907L19.8674 30.8084L19.9084 30.9272L19.9464 31.0467L19.9815 31.1666L20.014 31.2868L20.044 31.4078L20.0425 31.4085ZM17.5652 31.8124L17.5981 31.8233L17.6573 31.8391L17.7531 31.8577L17.9515 31.8858L18.3455 31.9209L18.6171 31.9334H18.6551L18.6774 31.9323L18.6971 31.9304L18.7154 31.9279L18.7326 31.9246L18.7483 31.9206L18.7633 31.9154L18.7768 31.91L18.7914 31.9027L18.8046 31.895L18.817 31.888L18.828 31.8804L18.8382 31.872L18.8466 31.8628L18.8539 31.8529L18.8598 31.8423L18.8623 31.8358L18.8645 31.8288L18.866 31.8255L18.8682 31.8153V31.7725L18.8408 31.5803L18.779 31.365L18.7351 31.2689L18.7012 31.2155L18.6734 31.183L18.6536 31.1658L18.6328 31.1523L18.5999 31.1366L18.5725 31.1256L18.5502 31.1183L18.5283 31.1128L18.5078 31.1088L18.4906 31.1062L18.4745 31.1048L18.4559 31.1037H18.4387L18.4234 31.1048L18.4091 31.107L18.3967 31.1092L18.3857 31.1121L18.374 31.1161L18.3645 31.1194L18.3569 31.1234L18.3536 31.1256H18.3525L17.4793 31.6304L17.4753 31.6326L17.4687 31.6369L17.4618 31.6424L17.4548 31.6497L17.4497 31.6567L17.4453 31.6644L17.442 31.6728L17.4398 31.6826V31.6932L17.4417 31.7024L17.4446 31.7115L17.4515 31.725L17.4596 31.7375L17.4705 31.7502L17.4866 31.7652L17.5049 31.7798L17.5272 31.7945L17.5378 31.8003L17.5641 31.8124H17.5652Z" fill="#D8E5F5"/>
<path d="M16.9332 28.616L17.029 28.6891L17.0966 28.7669L17.128 28.8422L17.1233 28.904L17.082 28.9552L16.9719 29.0209L16.8217 29.1079L16.6689 29.196L16.5169 29.2841L16.3645 29.3722L16.2124 29.4595L16.0604 29.5476L15.908 29.6357L15.7559 29.7231L15.6035 29.8111L15.4515 29.8992L15.2994 29.9873L15.147 30.0754L14.995 30.1627L14.8426 30.2508L14.6905 30.3389L14.5385 30.427L14.3861 30.5151L14.2337 30.6032L14.0816 30.6905L13.9292 30.779L13.7885 30.8601L13.6851 30.9084L13.5959 30.9233L13.4807 30.9182L13.347 30.8908L13.2103 30.8433L13.0882 30.7852L12.9932 30.7161L12.912 30.6288L12.8386 30.5271L12.7728 30.4186L12.7143 30.306L12.6609 30.1913L12.6127 30.0747L12.5688 29.957L12.5279 29.8378L12.4903 29.7183L12.4552 29.5984L12.423 29.4774L12.393 29.3565L12.3656 29.2351L12.3404 29.1138L12.3174 28.9921L12.2973 28.8707L12.2797 28.7494L12.2655 28.6291L12.2563 28.5122L12.2585 28.4095L12.2856 28.3291L12.3437 28.2633L12.4376 28.2033L12.5462 28.1584L12.6708 28.1346L12.832 28.1255L13.0235 28.1266L13.2304 28.1321L13.4391 28.1397L13.6492 28.1496L13.8598 28.1613L14.0699 28.1745L14.2804 28.1887L14.4899 28.2044L14.6993 28.222L14.9076 28.2403L15.1156 28.2607L15.3225 28.2827L15.5279 28.3064L15.7315 28.332L15.9328 28.3605L16.1309 28.3916L16.3243 28.4267L16.5089 28.4654L16.6799 28.5089L16.8203 28.5568L16.9317 28.6167L16.9332 28.616ZM13.8539 29.6715L13.8788 29.6821L13.9051 29.6916L13.9274 29.6982L13.9486 29.703L13.9716 29.707L13.9873 29.7088L14.0027 29.7095H14.0209L14.0381 29.7088L14.0535 29.7066L14.0666 29.7041L14.0787 29.7011L14.0908 29.6971L14.1003 29.6931L14.1079 29.6891L14.112 29.6869L14.9851 29.1829H14.9866L14.9899 29.1803L14.9964 29.1756L15.003 29.1704L15.0096 29.1635L15.0147 29.1569L15.0187 29.15L15.022 29.1416L15.0239 29.1332V29.1229L15.0228 29.1123L15.0198 29.1028L15.0158 29.0929L15.0089 29.0809L14.999 29.0685L14.9866 29.0557L14.9679 29.04L14.9398 29.0206L14.9168 29.0085L14.8868 28.9976L14.8309 28.9815L14.7388 28.9617L14.5721 28.9365L14.2 28.9007L13.8667 28.8846H13.7925L13.775 28.8861L13.7691 28.8868L13.7574 28.8883L13.7465 28.8901L13.7282 28.8934L13.711 28.8974L13.6953 28.9025L13.6807 28.9084L13.6675 28.915L13.6555 28.9223L13.6419 28.9296L13.6295 28.938L13.6196 28.946L13.6116 28.9544L13.6043 28.9636L13.5984 28.9738L13.5941 28.984L13.5915 28.9957L13.5893 29.0085V29.0304L13.6101 29.1876L13.6704 29.4153L13.7194 29.5297L13.7523 29.5849L13.7797 29.6196L13.7991 29.6383L13.8192 29.6536L13.8298 29.6595L13.8554 29.6723L13.8539 29.6715Z" fill="#D8E5F5"/>
<path d="M18.7786 31.3658L18.8408 31.5811L18.8685 31.773L18.8682 31.8157L18.866 31.826L18.8645 31.8296L18.8623 31.8362L18.8598 31.8428L18.8539 31.8534L18.8466 31.8633L18.8382 31.872L18.828 31.8808L18.8166 31.8885L18.8046 31.8951L18.791 31.9027L18.7768 31.91L18.7629 31.9155L18.7479 31.9206L18.7322 31.9247L18.715 31.9279L18.6968 31.9305L18.677 31.9323L18.6551 31.9338H18.6171L18.3455 31.9214L17.9515 31.8863L17.753 31.8581L17.6573 31.8391L17.5981 31.8234L17.5652 31.8125L17.5385 31.8004L17.5279 31.7945L17.5056 31.7799L17.4873 31.7653L17.4713 31.7503L17.4599 31.7375L17.4519 31.7255L17.4453 31.7116L17.442 31.7028L17.4409 31.6937L17.4406 31.6831L17.4427 31.6732L17.446 31.6648L17.4504 31.6571L17.4555 31.6502L17.4621 31.6429L17.4691 31.6374L17.4756 31.633L17.4793 31.6308L18.3525 31.1268L18.3536 31.1264L18.3568 31.1242L18.3645 31.1202L18.374 31.1169L18.3857 31.1133L18.3967 31.11L18.4091 31.1081L18.423 31.106L18.4387 31.1049L18.4555 31.1045L18.4745 31.106L18.4906 31.1071L18.5078 31.1096L18.5283 31.1136L18.5498 31.1191L18.5721 31.1264L18.5995 31.1374L18.6324 31.1531L18.6533 31.167L18.673 31.1842L18.7008 31.2163L18.7348 31.2697L18.7786 31.3658Z" fill="#2B4E76"/>
<path d="M15.014 29.1571L15.0089 29.1633L15.0023 29.1702L14.9961 29.1753L14.9896 29.1801L14.9863 29.1823L14.9848 29.1826L14.112 29.6867L14.108 29.6889L14.1003 29.6929L14.0912 29.6965L14.0791 29.7005L14.0671 29.7035L14.0539 29.706L14.0385 29.7082L14.0214 29.709H14.0031L13.9877 29.7082L13.972 29.7064L13.949 29.7027L13.9274 29.698L13.9051 29.6914L13.8788 29.6819L13.854 29.6713L13.8284 29.6585L13.8178 29.6527L13.7977 29.6373L13.7787 29.6183L13.7513 29.584L13.7184 29.5288L13.6694 29.4144L13.6091 29.187L13.5875 29.0299L13.5883 29.0079L13.5901 28.9951L13.593 28.9838L13.597 28.9736L13.6032 28.9633L13.6102 28.9542L13.6186 28.9458L13.6281 28.9374L13.6405 28.929L13.6544 28.9217L13.6661 28.9144L13.6796 28.9082L13.6939 28.9023L13.71 28.8972L13.7268 28.8932L13.7451 28.8899L13.7564 28.8881L13.7677 28.8866L13.7739 28.8859L13.7915 28.8851L13.8657 28.8848L14.199 28.9008L14.5714 28.9367L14.7377 28.9619L14.8298 28.9816L14.8858 28.9977L14.9157 29.009L14.9388 29.0207L14.9669 29.0401L14.9859 29.0558L14.9983 29.0686L15.0078 29.081L15.0148 29.0931L15.0188 29.1026L15.0217 29.1121L15.0232 29.1227L15.0228 29.1329L15.0214 29.1417L15.0177 29.1501L15.014 29.1571Z" fill="#2B4E76"/>
<path d="M3.868 39.7989L3.91222 39.8523L3.96595 39.9034L4.02881 39.9521L4.10082 39.9981L4.23495 40.0752L4.01821 40.2002L3.96631 40.1597L3.91259 40.1085L3.86836 40.0551L3.83291 39.9999L3.80696 39.9436L3.79015 39.8859L3.78247 39.8282V39.5716L3.79015 39.6293L3.80696 39.6871L3.83291 39.7434L3.86836 39.7985L3.868 39.7989ZM5.9133 41.0405L5.83398 40.9988L5.50394 40.8084L5.28136 40.9363L5.83362 41.255L5.91293 41.2967L5.96885 41.3216L6.05584 41.3544L6.14721 41.3819L6.24187 41.4042L6.33873 41.421L6.43778 41.4327L6.53756 41.4392L6.6377 41.44L6.73785 41.4352L6.83726 41.4254L6.93448 41.4104L7.03024 41.3903L7.12235 41.3643L7.21116 41.3336L7.29559 41.2974L7.3749 41.2558L13.903 37.4872V37.2306L7.3749 40.9992L7.29559 41.0409L7.21116 41.077L7.12235 41.1077L7.03024 41.1333L6.93448 41.1538L6.83726 41.1688L6.73785 41.1786L6.6377 41.1834L6.53756 41.1823L6.43778 41.1765L6.33873 41.1648L6.24187 41.1479L6.14721 41.1257L6.05584 41.0979L5.96885 41.0653L5.91293 41.0405H5.9133Z" fill="#80ABDF"/>
<path d="M13.9043 36.9503V37.23L7.37624 40.9986L7.29693 41.0402L7.2125 41.0764L7.12369 41.1071L7.03158 41.1327L6.93583 41.1532L6.8386 41.1681L6.73919 41.178L6.63904 41.1828L6.5389 41.1817L6.43912 41.1758L6.34007 41.1641L6.24322 41.1473L6.14855 41.125L6.05718 41.0972L5.97019 41.0647L5.91427 41.0399L5.83496 40.9982L5.50492 40.8078L6.80863 40.0548L6.86382 40.0198L6.89672 39.9949L6.94021 39.9565L6.97639 39.916L7.00527 39.8747L7.02793 39.8315L7.04291 39.788L7.05096 39.7442L7.05205 39.7V39.5976L7.04657 39.5534L7.03341 39.5095L7.01368 39.4664L6.98626 39.424L6.95264 39.3834L6.9117 39.3443L6.86346 39.307L6.80827 39.2716L6.7476 39.2402L6.70483 39.2215L6.63795 39.1963L6.5685 39.1755L6.49577 39.1583L6.42158 39.1455L6.34592 39.1364L6.26953 39.1316H6.19278L6.11639 39.1342L6.04037 39.1418L5.96581 39.1535L5.89271 39.1689L5.8218 39.1886L5.75382 39.2124L5.68949 39.2402L5.62882 39.2716L4.23593 40.076L4.10179 39.9989L4.02979 39.9529L3.96692 39.9043L3.9132 39.8531L3.86897 39.7997L3.83352 39.7445L3.80757 39.6883L3.79076 39.6305L3.78308 39.5728L3.78418 39.5146L3.79478 39.4569L3.81488 39.3995L3.84375 39.3436L3.88213 39.2888L3.92964 39.2361L3.9863 39.1853L4.02942 39.1532L4.10143 39.1071L10.2903 35.5344L11.1481 35.0392C11.1639 35.0439 11.1792 35.0487 11.1949 35.0538C12.0564 35.3298 13.2881 35.8904 13.9047 36.95L13.9043 36.9503Z" fill="#D8E5F5"/>
<path style="mix-blend-mode:overlay" opacity="0.25" d="M10.2531 35.5954V35.5976H10.2517C10.2517 35.5976 9.42053 35.4017 8.33392 35.4137C8.33319 35.413 8.33282 35.4119 8.33209 35.4116C8.33173 35.4108 8.33136 35.4105 8.33136 35.4105C8.33136 35.4105 8.54992 34.2186 9.30284 33.7493C9.7524 33.469 10.3149 33.2054 11.2721 33.325C11.9764 33.413 13.4479 33.9956 13.9358 35.6166C14.2728 36.735 14.1738 38.5029 14.1551 38.7807C14.1617 38.5171 14.229 38.2931 13.904 37.727V37.7262L13.9037 37.7189V36.9506C13.2867 35.8911 12.0554 35.33 11.1939 35.0545C10.6493 34.8801 10.2528 34.8202 10.2528 34.8202V35.5958L10.2531 35.5954Z" fill="url(#paint1_linear_1404_1044)"/>
</g>
<path d="M13.4981 15.4549C13.3524 15.3652 13.1649 15.2342 13.0284 15.131C12.9378 15.0625 12.8258 14.96 12.7418 14.8833C12.6341 14.785 12.5037 14.6399 12.4074 14.5302C12.3447 14.459 12.2691 14.3575 12.2123 14.2815C12.1048 14.1376 11.9842 13.9297 11.8948 13.7738C11.8458 13.6881 11.7935 13.567 11.7516 13.4776C11.6288 13.2153 11.5288 12.834 11.5234 12.8095C11.479 12.6094 11.4247 12.3399 11.41 12.1354C11.4007 12.0047 11.3927 11.83 11.3942 11.699C11.3954 11.5927 11.402 11.4503 11.4189 11.3452C11.4527 11.1374 11.5081 10.862 11.5579 10.6574C11.59 10.5258 11.6501 10.3547 11.6916 10.2257C11.7359 10.0878 11.8058 9.90738 11.8602 9.77304C11.9317 9.59628 12.0321 9.36273 12.1113 9.18929C12.1847 9.02846 12.2853 8.81516 12.3659 8.65789C12.4419 8.50953 12.5421 8.31126 12.62 8.16405C12.7028 8.00767 12.8146 7.79984 12.9019 7.64588C13.1557 7.19763 13.2714 6.99312 13.4782 6.64904C13.7658 6.17048 13.9588 5.85479 14.3425 5.24851C14.4237 5.12015 14.5326 4.94938 14.6145 4.8214C14.7615 4.59193 14.9581 4.2863 15.1055 4.05708C15.2194 3.88007 15.3503 3.6742 15.4983 3.43946C15.5554 3.34879 15.6837 3.14033 15.7602 3C15.8355 3.13256 15.9382 3.30792 16.0178 3.43794C16.0297 3.45742 16.1417 3.64003 16.4089 4.06077C16.4791 4.17118 16.5725 4.31826 16.6426 4.4288C16.7185 4.5485 16.8201 4.70794 16.8956 4.82802C17.0609 5.09073 17.2803 5.44156 17.444 5.70529C17.6258 5.99869 17.8855 6.43039 18.0216 6.66215C18.25 7.05081 18.4419 7.38725 18.5922 7.66218C18.6738 7.81169 18.782 8.01149 18.8609 8.16252C18.9411 8.3161 19.0482 8.52074 19.1225 8.67724C19.1921 8.82407 19.2875 9.01878 19.3544 9.16688C19.424 9.32109 19.5143 9.52803 19.5776 9.68491C19.6842 9.94902 19.8148 10.3065 19.8911 10.5809C19.9317 10.7271 19.9791 10.924 20.0084 11.0728C20.0303 11.1836 20.0485 11.3333 20.0618 11.4453C20.0835 11.6317 20.084 11.8843 20.0656 12.0711C20.0554 12.174 20.0453 12.3118 20.0271 12.4135C19.9973 12.5796 19.955 12.8011 19.9058 12.9625C19.8474 13.1534 19.7487 13.4012 19.6706 13.5847C19.6289 13.6825 19.5599 13.807 19.5067 13.8991C19.4584 13.9825 19.3927 14.0932 19.3363 14.1711C19.2349 14.3111 19.099 14.4981 18.9814 14.6246C18.858 14.7574 18.684 14.926 18.5475 15.0452C18.4458 15.1341 18.3 15.2409 18.1885 15.3172C18.0956 15.3807 17.9687 15.4616 17.8694 15.5146C17.6662 15.623 17.5733 15.6725 17.3612 15.7583C17.2321 15.8105 17.0558 15.8704 16.9218 15.9085C16.6851 15.9757 16.4823 16.0084 16.4803 16.0088C16.4205 16.0181 16.3409 16.031 16.2808 16.0386C16.2209 16.0461 16.141 16.0555 16.0807 16.0591C16.0223 16.0625 15.9445 16.0694 15.886 16.0701C15.8277 16.0708 15.75 16.073 15.6917 16.0724C15.6334 16.0717 15.5556 16.0696 15.4972 16.0661C15.4385 16.0625 15.3604 16.0569 15.3019 16.0511C15.2422 16.0451 15.163 16.034 15.1034 16.0268C15.0429 16.0192 14.9632 16.0032 14.9032 15.9928C14.752 15.9664 14.5572 15.9105 14.4838 15.8895C14.3518 15.8517 14.1443 15.7762 14.0115 15.7174C13.9411 15.6864 13.8476 15.6441 13.7791 15.6089C13.6936 15.5651 13.5802 15.505 13.4983 15.4547L13.4981 15.4549Z" fill="url(#paint2_linear_1404_1044)"/>
<g style="mix-blend-mode:multiply">
<path d="M19.5089 13.8993C19.3066 14.2223 19.2586 14.299 18.9837 14.6249C18.7222 14.8966 18.682 14.9384 18.4214 15.1497C18.1307 15.3613 18.1004 15.3835 17.8718 15.5149C17.5667 15.6743 17.5547 15.6806 17.3636 15.7586C17.1662 15.8319 17.0133 15.8837 16.905 15.9141C16.7199 15.9606 16.5791 15.9923 16.4827 16.009C16.3058 16.0354 16.1726 16.0521 16.0831 16.0592C15.9102 16.0689 15.7805 16.0734 15.694 16.0725C15.5207 16.0669 15.3908 16.0598 15.3042 16.0513C15.0422 16.0192 15.0373 16.0185 14.9025 15.9923C14.6326 15.9328 14.622 15.9305 14.477 15.8869C14.1935 15.7929 14.1766 15.7873 14.0138 15.7176C13.7207 15.5808 13.69 15.5665 13.5006 15.4549C13.1988 15.2611 13.1672 15.2407 12.9698 15.0818C12.6985 14.843 12.6421 14.7934 12.4099 14.5304C12.1803 14.2378 12.1187 14.1591 11.8975 13.7741L11.8646 13.7111C13.1688 15.9384 18.373 15.9547 19.5987 13.7353L19.5091 13.8994L19.5089 13.8993Z" fill="#EB5300"/>
</g>
<g style="mix-blend-mode:screen">
<path d="M15.3031 16.0513C15.0412 16.0192 15.0362 16.0185 14.9016 15.9923C14.6317 15.9328 14.6211 15.9305 14.476 15.8869C14.1926 15.7929 14.1756 15.7873 14.0129 15.7176C13.7198 15.5808 13.6891 15.5665 13.4997 15.4549C13.1979 15.2611 13.1663 15.2407 12.9689 15.0818C12.6976 14.843 12.6411 14.7934 12.409 14.5304C12.1794 14.2378 12.1178 14.1591 11.8964 13.774C11.7664 13.505 11.6319 13.2269 11.525 12.8096C11.4519 12.4605 11.3941 12.1847 11.3959 11.699C11.4258 11.2709 11.432 11.1818 11.5595 10.6576C11.7318 10.1011 11.7421 10.0678 11.9064 9.66318C12.0898 9.2421 12.2435 8.90706 12.3672 8.65806C12.5908 8.22381 12.7694 7.88644 12.9032 7.64593C13.1491 7.21313 13.3412 6.88085 13.4796 6.64908C13.7309 6.2336 13.925 5.91617 14.0619 5.6968C14.299 5.32004 14.4836 5.02825 14.6159 4.82144C14.7794 4.56663 14.9433 4.31181 15.1069 4.05712L15.2975 3.75952C14.3426 5.25938 12.1063 8.77152 12.1462 11.8906C12.1788 14.442 14.5093 15.9926 15.4549 16.0637L15.3031 16.0513Z" fill="#FF5638"/>
</g>
<g style="mix-blend-mode:multiply">
<path d="M16.1701 16.0511C16.4321 16.0191 16.437 16.0184 16.5716 15.9922C16.8416 15.9327 16.8522 15.9304 16.9972 15.8867C17.2807 15.7928 17.2976 15.7872 17.4604 15.7175C17.7535 15.5807 17.7842 15.5663 17.9735 15.4548C18.2754 15.261 18.3069 15.2406 18.5043 15.0817C18.7757 14.8429 18.8321 14.7932 19.0642 14.5303C19.2938 14.2376 19.3555 14.1589 19.5768 13.7739C19.7068 13.5049 19.8413 13.2268 19.9483 12.8095C20.0215 12.4603 20.0792 12.1845 20.0774 11.6988C20.0475 11.2707 20.0412 11.1815 19.9138 10.6574C19.7415 10.1009 19.7311 10.0675 19.5669 9.66294C19.3834 9.24185 19.2298 8.90681 19.106 8.65781C18.8825 8.22357 18.7038 7.88619 18.57 7.64568C18.3242 7.21289 18.132 6.8806 17.9937 6.64884C17.7424 6.23336 17.5483 5.91593 17.4113 5.69656C17.1743 5.31979 16.9896 5.028 16.8574 4.8212C16.6939 4.56638 16.5301 4.31157 16.3663 4.05688L16.1757 3.75928C17.1307 5.25901 19.3671 8.77128 19.3271 11.8902C19.2945 14.4416 16.964 15.9922 16.0183 16.0634L16.1701 16.0509V16.0511Z" fill="#F7C8AE"/>
</g>
<defs>
<filter id="filter0_d_1404_1044" x="0.427673" y="14.6552" width="51.7354" height="36.7777" filterUnits="userSpaceOnUse" color-interpolation-filters="sRGB">
<feFlood flood-opacity="0" result="BackgroundImageFix"/>
<feColorMatrix in="SourceAlpha" type="matrix" values="0 0 0 0 0 0 0 0 0 0 0 0 0 0 0 0 0 0 127 0" result="hardAlpha"/>
<feOffset dx="1" dy="4"/>
<feGaussianBlur stdDeviation="2"/>
<feColorMatrix type="matrix" values="0 0 0 0 0.121875 0 0 0 0 0.145739 0 0 0 0 0.1875 0 0 0 0.14 0"/>
<feBlend mode="normal" in2="BackgroundImageFix" result="effect1_dropShadow_1404_1044"/>
<feBlend mode="normal" in="SourceGraphic" in2="effect1_dropShadow_1404_1044" result="shape"/>
</filter>
<linearGradient id="paint0_linear_1404_1044" x1="20.2108" y1="18.7763" x2="32.6707" y2="40.3576" gradientUnits="userSpaceOnUse">
<stop stop-color="#EBEBEB"/>
<stop offset="0.32" stop-color="#E8E8E8"/>
<stop offset="0.46" stop-color="#E1E1E1"/>
<stop offset="0.58" stop-color="#D4D4D4"/>
<stop offset="0.67" stop-color="#C2C2C2"/>
<stop offset="0.75" stop-color="#AAAAAA"/>
<stop offset="0.83" stop-color="#8D8D8D"/>
<stop offset="0.9" stop-color="#6A6A6A"/>
<stop offset="0.96" stop-color="#434343"/>
<stop offset="1" stop-color="#262626"/>
</linearGradient>
<linearGradient id="paint1_linear_1404_1044" x1="8.33173" y1="36.0376" x2="14.1836" y2="36.0376" gradientUnits="userSpaceOnUse">
<stop stop-color="white"/>
<stop offset="0.19" stop-color="#FCFCFC"/>
<stop offset="0.33" stop-color="#F3F3F3"/>
<stop offset="0.44" stop-color="#E3E3E3"/>
<stop offset="0.55" stop-color="#CECECE"/>
<stop offset="0.65" stop-color="#B1B1B1"/>
<stop offset="0.74" stop-color="#8F8F8F"/>
<stop offset="0.83" stop-color="#666666"/>
<stop offset="0.92" stop-color="#373737"/>
<stop offset="1"/>
</linearGradient>
<linearGradient id="paint2_linear_1404_1044" x1="15.7365" y1="16.0727" x2="15.7365" y2="3.00013" gradientUnits="userSpaceOnUse">
<stop stop-color="#FF382E"/>
<stop offset="1" stop-color="#FF772E"/>
</linearGradient>
</defs>
</svg>
