<svg xmlns="http://www.w3.org/2000/svg" width="120.528" height="48.61" viewBox="0 0 120.528 48.61"><defs><style>.a{fill:none;}.b{fill:#4a20be;}.c,.f{fill:#0065ff;}.d,.e,.f{stroke:none;}.e{fill:#ffc400;}</style></defs><g transform="translate(16503 4409.335)"><g transform="translate(-16508 -4410.335)"><g transform="translate(16.041 1)"><g class="a"><path class="d" d="M5.854,31.453h11.6a5.912,5.912,0,0,0,5.854-5.968V16.934a5.912,5.912,0,0,0-5.854-5.968H9.989L0,0V25.485A5.912,5.912,0,0,0,5.854,31.453Z"/><path class="e" d="M 17.45400047302246 27.45292282104492 C 18.47616958618164 27.45292282104492 19.30776023864746 26.57009315490723 19.30776023864746 25.48495292663574 L 19.30776023864746 16.93383407592773 C 19.30776023864746 15.84869289398193 18.47616958618164 14.96586322784424 17.45400047302246 14.96586322784424 L 14.66438007354736 14.96586322784424 L 9.988759994506836 14.96586322784424 L 8.221640586853027 14.96586322784424 L 7.031660079956055 13.65947341918945 L 4 10.33125686645508 L 4 16.93383407592773 L 4 25.48495292663574 C 4 26.57009315490723 4.831600189208984 27.45292282104492 5.85377025604248 27.45292282104492 L 17.45400047302246 27.45292282104492 M 17.45400047302246 31.45292282104492 L 5.85377025604248 31.45292282104492 C 2.620820045471191 31.45292282104492 1.193237295638028e-07 28.78097343444824 1.193237295638028e-07 25.48495292663574 L 1.193237295638028e-07 16.93383407592773 L 1.193237295638028e-07 8.28990364074707 L 1.193237295638028e-07 3.317871005492634e-06 L 9.988759994506836 10.96586322784424 L 14.66438007354736 10.96586322784424 L 17.45400047302246 10.96586322784424 C 20.68693923950195 10.96586322784424 23.30776023864746 13.63781356811523 23.30776023864746 16.93383407592773 L 23.30776023864746 25.48495292663574 C 23.30776023864746 28.78097343444824 20.68693923950195 31.45292282104492 17.45400047302246 31.45292282104492 Z"/></g></g><g transform="translate(0 18.157)"><g class="a" transform="translate(0 0)"><path class="d" d="M10.854,0h11.6a5.912,5.912,0,0,1,5.854,5.968v8.551a5.912,5.912,0,0,1-5.854,5.968H14.989L5,31.453V5.968A5.912,5.912,0,0,1,10.854,0Z"/><path class="f" d="M 10.85376167297363 4.000003814697266 C 9.83159065246582 4.000003814697266 9.000001907348633 4.882833480834961 9.000001907348633 5.967973709106445 L 9.000001907348633 14.51909255981445 L 9.000001907348633 21.12166213989258 L 12.03165054321289 17.79345321655273 L 13.22163200378418 16.48706436157227 L 14.98875045776367 16.48706436157227 L 19.66438102722168 16.48706436157227 L 22.45400238037109 16.48706436157227 C 23.47617149353027 16.48706436157227 24.30776214599609 15.60423374176025 24.30776214599609 14.51909255981445 L 24.30776214599609 5.967973709106445 C 24.30776214599609 4.882833480834961 23.47617149353027 4.000003814697266 22.45400238037109 4.000003814697266 L 10.85376167297363 4.000003814697266 M 10.85376167297363 3.814697265625e-06 L 22.45400238037109 3.814697265625e-06 C 25.68694114685059 3.814697265625e-06 28.30776214599609 2.671953201293945 28.30776214599609 5.967973709106445 L 28.30776214599609 14.51909255981445 C 28.30776214599609 17.81511306762695 25.68694114685059 20.48706436157227 22.45400238037109 20.48706436157227 L 19.66438102722168 20.48706436157227 L 14.98875045776367 20.48706436157227 L 5.000001907348633 31.45292282104492 L 5.000001907348633 23.16302299499512 L 5.000001907348633 14.51909255981445 L 5.000001907348633 5.967973709106445 C 5.000001907348633 2.671953201293945 7.620820999145508 3.814697265625e-06 10.85376167297363 3.814697265625e-06 Z"/></g></g><rect class="b" width="4" height="4" transform="translate(16.043 18.156)"/><rect class="b" width="4" height="4" transform="translate(24.304 28.464)"/></g><g transform="translate(-16460.547 -4399.335)"><path class="c" d="M11.542-24.914a4.9,4.9,0,0,1-.366-1.321,4.946,4.946,0,0,1-3.714,1.582,4.992,4.992,0,0,1-3.478-1.216,3.891,3.891,0,0,1-1.347-3.008,4.018,4.018,0,0,1,1.68-3.472,8.143,8.143,0,0,1,4.806-1.21h1.948v-.928a2.478,2.478,0,0,0-.615-1.759,2.436,2.436,0,0,0-1.87-.66,2.8,2.8,0,0,0-1.778.543,1.68,1.68,0,0,0-.693,1.38H2.937a3.527,3.527,0,0,1,.772-2.177,5.14,5.14,0,0,1,2.1-1.589,7.372,7.372,0,0,1,2.962-.575,5.937,5.937,0,0,1,3.962,1.249,4.453,4.453,0,0,1,1.517,3.511v6.381a7.232,7.232,0,0,0,.536,3.047v.222ZM8.051-27.2a3.615,3.615,0,0,0,1.772-.458,3.058,3.058,0,0,0,1.249-1.229v-2.668H9.358a4.684,4.684,0,0,0-2.655.615A1.991,1.991,0,0,0,5.814-29.2a1.857,1.857,0,0,0,.608,1.458A2.355,2.355,0,0,0,8.051-27.2Zm17.458-1.556a1.441,1.441,0,0,0-.7-1.295,7.441,7.441,0,0,0-2.321-.785A11.932,11.932,0,0,1,19.78-31.7a3.613,3.613,0,0,1-2.38-3.335,3.766,3.766,0,0,1,1.543-3.06,6.1,6.1,0,0,1,3.923-1.229,6.347,6.347,0,0,1,4.1,1.255,3.984,3.984,0,0,1,1.563,3.256H25.351a1.958,1.958,0,0,0-.68-1.523,2.606,2.606,0,0,0-1.8-.608,2.816,2.816,0,0,0-1.707.484,1.525,1.525,0,0,0-.66,1.295,1.288,1.288,0,0,0,.615,1.138,8.452,8.452,0,0,0,2.485.817,11.761,11.761,0,0,1,2.936.981,4.157,4.157,0,0,1,1.582,1.367,3.485,3.485,0,0,1,.517,1.935,3.687,3.687,0,0,1-1.582,3.093,6.747,6.747,0,0,1-4.145,1.183,7.316,7.316,0,0,1-3.1-.628,5.1,5.1,0,0,1-2.118-1.726,4.086,4.086,0,0,1-.758-2.367h3.086a2.239,2.239,0,0,0,.85,1.733,3.3,3.3,0,0,0,2.079.608,3.213,3.213,0,0,0,1.909-.477A1.477,1.477,0,0,0,25.508-28.759ZM36-30.982,34.583-29.53v4.616H31.406V-45h3.178v11.586l.994-1.242,3.91-4.407h3.818l-5.257,5.9,5.819,8.251H40.193Z" transform="translate(-2.637 46.753)"/><g transform="translate(45.194 0)"><g transform="translate(0)"><path class="c" d="M.3,32c.5,0,1.029.029,1.528.029H5.413c.206,0,.264.059.264.264v2.527a.1.1,0,0,1,.059.029c.059-.088.118-.147.176-.235a6.215,6.215,0,0,1,3.232-2.645,5.031,5.031,0,0,1,6.612,3.262,11.606,11.606,0,0,1,.617,4.907,10.791,10.791,0,0,1-1.293,4.643,5.377,5.377,0,0,1-5.466,2.85,5.77,5.77,0,0,1-3.526-1.675A3.112,3.112,0,0,1,5.8,45.6c-.029.029-.059.029-.088.059v7.288H2.974c0-.088-.029-.147-.029-.206V35.521a9.243,9.243,0,0,0-.088-1.293,1.272,1.272,0,0,0-1.2-1.2c-.353-.059-.705-.088-1.058-.118-.176,0-.235-.088-.235-.264A3.238,3.238,0,0,0,.3,32.113Zm5.378,8.14v4.114a.459.459,0,0,0,.206.382,7.424,7.424,0,0,0,3.409,1.5,3.082,3.082,0,0,0,2.674-.764,4.342,4.342,0,0,0,1.146-2.057,13.234,13.234,0,0,0,.206-5.877,6.976,6.976,0,0,0-1.117-2.85,2.77,2.77,0,0,0-3.232-1.2,5.932,5.932,0,0,0-3.2,2.321.7.7,0,0,0-.088.353Z" transform="translate(-0.3 -25.002)"/><path class="c" d="M272.3,9.852V9h5.377v9.815c.382-.441.705-.882,1.087-1.293a5.713,5.713,0,0,1,6.053-1.616A5,5,0,0,1,287.9,18.7a9.212,9.212,0,0,1,.911,3.526,12.025,12.025,0,0,1-.735,5.378,6.508,6.508,0,0,1-2.762,3.379,6.146,6.146,0,0,1-6.994-.735c-.176-.176-.352-.353-.529-.5a.318.318,0,0,0-.206-.088c-.029,0-.088.118-.088.176-.088.5-.176,1-.294,1.5-.029.088-.117.206-.176.206h-2.145V12.556a12.655,12.655,0,0,0-.147-1.793.691.691,0,0,0-.588-.646c-.5-.088-1.029-.176-1.528-.264Zm5.377,14.311v4.143a.534.534,0,0,0,.118.323,7.385,7.385,0,0,0,3.35,1.5,3.445,3.445,0,0,0,4.173-2.41,9.973,9.973,0,0,0,.5-3.085,14.578,14.578,0,0,0-.382-4.232,4.437,4.437,0,0,0-1.2-2.175,3.465,3.465,0,0,0-3.086-.705,5.693,5.693,0,0,0-3.262,2.057.847.847,0,0,0-.206.588Z" transform="translate(-255.971 -9)"/></g></g></g></g></svg>