<svg xmlns="http://www.w3.org/2000/svg" width="27.999" height="28" viewBox="0 0 27.999 28"><defs><style>.a,.b{fill:none;}.c{fill:#fff;}.d,.e{stroke:none;}.e{fill:#fff;}</style></defs><g transform="translate(-45 -269)"><rect class="a" width="27.999" height="27.999" transform="translate(45 269)"/><g transform="translate(48 269)"><g transform="translate(7.699 0)"><g class="b"><path class="d" d="M3.372,18.117h6.682a3.405,3.405,0,0,0,3.372-3.438V9.754a3.405,3.405,0,0,0-3.372-3.438h-4.3L0,0V14.68A3.405,3.405,0,0,0,3.372,18.117Z"/><path class="e" d="M 10.05372619628906 16.11729621887207 C 10.81016540527344 16.11729621887207 11.42557525634766 15.47237682342529 11.42557525634766 14.67966747283936 L 11.42557525634766 9.754107475280762 C 11.42557525634766 8.961397171020508 10.81016540527344 8.316476821899414 10.05372619628906 8.316476821899414 L 8.44687557220459 8.316476821899414 L 5.753655910491943 8.316476821899414 L 4.870095729827881 8.316476821899414 L 4.275105953216553 7.663287162780762 L 1.999995708465576 5.165627002716064 L 1.999995708465576 9.754107475280762 L 1.999995708465576 14.67966747283936 C 1.999995708465576 15.47237682342529 2.615405797958374 16.11729621887207 3.371845722198486 16.11729621887207 L 10.05372619628906 16.11729621887207 M 10.05372619628906 18.11729621887207 L 3.371845722198486 18.11729621887207 C 1.509625673294067 18.11729621887207 -4.279174845578382e-06 16.57821655273438 -4.279174845578382e-06 14.67966747283936 L -4.279174845578382e-06 9.754107475280762 L -4.279174845578382e-06 4.775097370147705 L -4.279174845578382e-06 -2.844238224497531e-06 L 5.753655910491943 6.316477298736572 L 8.44687557220459 6.316477298736572 L 10.05372619628906 6.316477298736572 C 11.9159460067749 6.316477298736572 13.42557525634766 7.855556964874268 13.42557525634766 9.754107475280762 L 13.42557525634766 14.67966747283936 C 13.42557525634766 16.57821655273438 11.9159460067749 18.11729621887207 10.05372619628906 18.11729621887207 Z"/></g></g><g transform="translate(0 9.883)"><g class="b" transform="translate(-5 0)"><path class="d" d="M8.372,0h6.682a3.405,3.405,0,0,1,3.372,3.438V8.363A3.405,3.405,0,0,1,15.054,11.8h-4.3L5,18.117V3.438A3.405,3.405,0,0,1,8.372,0Z"/><path class="e" d="M 8.371845245361328 1.999998092651367 C 7.615406036376953 1.999998092651367 6.999996185302734 2.644917488098145 6.999996185302734 3.437626838684082 L 6.999996185302734 8.363186836242676 L 6.999996185302734 12.95166110992432 L 9.275105476379395 10.4539966583252 L 9.870095252990723 9.800806999206543 L 10.75365543365479 9.800806999206543 L 13.44687557220459 9.800806999206543 L 15.05372619628906 9.800806999206543 C 15.81016540527344 9.800806999206543 16.42557525634766 9.15589714050293 16.42557525634766 8.363186836242676 L 16.42557525634766 3.437626838684082 C 16.42557525634766 2.644917488098145 15.81016540527344 1.999998092651367 15.05372619628906 1.999998092651367 L 8.371845245361328 1.999998092651367 M 8.371845245361328 -1.9073486328125e-06 L 15.05372619628906 -1.9073486328125e-06 C 16.91594505310059 -1.9073486328125e-06 18.42557525634766 1.539077758789062 18.42557525634766 3.437626838684082 L 18.42557525634766 8.363186836242676 C 18.42557525634766 10.26173782348633 16.91594505310059 11.80080699920654 15.05372619628906 11.80080699920654 L 13.44687557220459 11.80080699920654 L 10.75365543365479 11.80080699920654 L 4.999996185302734 18.11729621887207 L 4.999996185302734 13.34219741821289 L 4.999996185302734 8.363186836242676 L 4.999996185302734 3.437626838684082 C 4.999996185302734 1.539077758789062 6.509626388549805 -1.9073486328125e-06 8.371845245361328 -1.9073486328125e-06 Z"/></g></g><rect class="c" width="2.008" height="2.008" transform="translate(7.7 9.882)"/><rect class="c" width="2.008" height="2.008" transform="translate(11.423 16.119)"/></g></g></svg>