<svg xmlns="http://www.w3.org/2000/svg" xmlns:xlink="http://www.w3.org/1999/xlink" width="36.216" height="707" viewBox="0 0 36.216 707">
  <defs>
    <clipPath id="clip-path">
      <rect id="Rectangle_6872" data-name="Rectangle 6872" width="28" height="28" transform="translate(840 212)" fill="#fff" stroke="#707070" stroke-width="1"/>
    </clipPath>
    <clipPath id="clip-path-2">
      <rect id="Rectangle_10" data-name="Rectangle 10" width="28" height="28" fill="#fff" stroke="#707070" stroke-width="1"/>
    </clipPath>
    <clipPath id="clip-path-3">
      <rect id="Rectangle_3002" data-name="Rectangle 3002" width="28" height="28" transform="translate(19 603)" fill="rgba(0,101,255,0)"/>
    </clipPath>
    <clipPath id="clip-path-4">
      <rect id="Rectangle_10273" data-name="Rectangle 10273" width="28" height="28" transform="translate(-167 -50.981)" fill="#fff" stroke="#707070" stroke-width="1"/>
    </clipPath>
    <clipPath id="clip-path-5">
      <rect id="Rectangle_10274" data-name="Rectangle 10274" width="28" height="28" transform="translate(1045 470)" fill="#fff" stroke="#707070" stroke-width="1"/>
    </clipPath>
    <clipPath id="clip-path-6">
      <rect id="Rectangle_6286" data-name="Rectangle 6286" width="28" height="28" transform="translate(840.5 229)" fill="#fff" stroke="#707070" stroke-width="1"/>
    </clipPath>
    <clipPath id="clip-path-7">
      <rect id="Rectangle_10275" data-name="Rectangle 10275" width="28" height="28" transform="translate(831 463)" fill="#fff" stroke="#707070" stroke-width="1"/>
    </clipPath>
    <clipPath id="clip-path-8">
      <rect id="Rectangle_10276" data-name="Rectangle 10276" width="28" height="28" transform="translate(901 462)" fill="#fff" stroke="#707070" stroke-width="1"/>
    </clipPath>
    <clipPath id="clip-path-9">
      <rect id="Rectangle_10277" data-name="Rectangle 10277" width="28" height="28" transform="translate(972 463)" fill="#fff" stroke="#707070" stroke-width="1"/>
    </clipPath>
    <clipPath id="clip-path-10">
      <rect id="Rectangle_6871" data-name="Rectangle 6871" width="28" height="28" transform="translate(840 224)" fill="#fff" stroke="#707070" stroke-width="1"/>
    </clipPath>
    <clipPath id="clip-path-12">
      <rect id="Rectangle_6874" data-name="Rectangle 6874" width="28" height="28" transform="translate(870 275.979)" fill="#fff" stroke="#707070" stroke-width="1"/>
    </clipPath>
    <clipPath id="clip-path-13">
      <rect id="Rectangle_27486" data-name="Rectangle 27486" width="24" height="24" transform="translate(-12122 -3324)" fill="#fff" stroke="#707070" stroke-width="1"/>
    </clipPath>
    <clipPath id="clip-path-14">
      <rect id="Rectangle_169" data-name="Rectangle 169" width="24" height="24" fill="#fff" opacity="0"/>
    </clipPath>
  </defs>
  <g id="Group_164" data-name="Group 164" transform="translate(-652.578 -3914)">
    <g id="Group_222089" data-name="Group 222089" transform="translate(12474 6945)">
      <g id="Mask_Group_10042" data-name="Mask Group 10042" transform="translate(-12657 -3243)" clip-path="url(#clip-path)">
        <g id="Mask_Group_10042-2" data-name="Mask Group 10042" transform="translate(840 212)" clip-path="url(#clip-path-2)">
          <g id="Group_40" data-name="Group 40" transform="translate(3.575)">
            <path id="Path_29" data-name="Path 29" d="M0,0H13.811a3.231,3.231,0,0,1,3.231,3.23V21.052H0Z" transform="translate(0.683 5.981)" fill="#c7efe7"/>
            <g id="Group_34" data-name="Group 34" transform="translate(9.742 9.288)">
              <g id="Group_33" data-name="Group 33">
                <g id="Group_28" data-name="Group 28" transform="translate(0 2.108)">
                  <path id="Path_30" data-name="Path 30" d="M229.528,282.482h-4.454a.411.411,0,1,1,0-.817h4.454a.411.411,0,0,1,0,.817Z" transform="translate(-224.62 -281.663)" fill="#253858" stroke="#253858" stroke-width="0.3"/>
                </g>
                <g id="Group_29" data-name="Group 29" transform="translate(0.044)">
                  <path id="Path_31" data-name="Path 31" d="M231.09,243.984h-6.15c-.156,0-.283-.184-.283-.411s.127-.411.283-.411h6.151c.156,0,.284.183.284.411S231.246,243.984,231.09,243.984Z" transform="translate(-224.657 -243.163)" fill="#253858" stroke="#253858" stroke-width="0.3"/>
                </g>
                <g id="Group_32" data-name="Group 32" transform="translate(0 8.878)">
                  <g id="Group_30" data-name="Group 30" transform="translate(0 2.108)">
                    <path id="Path_32" data-name="Path 32" d="M229.528,408.169h-4.454a.411.411,0,1,1,0-.817h4.454a.411.411,0,0,1,0,.817Z" transform="translate(-224.62 -407.35)" fill="#253858" stroke="#253858" stroke-width="0.3"/>
                  </g>
                  <g id="Group_31" data-name="Group 31" transform="translate(0.043)">
                    <path id="Path_33" data-name="Path 33" d="M231.09,369.671h-6.15c-.156,0-.283-.184-.283-.411s.127-.411.283-.411h6.151c.156,0,.284.184.284.411S231.246,369.671,231.09,369.671Z" transform="translate(-224.657 -368.85)" fill="#253858" stroke="#253858" stroke-width="0.3"/>
                  </g>
                </g>
              </g>
            </g>
            <g id="Group_35" data-name="Group 35" transform="translate(5.73)">
              <path id="Path_34" data-name="Path 34" d="M177.106,3.864h-7.093a1.225,1.225,0,0,1-1.223-1.223V1.223A1.225,1.225,0,0,1,170.013,0h7.093a1.225,1.225,0,0,1,1.223,1.223V2.64a1.225,1.225,0,0,1-1.223,1.224ZM170.013.817a.4.4,0,0,0-.4.4V2.64a.4.4,0,0,0,.4.4h7.093a.4.4,0,0,0,.4-.4V1.223a.4.4,0,0,0-.4-.406Z" transform="translate(-168.79)" fill="#253858" stroke="#253858" stroke-width="0.3"/>
            </g>
            <g id="Group_38" data-name="Group 38" transform="translate(3.485 8.737)">
              <g id="Group_36" data-name="Group 36">
                <path id="Path_35" data-name="Path 35" d="M112.372,237.135h-1.824a1.1,1.1,0,0,1-1.1-1.1V234.21a1.1,1.1,0,0,1,1.1-1.1h1.824a1.1,1.1,0,0,1,1.1,1.1v1.824a1.1,1.1,0,0,1-1.1,1.1Zm-1.824-3.2a.281.281,0,0,0-.281.281v1.823a.281.281,0,0,0,.281.281h1.824a.281.281,0,0,0,.281-.281v-1.824a.281.281,0,0,0-.281-.281Z" transform="translate(-109.447 -233.109)" fill="#253858" stroke="#253858" stroke-width="0.3"/>
              </g>
              <g id="Group_37" data-name="Group 37" transform="translate(0 8.878)">
                <path id="Path_36" data-name="Path 36" d="M112.372,362.821h-1.824a1.1,1.1,0,0,1-1.1-1.1V359.9a1.1,1.1,0,0,1,1.1-1.1h1.824a1.1,1.1,0,0,1,1.1,1.1v1.821A1.1,1.1,0,0,1,112.372,362.821Zm-1.824-3.2a.281.281,0,0,0-.281.281v1.82a.281.281,0,0,0,.281.281h1.824a.281.281,0,0,0,.281-.281V359.9a.281.281,0,0,0-.281-.281Z" transform="translate(-109.447 -358.795)" fill="#253858" stroke="#253858" stroke-width="0.3"/>
              </g>
            </g>
            <g id="Group_39" data-name="Group 39" transform="translate(0 1.519)">
              <path id="Path_37" data-name="Path 37" d="M83.185,54.3H65.739a1.779,1.779,0,0,1-1.777-1.776V29.6a1.779,1.779,0,0,1,1.777-1.777h2.45a.411.411,0,1,1,0,.817H65.734a.958.958,0,0,0-.957.957v22.93a.958.958,0,0,0,.957.957H83.18a.958.958,0,0,0,.957-.957V29.6a.958.958,0,0,0-.957-.957H80.73a.411.411,0,0,1,0-.817h2.457A1.779,1.779,0,0,1,84.964,29.6V52.529a1.779,1.779,0,0,1-1.777,1.777Z" transform="translate(-63.962 -27.824)" fill="#253858" stroke="#253858" stroke-width="0.3"/>
            </g>
          </g>
        </g>
      </g>
      <g id="Mask_Group_10154" data-name="Mask Group 10154" transform="translate(-11836 -3583)" clip-path="url(#clip-path-3)">
        <path id="query-what-how-why" d="M82.169,0H96.154a3.186,3.186,0,0,1,1.2.24,3.279,3.279,0,0,1,1.022.684,3.237,3.237,0,0,1,.684,1.022,3.186,3.186,0,0,1,.24,1.2V17.305a3.126,3.126,0,0,1-.869,2.183l-.037.042a3.279,3.279,0,0,1-1.022.684,3.186,3.186,0,0,1-1.2.24h-6.41L84.851,24.44A.694.694,0,0,1,83.686,24l-.31-3.542H82.169A3.147,3.147,0,0,1,79.26,18.5a3.1,3.1,0,0,1-.24-1.2V3.149a3.1,3.1,0,0,1,.24-1.2A3.154,3.154,0,0,1,82.169,0Z" transform="translate(-58.258 606.372)" fill="#d3efc7" fill-rule="evenodd"/>
        <path id="query-what-how-why-2" data-name="query-what-how-why" d="M97.187,1.519H82.469a1.935,1.935,0,0,0-.734.142,1.97,1.97,0,0,0-.628.425,1.9,1.9,0,0,0-.577,1.362v15.5a1.932,1.932,0,0,0,.57,1.362,2.026,2.026,0,0,0,.633.425,1.935,1.935,0,0,0,.734.142h1.519a1.449,1.449,0,0,1,.957.506,1.423,1.423,0,0,1,.36.962l.213,2.385,4.239-3.464a1.464,1.464,0,0,1,1.013-.41H97.8a1.935,1.935,0,0,0,.734-.142,2.026,2.026,0,0,0,.628-.425l.035-.03a2.066,2.066,0,0,0,.39-.6,1.955,1.955,0,0,0,.142-.734V3.449a1.935,1.935,0,0,0-.142-.734,1.98,1.98,0,0,0-.42-.628,2.112,2.112,0,0,0-.633-.425,1.935,1.935,0,0,0-.745-.142ZM82.469,0H97.785A3.49,3.49,0,0,1,99.1.263a3.591,3.591,0,0,1,1.119.75,3.545,3.545,0,0,1,.75,1.119,3.489,3.489,0,0,1,.263,1.317v15.5a3.424,3.424,0,0,1-.952,2.391l-.041.046a3.591,3.591,0,0,1-1.119.75,3.489,3.489,0,0,1-1.32.264H90.78L85.4,26.765a.77.77,0,0,1-.456.2.76.76,0,0,1-.82-.689l-.339-3.88h-1.32a3.447,3.447,0,0,1-3.186-2.142,3.393,3.393,0,0,1-.263-1.317V3.449a3.393,3.393,0,0,1,.263-1.317A3.454,3.454,0,0,1,82.469,0Z" transform="translate(-56.817 603)" fill="#172b4d" stroke="#fff" stroke-width="0.3" fill-rule="evenodd"/>
        <path id="Icon_open-question-mark" data-name="Icon open-question-mark" d="M3.342,0A3.5,3.5,0,0,0,.8.893,2.952,2.952,0,0,0,0,2.625L1.353,2.8a1.639,1.639,0,0,1,.419-.933,2.009,2.009,0,0,1,1.569-.514,2.387,2.387,0,0,1,1.65.46,1.131,1.131,0,0,1,.379.893c0,1.123-.46,1.434-1.136,2.029A3.856,3.856,0,0,0,2.665,7.779v.338H4.018V7.779a2.251,2.251,0,0,1,1.1-2.029,3.879,3.879,0,0,0,1.61-3.044A2.6,2.6,0,0,0,5.925.8,3.739,3.739,0,0,0,3.342,0ZM2.665,9.47v1.353H4.018V9.47Z" transform="translate(30.048 608.619)" fill="#253858"/>
      </g>
      <g id="noun_support_104008" transform="translate(-11650 -2878.019)">
        <g id="Mask_Group_104206" data-name="Mask Group 104206" clip-path="url(#clip-path-4)">
          <g id="Group_222087" data-name="Group 222087">
            <path id="Path_217767" data-name="Path 217767" d="M28.521,28.353a12.056,12.056,0,0,0-8.806-8.128,4.941,4.941,0,0,1-1.087-1.632A32.76,32.76,0,0,0,21.1,14h.241a1.973,1.973,0,0,0,2.192-2,1.793,1.793,0,0,0-.3-1.008c-.1-3.961-2.767-7.973-7.173-7.973-4.426,0-6.824,3.793-7.021,7.7A1.793,1.793,0,0,0,8.519,12,1.857,1.857,0,0,0,9.89,13.879c.709,1.235,2.2,2.66,5.281,2.86a.865.865,0,0,0,.73.418.883.883,0,0,0,0-1.766.868.868,0,0,0-.687.353c-1.136-.076-1.51,1.69-1.51,1.69l-.5,1.153A6.408,6.408,0,0,1,12,20.326a11.523,11.523,0,0,0-8.44,8.049A.5.5,0,0,0,4.051,29h24a.5.5,0,0,0,.478-.647Z" transform="translate(-170.539 -53)" fill="#a2c7ff"/>
            <path id="Path_217768" data-name="Path 217768" d="M28.521,28.353a12.056,12.056,0,0,0-8.806-8.128,4.941,4.941,0,0,1-1.087-1.632A32.76,32.76,0,0,0,21.1,14h.241a1.973,1.973,0,0,0,2.192-2,1.793,1.793,0,0,0-.3-1.008c-.1-3.961-2.767-7.973-7.173-7.973-4.426,0-6.824,3.793-7.021,7.7A1.793,1.793,0,0,0,8.519,12,1.857,1.857,0,0,0,9.89,13.879c.709,1.235,2.2,2.66,5.281,2.86a.865.865,0,0,0,.73.418.883.883,0,0,0,0-1.766.868.868,0,0,0-.687.353,6.764,6.764,0,0,1-2.686-.687,11.752,11.752,0,0,1-1.1-3.385c1.467-.594,5.744-2.4,7.25-3.792a6.152,6.152,0,0,0,2.045,3.115c.014.171.022.343.022.514,0,1.676-2.219,5.416-3.074,6.715a.5.5,0,0,0-.077.344,5.292,5.292,0,0,0,1.675,2.649A3.2,3.2,0,0,1,16.019,24a3.522,3.522,0,0,1-3.475-2.8c.033-.008.063-.021.1-.028l-.015-.062c1.5-1.586,1.6-2.412,1.593-2.636a.5.5,0,0,0-.065-.228c-.122-.212-.278-.493-.45-.813a11.3,11.3,0,0,1-1.35-.424c.37.729.689,1.308.842,1.577A5.085,5.085,0,0,1,12,20.325a11.523,11.523,0,0,0-8.44,8.049A.5.5,0,0,0,4.05,29h24a.5.5,0,0,0,.478-.647ZM16.057,4.019c3.785,0,5.718,3.322,6.1,6.164a3.038,3.038,0,0,0-.571-.142,5.553,5.553,0,0,0-11.012-.016,3.078,3.078,0,0,0-.485.091C10.456,7.339,12.171,4.019,16.057,4.019ZM4.7,28a10.536,10.536,0,0,1,6.881-6.51A4.481,4.481,0,0,0,15.992,25h.056a4.163,4.163,0,0,0,4.207-3.572A11.029,11.029,0,0,1,27.344,28Z" transform="translate(-168.539 -54)" fill="#253858"/>
          </g>
        </g>
      </g>
      <g id="Whatsapp" transform="translate(-12862 -3348)">
        <g id="Mask_Group_104207" data-name="Mask Group 104207" clip-path="url(#clip-path-5)">
          <g id="Group_222088" data-name="Group 222088">
            <path id="Icon_ionic-logo-whatsapp" data-name="Icon ionic-logo-whatsapp" d="M14.162,2.25A11.443,11.443,0,0,0,2.675,13.65a11.281,11.281,0,0,0,1.648,5.886L2.25,25.65l6.36-2.02a11.507,11.507,0,0,0,17.04-9.981A11.443,11.443,0,0,0,14.162,2.25Z" transform="translate(1044.75 471.35)" fill="#99ddc0" opacity="0.8"/>
            <path id="Icon_ionic-logo-whatsapp-2" data-name="Icon ionic-logo-whatsapp" d="M14.162,2.25A11.443,11.443,0,0,0,2.675,13.65a11.281,11.281,0,0,0,1.648,5.886L2.25,25.65l6.36-2.02a11.507,11.507,0,0,0,17.04-9.981A11.443,11.443,0,0,0,14.162,2.25Zm5.712,15.728a2.967,2.967,0,0,1-2.032,1.31c-.539.029-.554.418-3.491-.858a11.986,11.986,0,0,1-4.843-4.58A5.633,5.633,0,0,1,8.425,10.8,3.255,3.255,0,0,1,9.543,8.408a1.125,1.125,0,0,1,.8-.335c.231,0,.381-.007.552,0s.428-.036.65.556.754,2.045.822,2.193a.532.532,0,0,1,0,.51,2,2,0,0,1-.311.474c-.153.164-.322.368-.459.494-.153.139-.312.291-.151.589A8.791,8.791,0,0,0,13,14.964a8.015,8.015,0,0,0,2.3,1.531c.288.157.46.139.639-.049s.765-.822.971-1.106.4-.228.666-.122,1.68.865,1.968,1.021.48.237.549.36A2.412,2.412,0,0,1,19.874,17.978Z" transform="translate(1046.051 468.75)" fill="none" stroke="#253858" stroke-width="1"/>
          </g>
        </g>
      </g>
      <g id="Mask_Group_10040" data-name="Mask Group 10040" transform="translate(-12657.5 -3056)" clip-path="url(#clip-path-6)">
        <g id="phone-call" transform="translate(841.5 230)">
          <path id="Path_15214" data-name="Path 15214" d="M2.588,1.258l-.422.408L1.088,3.892.722,5.723V7.9l.6,2.5,1.267,2.072L7.926,18.15l4.1,3.822L15.2,24.43l3.436.819,4.228-.819,1.763-1.244-5.143-5.041a1.038,1.038,0,0,0-1.32.246c-.049.07-1.578,1.218-1.578,1.218s-1.246,1.112-3.717-.316c.111-.109-6.56-6.175-6.56-6.175S4.578,10.587,6.3,9.1c.066-.072,1.621-2.376,1.621-2.376a.577.577,0,0,0-.218-1c-.1-.088-4-3.565-4-3.565Z" transform="translate(0.08 0.139)" fill="#a2e0ea"/>
          <path id="Path_15213" data-name="Path 15213" d="M25.454,119.1l-4.817-4.817a1.887,1.887,0,0,0-2.4-.223l-3.074,2.1a.629.629,0,0,1-.8-.075l-1.017-1.017a.629.629,0,0,0-.889.889l1.017,1.017a1.887,1.887,0,0,0,2.4.223l3.074-2.1a.629.629,0,0,1,.8.074l4.817,4.817a.63.63,0,0,1,0,.889,7.931,7.931,0,0,1-11.2,0L3.584,111.1a7.923,7.923,0,0,1,0-11.2.629.629,0,0,1,.889,0l4.817,4.817a.629.629,0,0,1,.075.8l-2.1,3.074a1.887,1.887,0,0,0,.223,2.4l5.074,5.074a.629.629,0,1,0,.889-.889L8.377,110.1a.629.629,0,0,1-.074-.8l2.1-3.074a1.887,1.887,0,0,0-.223-2.4L5.358,99A1.889,1.889,0,0,0,2.69,99a9.191,9.191,0,0,0,0,12.983l9.781,9.781a9.19,9.19,0,0,0,12.982,0,1.889,1.889,0,0,0,0-2.664Z" transform="translate(-0.006 -98.447)" fill="#253858"/>
          <path id="Path_217780" data-name="Path 217780" d="M25.454,119.1l-4.817-4.817a1.887,1.887,0,0,0-2.4-.223l-3.074,2.1a.629.629,0,0,1-.8-.075l-1.017-1.017a.629.629,0,0,0-.889.889l1.017,1.017a1.887,1.887,0,0,0,2.4.223l3.074-2.1a.629.629,0,0,1,.8.074l4.817,4.817a.63.63,0,0,1,0,.889,7.931,7.931,0,0,1-11.2,0L3.584,111.1a7.923,7.923,0,0,1,0-11.2.629.629,0,0,1,.889,0l4.817,4.817a.629.629,0,0,1,.075.8l-2.1,3.074a1.887,1.887,0,0,0,.223,2.4l5.074,5.074a.629.629,0,1,0,.889-.889L8.377,110.1a.629.629,0,0,1-.074-.8l2.1-3.074a1.887,1.887,0,0,0-.223-2.4L5.358,99A1.889,1.889,0,0,0,2.69,99a9.191,9.191,0,0,0,0,12.983l9.781,9.781a9.19,9.19,0,0,0,12.982,0,1.889,1.889,0,0,0,0-2.664Z" transform="translate(-0.006 -98.448)" fill="#253858"/>
          <g id="Icon_feather-arrow-down-left" data-name="Icon feather-arrow-down-left" transform="translate(4.5 -8.635)">
            <path id="Path_217781" data-name="Path 217781" d="M19.635,10.5,10.5,19.635" fill="none" stroke="#253858" stroke-linecap="round" stroke-linejoin="round" stroke-width="1.5"/>
            <path id="Path_217782" data-name="Path 217782" d="M19.635,19.635H10.5V10.5" fill="none" stroke="#253858" stroke-linecap="round" stroke-linejoin="round" stroke-width="1.5"/>
          </g>
        </g>
      </g>
      <g id="Sales" transform="translate(-12648 -3239)">
        <g id="Mask_Group_104208" data-name="Mask Group 104208" clip-path="url(#clip-path-7)">
          <g id="Group_221524" data-name="Group 221524" transform="translate(-11.73 97.602)">
            <rect id="Rectangle_7192" data-name="Rectangle 7192" width="14.049" height="17.561" rx="7.024" transform="translate(850.693 367.082)" fill="#a7c9ff"/>
            <g id="support" transform="translate(844.925 366.521)">
              <g id="Group_89305" data-name="Group 89305">
                <path id="Path_102327" data-name="Path 102327" d="M38.859,10.647H38.8V9.085a9.085,9.085,0,1,0-18.17,0v1.562h-.382a2.6,2.6,0,0,0-2.486,2.678V17.31a2.518,2.518,0,0,0,2.453,2.581H22.6a.606.606,0,0,0,.577-.633q0-.018,0-.036v-7.81c0-.382-.223-.765-.574-.765h-.7V9.085a7.81,7.81,0,1,1,15.619,0v1.562h-.7c-.351,0-.574.382-.574.765v7.81a.606.606,0,0,0,.538.667h.769l-.064.1A5.036,5.036,0,0,1,33.443,22a3.156,3.156,0,0,0-6.248.606,3.188,3.188,0,0,0,3.188,3.156,3.283,3.283,0,0,0,2.3-.988,2.8,2.8,0,0,0,.765-1.53,6.311,6.311,0,0,0,5.068-2.518l.606-.893a2.17,2.17,0,0,0,2.231-2.2v-3.99C41.346,12.272,40.326,10.647,38.859,10.647ZM21.9,18.616H20.244a1.243,1.243,0,0,1-1.213-1.273V13.324a1.322,1.322,0,0,1,1.211-1.4H21.9Zm9.85,5.26a1.881,1.881,0,0,1-1.371.606A1.944,1.944,0,0,1,28.468,22.6a1.881,1.881,0,0,1,3.761,0h0a1.69,1.69,0,0,1-.478,1.275Zm8.32-6.248c0,.861-.829.988-1.211.988H37.52V11.922h1.339c.7,0,1.211.988,1.211,1.721Z" transform="translate(-17.756)" fill="#253858"/>
              </g>
            </g>
            <path id="Icon_feather-check" data-name="Icon feather-check" d="M14.976,9,8.8,15.171,6,12.366" transform="translate(846.598 365.301)" fill="none" stroke="#253858" stroke-linecap="round" stroke-linejoin="round" stroke-width="1.5"/>
          </g>
        </g>
      </g>
      <g id="Service" transform="translate(-12718 -3187)">
        <g id="Mask_Group_104209" data-name="Mask Group 104209" clip-path="url(#clip-path-8)">
          <g id="noun_Settings_2519206" transform="translate(902.399 462.4)">
            <path id="Path_217765" data-name="Path 217765" d="M11.779.6a1.389,1.389,0,0,0-1.391,1.391V3.176l-.344.094a9.452,9.452,0,0,0-2.218.922l-.309.178-.845-.837h0a1.392,1.392,0,0,0-1.969,0L3.534,4.7a1.39,1.39,0,0,0,0,1.966l.837.838-.177.309a9.635,9.635,0,0,0-.923,2.219l-.094.344H1.992A1.389,1.389,0,0,0,.6,11.771v1.654a1.389,1.389,0,0,0,1.391,1.391H3.177l.094.344a9.428,9.428,0,0,0,.921,2.217l.178.309-.835.845h0a1.389,1.389,0,0,0,0,1.966L4.7,21.666a1.392,1.392,0,0,0,1.969,0l.835-.837.31.177a9.64,9.64,0,0,0,2.219.922l.344.094v1.185a1.391,1.391,0,0,0,1.4,1.393h1.654a1.391,1.391,0,0,0,1.391-1.392V22.023l.344-.094a9.434,9.434,0,0,0,2.218-.921l.309-.179.84.838a1.391,1.391,0,0,0,1.967,0l1.172-1.17a1.389,1.389,0,0,0,0-1.966l-.839-.837.177-.31a9.64,9.64,0,0,0,.924-2.219l.094-.344H23.21a1.389,1.389,0,0,0,1.39-1.39V11.777a1.389,1.389,0,0,0-1.391-1.391H22.025l-.094-.344a9.447,9.447,0,0,0-.923-2.217l-.179-.31.84-.837a1.389,1.389,0,0,0,0-1.966L20.5,3.541a1.391,1.391,0,0,0-1.967,0l-.831.832-.31-.177a9.645,9.645,0,0,0-2.219-.924l-.344-.094V1.992A1.389,1.389,0,0,0,13.434.6H11.78Z" transform="translate(-1 2)" fill="#b1ecef" opacity="0.8"/>
            <path id="Path_217764" data-name="Path 217764" d="M11.779.6a1.389,1.389,0,0,0-1.391,1.391V3.176l-.344.094a9.452,9.452,0,0,0-2.218.922l-.309.178-.845-.837h0a1.392,1.392,0,0,0-1.969,0L3.534,4.7a1.39,1.39,0,0,0,0,1.966l.837.838-.177.309a9.635,9.635,0,0,0-.923,2.219l-.094.344H1.992A1.389,1.389,0,0,0,.6,11.771v1.654a1.389,1.389,0,0,0,1.391,1.391H3.177l.094.344a9.428,9.428,0,0,0,.921,2.217l.178.309-.835.845h0a1.389,1.389,0,0,0,0,1.966L4.7,21.666a1.392,1.392,0,0,0,1.969,0l.835-.837.31.177a9.64,9.64,0,0,0,2.219.922l.344.094v1.185a1.391,1.391,0,0,0,1.4,1.393h1.654a1.391,1.391,0,0,0,1.391-1.392V22.023l.344-.094a9.434,9.434,0,0,0,2.218-.921l.309-.179.84.838a1.391,1.391,0,0,0,1.967,0l1.172-1.17a1.389,1.389,0,0,0,0-1.966l-.839-.837.177-.31a9.64,9.64,0,0,0,.924-2.219l.094-.344H23.21a1.389,1.389,0,0,0,1.39-1.39V11.777a1.389,1.389,0,0,0-1.391-1.391H22.025l-.094-.344a9.447,9.447,0,0,0-.923-2.217l-.179-.31.84-.837a1.389,1.389,0,0,0,0-1.966L20.5,3.541a1.391,1.391,0,0,0-1.967,0l-.831.832-.31-.177a9.645,9.645,0,0,0-2.219-.924l-.344-.094V1.992A1.389,1.389,0,0,0,13.434.6H11.78Zm-.007.813h1.654a.579.579,0,0,1,.578.58V3.514a.4.4,0,0,0,.327.4,8.794,8.794,0,0,1,3.183,1.315.407.407,0,0,0,.516-.048L19.246,3.97h.175a.6.6,0,0,1,.508.137L21.1,5.275a.622.622,0,0,1,0,.819L20.027,7.168a.4.4,0,0,0-.05.513h0A8.729,8.729,0,0,1,21.3,10.865a.4.4,0,0,0,.4.327h1.522a.579.579,0,0,1,.58.578v1.654a.576.576,0,0,1-.58.58H21.693a.4.4,0,0,0-.4.327,8.788,8.788,0,0,1-1.316,3.18h0a.4.4,0,0,0,.05.513L21.1,19.1a.622.622,0,0,1,0,.819l-1.15,1.152a.581.581,0,0,1-.817.041l-.011-.009-1.086-1.085a.4.4,0,0,0-.513-.05h0a8.758,8.758,0,0,1-3.184,1.316.4.4,0,0,0-.326.4V23.2a.576.576,0,0,1-.58.58H11.778a.576.576,0,0,1-.58-.58V21.683a.4.4,0,0,0-.327-.4,8.79,8.79,0,0,1-3.18-1.314.417.417,0,0,0-.227-.072.406.406,0,0,0-.286.117L6.1,21.092a.622.622,0,0,1-.819,0l-1.172-1.17a.622.622,0,0,1,0-.819l1.075-1.074a.4.4,0,0,0,.051-.513h0a8.778,8.778,0,0,1-1.318-3.183.4.4,0,0,0-.4-.327H1.989a.579.579,0,0,1-.58-.578V11.771a.576.576,0,0,1,.58-.58H3.511a.4.4,0,0,0,.4-.327,8.79,8.79,0,0,1,1.315-3.18.406.406,0,0,0-.048-.516L4.1,6.094a.645.645,0,0,1-.168-.412A.615.615,0,0,1,4.1,5.276L5.274,4.1a.622.622,0,0,1,.819,0L7.167,5.179a.4.4,0,0,0,.513.05h0a8.751,8.751,0,0,1,3.183-1.316.4.4,0,0,0,.327-.4V1.992a.576.576,0,0,1,.58-.58ZM12.6,8a4.6,4.6,0,1,0,4.6,4.6A4.6,4.6,0,0,0,12.6,8Zm0,.813A3.79,3.79,0,1,1,8.812,12.6,3.79,3.79,0,0,1,12.6,8.813Z" fill="#253858" stroke="#253858" stroke-width="0.3"/>
          </g>
        </g>
      </g>
      <g id="Claims" transform="translate(-12789 -3137)">
        <g id="Mask_Group_104210" data-name="Mask Group 104210" clip-path="url(#clip-path-9)">
          <g id="noun_documents_1045343" transform="translate(973.963 463)">
            <path id="Union_2" data-name="Union 2" d="M12316.165,2811.98v.02H12302v-17.6l2.017-2.335,1.878-2.063h12.606v7.723a7.251,7.251,0,0,1-1.786,14.277C12316.529,2812,12316.346,2811.994,12316.165,2811.98Z" transform="translate(-12301.963 -2786)" fill="#fff1d6"/>
            <path id="Path_217759" data-name="Path 217759" d="M3.2,7.583V6.667H7.233V3H8.15V7.583Z" transform="translate(-0.65 -0.542)" fill="#253858"/>
            <path id="Path_217760" data-name="Path 217760" d="M16.163,24H2V6.4L4.017,4.063,5.9,2H18.5v8.479l-.55-.092a6.109,6.109,0,0,0-1.283-.137,6.424,6.424,0,0,0-.413,12.833ZM2.917,23.083H13.092a7.342,7.342,0,0,1,3.575-13.75,6.142,6.142,0,0,1,.917.046V2.917H6.308L4.7,4.658,2.917,6.767Z" fill="#253858"/>
            <path id="Path_217761" data-name="Path 217761" d="M24.775,32.667A7.341,7.341,0,0,1,25.233,18a7.938,7.938,0,0,1,1.465.137h0a7.341,7.341,0,0,1,.046,14.392l-.963.138Zm.5-13.75a6.424,6.424,0,0,0-.412,12.833h.917a5.669,5.669,0,0,0,.825-.092,6.469,6.469,0,0,0-.046-12.65,12.076,12.076,0,0,0-1.28-.091Z" transform="translate(-8.613 -8.667)" fill="#253858"/>
            <path id="Path_217762" data-name="Path 217762" d="M.971-7.485a.476.476,0,0,1-.38-.142.48.48,0,0,1-.122-.322A.456.456,0,0,1,.59-8.265.488.488,0,0,1,.971-8.4h4.77a.476.476,0,0,1,.38.142.48.48,0,0,1,.122.322.456.456,0,0,1-.122.316.488.488,0,0,1-.38.135h-.7q-.451,0-.761-.013a3.726,3.726,0,0,1-.374-.026v.052a1.63,1.63,0,0,1,.529.387,1.713,1.713,0,0,1,.387.683h.915a.476.476,0,0,1,.38.142.48.48,0,0,1,.122.322.456.456,0,0,1-.122.316.488.488,0,0,1-.38.135H4.89a2.4,2.4,0,0,1-.322,1.012,2.419,2.419,0,0,1-.625.69,2.785,2.785,0,0,1-.812.413,4.079,4.079,0,0,1-.87.18l2.914,2.8A.641.641,0,0,1,5.38.07a.586.586,0,0,1-.155.413A.55.55,0,0,1,4.8.65.871.871,0,0,1,4.522.6.734.734,0,0,1,4.245.418L.816-2.934A.87.87,0,0,1,.61-3.2a.638.638,0,0,1-.064-.277.563.563,0,0,1,.154-.4.529.529,0,0,1,.4-.161h.168a4.461,4.461,0,0,0,.793-.071,2.306,2.306,0,0,0,.709-.245A1.794,1.794,0,0,0,3.3-4.8a1.409,1.409,0,0,0,.284-.683H.971a.476.476,0,0,1-.38-.142.48.48,0,0,1-.122-.322A.456.456,0,0,1,.59-6.266.488.488,0,0,1,.971-6.4H3.523Q3.188-7.485,1.551-7.485Z" transform="translate(13.532 20.9)" fill="#253858"/>
          </g>
        </g>
      </g>
      <g id="Mask_Group_10041" data-name="Mask Group 10041" transform="translate(-12657 -2847)" clip-path="url(#clip-path-10)">
        <g id="Group_10352" data-name="Group 10352" transform="translate(43 22)">
          <circle id="Ellipse_333" data-name="Ellipse 333" cx="11" cy="11" r="11" transform="translate(799 206)" fill="#fff0ce"/>
          <g id="user" transform="translate(797.983 203)">
            <g id="Group_10349" data-name="Group 10349" transform="translate(0.017)">
              <g id="Group_10348" data-name="Group 10348">
                <path id="Path_15247" data-name="Path 15247" d="M26,12.75A12.994,12.994,0,1,0,3.828,22.188a.553.553,0,0,0,.792-.011c.152-.161.34-.354.414-.425a.566.566,0,0,0,.073-.062l1.221-1.22H10.3a1.1,1.1,0,0,0,1.033-.706,1.07,1.07,0,0,0-.255-1.178,5.629,5.629,0,0,1-1.663-4V9.827a1.76,1.76,0,0,1,.529-1.268,1.808,1.808,0,0,1,1.268-.529h3.566a1.759,1.759,0,0,1,1.268.529,1.806,1.806,0,0,1,.529,1.268v4.755A5.645,5.645,0,0,1,14.9,18.6a1.115,1.115,0,0,0-.186,1.2,1.089,1.089,0,0,0,1.008.662h4.2a.553.553,0,1,0,0-1.106l-4.194.006a.052.052,0,0,1-.009-.026,6.726,6.726,0,0,0,1.963-4.764V9.827a2.921,2.921,0,0,0-.853-2.05,2.881,2.881,0,0,0-2.05-.853H11.216a2.922,2.922,0,0,0-2.05.853,2.883,2.883,0,0,0-.853,2.05v4.755A6.7,6.7,0,0,0,10.3,19.365H6.1a.553.553,0,0,0-.391.162L4.336,20.9c-.035.029-.072.062-.111.1a11.886,11.886,0,1,1,17.189.407.553.553,0,1,0,.782.782A12.888,12.888,0,0,0,26,12.75Z" transform="translate(-0.017)" fill="#253858"/>
              </g>
            </g>
            <g id="Group_10351" data-name="Group 10351" transform="translate(12.461 11.956)">
              <g id="Group_10350" data-name="Group 10350">
                <path id="Path_15248" data-name="Path 15248" d="M258.6,235.964a.546.546,0,0,0-.572-.533.553.553,0,0,0-.533.572,11.918,11.918,0,0,1-11.9,12.366.553.553,0,0,0,0,1.106,13.024,13.024,0,0,0,13-13.511Z" transform="translate(-245.051 -235.43)" fill="#253858"/>
              </g>
            </g>
          </g>
        </g>
      </g>
      <g id="Mask_Group_10040-2" data-name="Mask Group 10040" transform="translate(-12657.5 -2750)" clip-path="url(#clip-path-6)">
        <g id="phone-call-2" data-name="phone-call" transform="translate(841.5 230)">
          <path id="Path_15214-2" data-name="Path 15214" d="M2.588,1.258l-.422.408L1.088,3.892.722,5.723V7.9l.6,2.5,1.267,2.072L7.926,18.15l4.1,3.822L15.2,24.43l3.436.819,4.228-.819,1.763-1.244-5.143-5.041a1.038,1.038,0,0,0-1.32.246c-.049.07-1.578,1.218-1.578,1.218s-1.246,1.112-3.717-.316c.111-.109-6.56-6.175-6.56-6.175S4.578,10.587,6.3,9.1c.066-.072,1.621-2.376,1.621-2.376a.577.577,0,0,0-.218-1c-.1-.088-4-3.565-4-3.565Z" transform="translate(0.08 0.139)" fill="#a2e0ea"/>
          <path id="Path_15213-2" data-name="Path 15213" d="M25.454,119.1l-4.817-4.817a1.887,1.887,0,0,0-2.4-.223l-3.074,2.1a.629.629,0,0,1-.8-.075l-1.017-1.017a.629.629,0,0,0-.889.889l1.017,1.017a1.887,1.887,0,0,0,2.4.223l3.074-2.1a.629.629,0,0,1,.8.074l4.817,4.817a.63.63,0,0,1,0,.889,7.931,7.931,0,0,1-11.2,0L3.584,111.1a7.923,7.923,0,0,1,0-11.2.629.629,0,0,1,.889,0l4.817,4.817a.629.629,0,0,1,.075.8l-2.1,3.074a1.887,1.887,0,0,0,.223,2.4l5.074,5.074a.629.629,0,1,0,.889-.889L8.377,110.1a.629.629,0,0,1-.074-.8l2.1-3.074a1.887,1.887,0,0,0-.223-2.4L5.358,99A1.889,1.889,0,0,0,2.69,99a9.191,9.191,0,0,0,0,12.983l9.781,9.781a9.19,9.19,0,0,0,12.982,0,1.889,1.889,0,0,0,0-2.664Z" transform="translate(-0.006 -98.447)" fill="#253858"/>
        </g>
        <g id="Rectangle_6293" data-name="Rectangle 6293" transform="translate(853.417 233.25)" fill="#fbfbfb" stroke="#253858" stroke-width="1">
          <rect width="14.083" height="9.75" rx="4" stroke="none"/>
          <rect x="0.5" y="0.5" width="13.083" height="8.75" rx="3.5" fill="none"/>
        </g>
        <rect id="Rectangle_6294" data-name="Rectangle 6294" width="5.417" height="5.417" rx="2.708" transform="translate(859.917 235.417)" fill="#253858"/>
      </g>
      <g id="Mask_Group_10044" data-name="Mask Group 10044" transform="translate(-12687 -2745.979)" clip-path="url(#clip-path-12)">
        <g id="power-button" transform="translate(871.046 277.001)">
          <ellipse id="Ellipse_335" data-name="Ellipse 335" cx="11.495" cy="10.995" rx="11.495" ry="10.995" transform="translate(0.954 2.954)" fill="#ffe5e5"/>
          <path id="Path_15244" data-name="Path 15244" d="M22.18,3.819A12.941,12.941,0,1,0,26,13a12.941,12.941,0,0,0-3.82-9.181ZM13,24.474A11.474,11.474,0,1,1,24.474,13,11.474,11.474,0,0,1,13,24.474Z" fill="#263958"/>
          <path id="Path_15245" data-name="Path 15245" d="M154.424,168.969a.762.762,0,0,0-1.011,1.139,4.112,4.112,0,1,1-5.434-.02.762.762,0,1,0-1-1.147,5.636,5.636,0,1,0,7.448.028Z" transform="translate(-137.685 -160.186)" fill="#253858"/>
          <path id="Path_15246" data-name="Path 15246" d="M241.812,126.635a.762.762,0,0,0,.762-.762v-4.062a.762.762,0,1,0-1.523,0v4.062a.762.762,0,0,0,.761.762Z" transform="translate(-228.812 -114.905)" fill="#253858"/>
        </g>
      </g>
      <g id="phone-call_2_" data-name="phone-call (2)" transform="translate(-11814.565 -2526.448)">
        <g id="Group_158" data-name="Group 158" transform="translate(9.803 112.089)">
          <g id="Group_157" data-name="Group 157">
            <path id="Path_161" data-name="Path 161" d="M169.8,333.677a.58.58,0,1,0,.17.41.58.58,0,0,0-.17-.41Z" transform="translate(-168.806 -333.507)" fill="#253858"/>
          </g>
        </g>
        <g id="Group_160" data-name="Group 160" transform="translate(0.007 98.448)">
          <g id="Group_159" data-name="Group 159">
            <path id="Path_162" data-name="Path 162" d="M2.435,1.258l-.387.373-.99,2.046L.722,5.358V7.352l.545,2.291,1.163,1.9,4.9,5.218,3.766,3.51,2.913,2.26,3.154.752,3.882-.752,1.618-1.142-4.726-4.628a.952.952,0,0,0-1.211.226c-.046.064-1.449,1.118-1.449,1.118s-1.143,1.021-3.411-.29c.1-.1-6.022-5.673-6.022-5.673s-1.584-2.325,0-3.686C5.9,8.392,7.33,6.276,7.33,6.276a.53.53,0,0,0-.2-.919c-.088-.081-3.669-3.273-3.669-3.273Z" transform="translate(0.065 0.113)" fill="#ffdb7b"/>
            <path id="Path_163" data-name="Path 163" d="M23.5,117.508l-4.447-4.447a1.746,1.746,0,0,0-2.214-.206L14,114.8a.58.58,0,0,1-.737-.069l-.938-.938a.58.58,0,0,0-.82.82l.938.938a1.746,1.746,0,0,0,2.214.206l2.836-1.941a.58.58,0,0,1,.737.069l4.447,4.447a.581.581,0,0,1,0,.82,7.321,7.321,0,0,1-10.342,0L3.3,110.12a7.309,7.309,0,0,1,0-10.342.58.58,0,0,1,.82,0l4.447,4.447a.58.58,0,0,1,.069.737L6.7,107.8a1.746,1.746,0,0,0,.206,2.214l1.411,1.411a.58.58,0,1,0,.82-.82L7.728,109.2a.58.58,0,0,1-.069-.737L9.6,105.622a1.745,1.745,0,0,0-.206-2.213L4.947,98.956a1.745,1.745,0,0,0-2.462,0,8.484,8.484,0,0,0,0,11.984l9.03,9.03a8.483,8.483,0,0,0,11.984,0,1.746,1.746,0,0,0,0-2.462Z" transform="translate(-0.007 -98.448)" fill="#253858"/>
          </g>
        </g>
      </g>
      <g id="transaction" transform="matrix(0.914, 0.407, -0.407, 0.914, -11807.455, -2597.29)">
        <g id="Group_221530" data-name="Group 221530" transform="translate(4.45 23.5)">
          <circle id="Ellipse_4900" data-name="Ellipse 4900" cx="9.5" cy="9.5" r="9.5" transform="translate(4.739 3.232)" fill="#9bf2ce"/>
          <path id="Path_217775" data-name="Path 217775" d="M34.133,38.963,31.259,36.09a.936.936,0,1,0-1.323,1.323l1.248,1.248H27.94A9.981,9.981,0,0,0,12.325,26.449H7.683L8.93,25.2a.936.936,0,0,0-1.323-1.323L4.734,26.751a.914.914,0,0,0,0,1.323l2.873,2.873a1.007,1.007,0,0,0,1.361,0,.914.914,0,0,0,0-1.323L7.683,28.339h3.244A9.981,9.981,0,0,0,26.541,40.551h4.643L29.936,41.8A.95.95,0,0,0,31.3,43.122l2.873-2.873a.978.978,0,0,0-.04-1.286Zm-14.7,2.646a8.091,8.091,0,1,1,8.091-8.091,8.091,8.091,0,0,1-8.091,8.091Z" transform="translate(-4.45 -23.5)" fill="#253858" stroke="#fff" stroke-width="0.5"/>
        </g>
        <path id="Path_217776" data-name="Path 217776" d="M.653,1.139A.634.634,0,0,1,.159.962.582.582,0,0,1,0,.561.554.554,0,0,1,.159.168.651.651,0,0,1,.653,0h6.2a.634.634,0,0,1,.494.176.582.582,0,0,1,.159.4A.554.554,0,0,1,7.347.97a.651.651,0,0,1-.494.168h-.9q-.586,0-.988-.016T4.479,1.09v.064a2.161,2.161,0,0,1,1.19,1.331h1.19a.634.634,0,0,1,.494.176.582.582,0,0,1,.159.4.554.554,0,0,1-.159.393.651.651,0,0,1-.494.168H5.747a2.9,2.9,0,0,1-.419,1.259,3.061,3.061,0,0,1-.813.858,3.683,3.683,0,0,1-1.055.513,5.507,5.507,0,0,1-1.131.225L6.115,9.96a.783.783,0,0,1,.268.577.711.711,0,0,1-.2.513.732.732,0,0,1-.553.208,1.178,1.178,0,0,1-.36-.056.958.958,0,0,1-.36-.233L.452,6.8a1.09,1.09,0,0,1-.268-.329A.766.766,0,0,1,.1,6.127a.684.684,0,0,1,.2-.505.7.7,0,0,1,.519-.2h.218a6.046,6.046,0,0,0,1.03-.088,3.087,3.087,0,0,0,.921-.3,2.312,2.312,0,0,0,.7-.553,1.714,1.714,0,0,0,.369-.85H.653a.634.634,0,0,1-.494-.176A.582.582,0,0,1,0,3.047a.554.554,0,0,1,.159-.393.651.651,0,0,1,.494-.168H3.971Q3.535,1.139,1.407,1.139Z" transform="translate(13.809 31.114) rotate(-30)" fill="#253858"/>
      </g>
      <g id="Offline_store" data-name="Offline store" transform="translate(306 935)" clip-path="url(#clip-path-13)">
        <g id="Group_223883" data-name="Group 223883" transform="translate(-12120.08 -3323.04)">
          <g id="Group_223846" data-name="Group 223846" transform="translate(0 1.92)">
            <path id="Path_218516" data-name="Path 218516" d="M836.087,517.225l14.9-1.517.241,12.182-5.533,2.5-6.6-3.014-5.377,3.014V518.266Z" transform="translate(-833.711 -509.268)" fill="#ffe5e5"/>
            <path id="map" d="M11.613,12.459a.31.31,0,0,1-.338.01,11.637,11.637,0,0,1-2.932-2.453A8.5,8.5,0,0,1,6.371,6.025a5.006,5.006,0,0,1,.716-3.734,4.717,4.717,0,0,1,1.09-1.134A5.523,5.523,0,0,1,11.511,0a4.891,4.891,0,0,1,3.171,1.213,4.5,4.5,0,0,1,.846.968,5.593,5.593,0,0,1,.6,4.279,9.457,9.457,0,0,1-4.515,6Z" transform="translate(-2.201)" fill="#ffe5e5" stroke="#fff" stroke-width="1.5" fill-rule="evenodd"/>
          </g>
          <g id="Group_223847" data-name="Group 223847" transform="translate(1.033)">
            <path id="map-2" data-name="map" d="M11.748,12.656a.321.321,0,0,1-.346.01,11.9,11.9,0,0,1-3-2.491A8.608,8.608,0,0,1,6.373,6.12a5.047,5.047,0,0,1,.734-3.793A4.811,4.811,0,0,1,8.224,1.175,5.7,5.7,0,0,1,11.643,0a5.041,5.041,0,0,1,3.251,1.232,4.586,4.586,0,0,1,.868.983,5.636,5.636,0,0,1,.616,4.347,9.616,9.616,0,0,1-4.63,6.094Z" transform="translate(-1.543)" fill="none" stroke="#172b4d" stroke-width="1.5" fill-rule="evenodd"/>
            <path id="map-3" data-name="map" d="M6.811,15.1v5l5.416,2.335V16a11.707,11.707,0,0,0,1.159-1.011v7.4l4.491-2.261V10.062l-1.726.665a11.067,11.067,0,0,0,.428-1.4l1.671-.645a.578.578,0,0,1,.738.336.571.571,0,0,1,.04.208v11.26a.58.58,0,0,1-.359.539l-5.6,2.815a.58.58,0,0,1-.525,0L6.251,21.115.841,23.84a.578.578,0,0,1-.778-.255A.589.589,0,0,1,0,23.324V11.393a.58.58,0,0,1,.417-.557L3.359,9.7a10.532,10.532,0,0,0,.388,1.09l-2.587,1v10.6l4.491-2.262V13.881A13.7,13.7,0,0,0,6.811,15.1Z" transform="translate(0 -1.776)" fill="#172b4d" fill-rule="evenodd"/>
            <circle id="Ellipse_4899" data-name="Ellipse 4899" cx="2.781" cy="2.781" r="2.781" transform="translate(7.15 2.383)" fill="#172b4d"/>
          </g>
        </g>
      </g>
      <g id="Tax_Saving" data-name="Tax Saving" transform="translate(-11816 -2348)" clip-path="url(#clip-path-14)">
        <g id="Group_10416" data-name="Group 10416" transform="translate(1 1)">
          <path id="Rectangle_4262" data-name="Rectangle 4262" d="M0,0H4A5,5,0,0,1,9,5V9H0Z" transform="translate(11 2)" fill="#afe5ed"/>
          <path id="Rectangle_4263" data-name="Rectangle 4263" d="M5,0H9V9H0V5A5,5,0,0,1,5,0Z" transform="translate(-1 2)" fill="#afe5ed"/>
          <path id="Rectangle_4264" data-name="Rectangle 4264" d="M0,0H9V9H5A5,5,0,0,1,0,4Z" transform="translate(-1 14)" fill="#afe5ed"/>
          <g id="Rectangle_4266" data-name="Rectangle 4266" transform="translate(12.1)">
            <path id="Path_1128" data-name="Path 1128" d="M0,0H4.9a5,5,0,0,1,5,5V9.9H0Z" fill="none"/>
            <path id="Path_1129" data-name="Path 1129" d="M1,.5H4.9A4.5,4.5,0,0,1,9.4,5V8.9a.5.5,0,0,1-.5.5H1a.5.5,0,0,1-.5-.5V1A.5.5,0,0,1,1,.5Z" fill="none" stroke="#253858" stroke-width="1"/>
          </g>
          <g id="Rectangle_4267" data-name="Rectangle 4267" transform="translate(12.1 12.1)">
            <path id="Path_1130" data-name="Path 1130" d="M0,0H9.9V4.9a5,5,0,0,1-5,5H0Z" fill="none"/>
            <path id="Path_1131" data-name="Path 1131" d="M1,.5H8.9a.5.5,0,0,1,.5.5V4.9A4.5,4.5,0,0,1,4.9,9.4H1a.5.5,0,0,1-.5-.5V1A.5.5,0,0,1,1,.5Z" fill="none" stroke="#253858" stroke-width="1"/>
          </g>
          <g id="Rectangle_4268" data-name="Rectangle 4268">
            <path id="Path_1132" data-name="Path 1132" d="M5,0H9.9V9.9H0V5A5,5,0,0,1,5,0Z" fill="none"/>
            <path id="Path_1133" data-name="Path 1133" d="M5,.5H8.9a.5.5,0,0,1,.5.5V8.9a.5.5,0,0,1-.5.5H1a.5.5,0,0,1-.5-.5V5A4.5,4.5,0,0,1,5,.5Z" fill="none" stroke="#253858" stroke-width="1"/>
          </g>
          <g id="Rectangle_4269" data-name="Rectangle 4269" transform="translate(0 12.1)">
            <path id="Path_1134" data-name="Path 1134" d="M0,0H9.9V9.9H5a5,5,0,0,1-5-5Z" fill="none"/>
            <path id="Path_1135" data-name="Path 1135" d="M1,.5H8.9a.5.5,0,0,1,.5.5V8.9a.5.5,0,0,1-.5.5H5A4.5,4.5,0,0,1,.5,4.9V1A.5.5,0,0,1,1,.5Z" fill="none" stroke="#253858" stroke-width="1"/>
          </g>
        </g>
      </g>
    </g>
  </g>
</svg>
