<svg xmlns="http://www.w3.org/2000/svg" width="45.033" height="429.893" viewBox="0 0 45.033 429.893">
  <g id="Group_285" data-name="Group 285" transform="translate(-289.275 -1921.492)">
    <g id="Page-1" transform="translate(291.63 1920.859)">
      <g id="Home_Screen__Gradient_1_" data-name="Home_Screen_(Gradient_1)" transform="translate(1.37 1.141)">
        <g id="security-on" transform="translate(0 0)">
          <path id="Path" d="M1.5,20.089c.291.687,1.737,4.371,2.1,5.036,2.623,4.859,7.163,9.069,14.973,11.793,7.945-2.771,12.507-7.079,15.108-12.045.306-.584,1.936-4.492,2.19-5.093-5.662,2.254-8.548,4.234-17.183,4.166C9.737,23.876,9.494,22.623,1.5,20.089Z" transform="translate(0.085 7.768)" fill="rgba(255,255,255,0.3)"/>
          <path id="Path-2" data-name="Path" d="M35.73,6.32,20.024.325a2.805,2.805,0,0,0-2,0L2.319,6.32A2.805,2.805,0,0,0,.52,8.765Q-1.3,37.736,19.024,44.827q20.328-7.09,18.506-36.062h0A2.805,2.805,0,0,0,35.73,6.32Z" transform="translate(-0.37 -0.141)" fill="none" stroke="#fff" stroke-width="1"/>
          <path id="Path-3" data-name="Path" d="M14.147,22.591,8.98,17.354l1.786-1.491,3.38,3.4L20.571,12.8l1.791,1.562Z" transform="translate(3.098 4.957)" fill="#fff"/>
        </g>
      </g>
    </g>
    <g id="Page-1-2" data-name="Page-1" transform="translate(290.25 2017.394)">
      <g id="Home_Screen__Gradient_1_2" data-name="Home_Screen_(Gradient_1)" transform="translate(0.549 0.348)">
        <g id="Group-3" transform="translate(0 0)">
          <g id="Artboard-2-copy-4" transform="translate(0 0)">
            <path id="Shape" d="M15.915.891V3.87" transform="translate(6.154 0.227)" fill="none" stroke="#fff" stroke-linecap="round" stroke-linejoin="round" stroke-width="0.999" fill-rule="evenodd"/>
            <path id="Shape-2" data-name="Shape" stroke="#fff" d="M15.915,14.962V29.286" fill="none" transform="translate(6.154 6.116)" stroke-linecap="round" stroke-linejoin="round" stroke-width="0.999" fill-rule="evenodd"/>
            <path id="Shape-3" data-name="Shape" stroke="#fff" d="M25.579,22.262c.716-1.619,3.384-2.866,6.507-2.866,3.709,0,6.735,1.619,6.735,3.725A20.219,20.219,0,0,0,9.343,5.225" fill="none" transform="translate(3.403 1.107)" stroke-linecap="round" stroke-linejoin="round" stroke-width="0.999" fill-rule="evenodd"/>
            <path id="Shape-4" data-name="Shape" stroke="#fff" d="M0,.858C.716,2.478,3.384,3.725,6.507,3.725c3.709,0,6.735-1.619,6.735-3.725A20.068,20.068,0,0,1,9.065,12.252" fill="none" transform="translate(14.654 24.227) rotate(180)" stroke-linecap="round" stroke-linejoin="round" stroke-width="0.999" fill-rule="evenodd"/>
            <path id="Shape-5" data-name="Shape" d="M18.09,2.991c-3.864,0-7.042,8.15-7.439,18.588a.467.467,0,0,0,.3.434.537.537,0,0,0,.549-.084,9.987,9.987,0,0,1,6.59-2.021A9.974,9.974,0,0,1,24.68,22a.537.537,0,0,0,.549.084.467.467,0,0,0,.3-.434C25.14,11.368,22.09,3.343,18.339,3Q18.215,2.991,18.09,2.991Z" transform="translate(3.951 1.106)" fill="#fff" opacity="0.3"/>
            <path id="Shape-6" data-name="Shape" d="M18.09,2.991c-3.864,0-7.042,8.15-7.439,18.588a.467.467,0,0,0,.3.434.537.537,0,0,0,.549-.084,9.987,9.987,0,0,1,6.59-2.021A9.974,9.974,0,0,1,24.68,22a.537.537,0,0,0,.549.084.467.467,0,0,0,.3-.434C25.14,11.368,22.09,3.343,18.339,3Q18.215,2.991,18.09,2.991Z" transform="translate(3.951 1.106)" fill="none" stroke="#fff" stroke-width="0.999"/>
            <path id="Shape-7" data-name="Shape" d="M14.86,29.522a4.49,4.49,0,0,0,8.98,0,1.5,1.5,0,0,0-2.993,0,1.5,1.5,0,0,1-2.993,0v-4.4H14.86Z" transform="translate(5.712 10.366)" fill="rgba(255,255,255,0.3)"/>
            <path id="Shape-8" data-name="Shape" d="M14.86,29.522a4.49,4.49,0,0,0,8.98,0,1.5,1.5,0,0,0-2.993,0,1.5,1.5,0,0,1-2.993,0v-4.4H14.86Z" transform="translate(5.712 10.366)" fill="none" stroke="#fff" stroke-width="1.032"/>
            <path id="Shape-9" data-name="Shape" stroke="#fff" d="M11.335,4.567A5.007,5.007,0,0,1,9.578,9.992a4.589,4.589,0,0,1-4.994.243" fill="none" transform="translate(1.411 1.765)" stroke-linecap="round" stroke-linejoin="round" stroke-width="0.999" fill-rule="evenodd"/>
            <path id="Shape-2-2" data-name="Shape-2" d="M6.669,9.713A3.035,3.035,0,0,0,9.7,6.685c0-2.17-3.026-5.555-3.026-5.555S3.643,4.515,3.643,6.685A3.035,3.035,0,0,0,6.669,9.713Z" transform="translate(1.018 0.327)" fill="#fff" opacity="0.3"/>
            <path id="Shape-3-2" data-name="Shape-3" d="M4.059,3.487C4.059,2.159,2.2.1,2.2.1S.366,2.159.366,3.487a1.854,1.854,0,1,0,3.693,0Z" transform="translate(-0.357 -0.103)" fill="#fff" opacity="0.3"/>
            <path id="Shape-2-3" data-name="Shape-2" d="M6.669,9.713A3.035,3.035,0,0,0,9.7,6.685c0-2.17-3.026-5.555-3.026-5.555S3.643,4.515,3.643,6.685A3.035,3.035,0,0,0,6.669,9.713Z" transform="translate(1.018 0.327)" fill="none" stroke="#fff" stroke-width="0.999"/>
            <path id="Shape-3-3" data-name="Shape-3" d="M4.059,3.487C4.059,2.159,2.2.1,2.2.1S.366,2.159.366,3.487a1.854,1.854,0,1,0,3.693,0Z" transform="translate(-0.357 -0.103)" fill="none" stroke="#fff" stroke-width="0.999"/>
          </g>
        </g>
      </g>
    </g>
    <g id="Styleguide" transform="translate(288.798 2114.031)">
      <g id="Home_Screen__India_" data-name="Home_Screen_(India)" transform="translate(1 1)">
        <g id="Group-5-Copy-2" transform="translate(0 0)">
          <path id="Path-5" d="M15.865,16.426c1.49.122-7.208-9.387-14.1-2.985q-3.931,4.653,1.2,12.941Q15.238,39.4,16.283,38.824,7.238,29.561,6.066,23.511c-.553-2.854.677-5.947,2.1-6.778C11.3,14.915,14.883,16.349,15.865,16.426Z" transform="translate(0.022 4.221)" fill="#4d4d4d"/>
          <path id="Path-2-2" data-name="Path-2" stroke="#fff" d="M16.582,15.8q5.6-6.805,10.245-5.023c4.857,1.861,6.307,5.913,3.819,12.9q-2.44,6.849-13.934,16.053a.715.715,0,0,1-.912-.015Q4.72,30.206,1.65,24.489C-1.482,18.657,0,13.219,4.782,11.387q4.575-1.753,10.741,4.458a.715.715,0,0,0,1.06-.05Z" fill="none" transform="translate(0 3.912)" stroke-linecap="round" stroke-linejoin="round" stroke-width="1.016" fill-rule="evenodd"/>
          <path id="Shape-10" data-name="Shape" d="M22.846,1.228c.22,6.925,2.328,10.211,6.272,10.211,2.9,0,4.812-1.78,5.706-5.481a23.577,23.577,0,0,0,.569-4.73" transform="translate(8.592 0.462)" fill="rgba(216,216,216,0)" stroke="#fff" stroke-width="1.016"/>
          <path id="Path-4" d="M31.286,8.527l.233,16.828a32.768,32.768,0,0,1-.233,7.059c-.812,3.432-2.521,4.707-4.426,4.936-4.327.518-6.576-3.643-9.41-8.717" transform="translate(6.563 3.207)" fill="none" stroke="#fff" stroke-width="1.016" fill-rule="evenodd"/>
          <ellipse id="Oval" cx="3.296" cy="3.326" rx="3.296" ry="3.326" transform="translate(19.067 25.112)" fill="#4d4d4d" stroke="#fff" stroke-width="1.016"/>
          <ellipse id="Oval-Copy" cx="1.77" cy="1.787" rx="1.77" ry="1.787" transform="translate(31.434 0)" fill="#4d4d4d" stroke="#fff" stroke-width="1.016"/>
          <ellipse id="Oval-Copy-3" cx="1.77" cy="1.787" rx="1.77" ry="1.787" transform="translate(40.463 0)" fill="#4d4d4d" stroke="#fff" stroke-width="1.016"/>
          <path id="Path-7" d="M16.692,13.024q3.655-.284,5.164,3.83" transform="translate(6.278 4.892)" fill="none" stroke="#fff" stroke-linecap="round" stroke-width="1.016" fill-rule="evenodd"/>
        </g>
      </g>
    </g>
    <g id="Page-1-3" data-name="Page-1" transform="translate(291.455 2210.397)">
      <g id="Home_Screen__Gradient_1_3" data-name="Home_Screen_(Gradient_1)" transform="translate(1 1)">
        <g id="Artboard-2" transform="translate(0 0)">
          <path id="Path-4-2" data-name="Path" d="M27.486,35.957a11.482,11.482,0,0,1-2.308-.2,1.178,1.178,0,0,0-.621.023,16.177,16.177,0,0,1-10.109,0,2.964,2.964,0,0,0-1.335.085A11.179,11.179,0,0,1,.684,27.932a13.781,13.781,0,0,1-.118-8.2C.907,18.554,6.819,28.5,19.5,27.946S38.462,19,38.861,21.773c.718,4.977-1.429,10.919-6.684,13.235A11.023,11.023,0,0,1,27.486,35.957Z" transform="translate(0 7.788)" fill="#fff" fill-rule="evenodd" opacity="0.3"/>
          <path id="Path-5-2" data-name="Path" d="M27.486,43.745a11.482,11.482,0,0,1-2.308-.2,1.178,1.178,0,0,0-.621.023,16.177,16.177,0,0,1-10.109,0,2.964,2.964,0,0,0-1.335.085A11.179,11.179,0,0,1,.684,35.72,14.477,14.477,0,0,1,2.012,24.033,31.422,31.422,0,0,1,11.4,13.8c.291-.212.4-.328.183-.7a2.708,2.708,0,0,1,.485-3.266c.234-.232.194-.315-.028-.5a9.4,9.4,0,0,1-2.38-2.673,3.676,3.676,0,0,1-.285-3.4,2.386,2.386,0,0,1,3.1-1.566c.636.163,1.266.359,1.892.559a1.561,1.561,0,0,0,1.684-.416c.232-.227.461-.458.694-.685a3.855,3.855,0,0,1,5.483-.006c.258.247.509.5.768.747a1.561,1.561,0,0,0,1.562.378,22.135,22.135,0,0,1,2.412-.661A2.216,2.216,0,0,1,29.33,2.689a3.612,3.612,0,0,1,.1,3.79A9.107,9.107,0,0,1,27,9.3c-.242.2-.312.294-.046.565a2.707,2.707,0,0,1,.437,3.272c-.194.33-.1.445.157.635a33.767,33.767,0,0,1,8.233,8.265,17.881,17.881,0,0,1,3.076,7.528c.718,4.977-1.429,10.919-6.684,13.235A11.023,11.023,0,0,1,27.486,43.745Z" transform="translate(0 0)" fill="none" stroke="#fff" stroke-width="1" fill-rule="evenodd"/>
          <path id="Path-6" data-name="Path" d="M24.965,10.174a2.563,2.563,0,0,1-.146.887c-.145.52-.379.378-.808.094A10.922,10.922,0,0,0,19.4,9.283a21.637,21.637,0,0,0-5.844,0,11.788,11.788,0,0,0-4.878,1.872c-.362.244-.508.461-.669,0a3.149,3.149,0,0,1,.669-3.176,5.321,5.321,0,0,1,2.624-1.386,19.291,19.291,0,0,1,11,.274,4.643,4.643,0,0,1,1.709,1.008A3.1,3.1,0,0,1,24.965,10.174Z" transform="translate(3.111 2.35)" fill="rgba(255,255,255,0.3)" fill-rule="evenodd"/>
          <path id="Path-7-2" data-name="Path" d="M24.965,10.174a2.563,2.563,0,0,1-.146.887c-.145.52-.379.378-.808.094A10.922,10.922,0,0,0,19.4,9.283a21.637,21.637,0,0,0-5.844,0,11.788,11.788,0,0,0-4.878,1.872c-.362.244-.508.461-.669,0a3.149,3.149,0,0,1,.669-3.176,5.321,5.321,0,0,1,2.624-1.386,19.291,19.291,0,0,1,11,.274,4.643,4.643,0,0,1,1.709,1.008A3.1,3.1,0,0,1,24.965,10.174Z" transform="translate(3.111 2.35)" fill="none" stroke="#fff" stroke-width="1" fill-rule="evenodd"/>
          <path id="Shape-11" data-name="Shape" d="M10.7,18.479a.441.441,0,1,0,0,.883h6.115A2.667,2.667,0,0,1,14.2,21.568H11.1a.445.445,0,0,0-.313.754L17,28.52a.445.445,0,0,0,.626,0,.455.455,0,0,0,0-.625l-.939-.938L12.173,22.47H14.42a3.539,3.539,0,0,0,3.3-3.09h2.21a.441.441,0,1,0,0-.883h-2.21a3.445,3.445,0,0,0-1.179-2.207h3.389a.441.441,0,1,0,0-.883H10.7a.441.441,0,1,0,0,.883h3.518A2.652,2.652,0,0,1,16.833,18.5H10.7Z" transform="translate(4.068 6.11)" fill="#fff" stroke="#fff" stroke-width="0.5"/>
          <path id="Path-2-3" data-name="Path-2" d="M7.24,28.444a10.56,10.56,0,0,0,9.046,4.388,11.776,11.776,0,0,0,9.49-4.388" transform="translate(2.871 11.281)" fill="none" stroke="#fff" stroke-linecap="round" stroke-width="1"/>
        </g>
      </g>
    </g>
    <g id="Page-1-4" data-name="Page-1" transform="translate(292.63 2306.121)">
      <g id="Home_Screen__Gradient_1_4" data-name="Home_Screen_(Gradient_1)" transform="translate(1.37 1.141)">
        <g id="Other-Insurance" transform="translate(0 0)">
          <path id="Path-8" data-name="Path" d="M1.5,20.081c.283.67,1.694,4.264,2.044,4.913C6.1,29.735,10.532,33.841,18.152,36.5c7.751-2.7,12.2-6.906,14.739-11.751.3-.57,1.889-4.383,2.136-4.969-5.524,2.2-8.339,4.13-16.764,4.064C9.536,23.776,9.3,22.554,1.5,20.081Z" transform="translate(0.046 7.096)" fill="#fff" opacity="0.3"/>
          <path id="Path-9" data-name="Path" d="M34.867,6.169,19.545.321a2.737,2.737,0,0,0-1.952,0L2.272,6.169A2.737,2.737,0,0,0,.516,8.554Q-1.262,36.818,18.568,43.736,38.4,36.818,36.622,8.554h0A2.737,2.737,0,0,0,34.867,6.169Z" transform="translate(-0.37 -0.141)" fill="none" stroke="#fff" stroke-width="1"/>
          <path id="Line-4" d="M13.875,13.25V21.8" transform="translate(4.606 4.69)" fill="none" stroke="#fff" stroke-linecap="square" stroke-width="1.5" fill-rule="evenodd"/>
          <path id="Line-4-2" data-name="Line-4" d="M0,0V8.551" transform="translate(14.547 22.216) rotate(-90)" fill="none" stroke="#fff" stroke-linecap="square" stroke-width="1.5" fill-rule="evenodd"/>
        </g>
      </g>
    </g>
  </g>
</svg>
