<svg xmlns="http://www.w3.org/2000/svg" width="21" height="329.636" viewBox="0 0 21 329.636">
  <g id="Group_287" data-name="Group 287" transform="translate(-587 -52.958)">
    <path id="iconfinder_06-facebook_104498" d="M37.982,20.033H31.171V15.566a1.819,1.819,0,0,1,1.9-2.069h4.807V6.122L31.253,6.1c-7.349,0-9.021,5.5-9.021,9.021v4.916h-4.25v7.6h4.25v21.5h8.939v-21.5H37.2Z" transform="translate(570.018 46.862)" fill="#fff"/>
    <path id="iconfinder_icon-social-twitter_211920" d="M40.1,65.928a8.3,8.3,0,0,1-2.356.648,4.118,4.118,0,0,0,1.805-2.272,8.153,8.153,0,0,1-2.606,1,4.1,4.1,0,0,0-7.1,2.806,4.017,4.017,0,0,0,.106.937A11.628,11.628,0,0,1,21.49,64.75a4.115,4.115,0,0,0,1.271,5.484,4,4,0,0,1-1.861-.513v.051A4.107,4.107,0,0,0,24.194,73.8a4.13,4.13,0,0,1-1.081.144,3.871,3.871,0,0,1-.771-.076,4.11,4.11,0,0,0,3.836,2.852,8.227,8.227,0,0,1-5.1,1.759,8.32,8.32,0,0,1-.979-.059,11.655,11.655,0,0,0,17.966-9.833c0-.178,0-.356-.013-.53A8.423,8.423,0,0,0,40.1,65.928Z" transform="translate(567.9 101.596)" fill="#fff"/>
    <g id="iconfinder_038_002_linkedin_social_network_android_material_1646907" transform="translate(584 266.097)">
      <rect id="Rectangle_49" data-name="Rectangle 49" width="5" height="13" transform="translate(3 8.903)" fill="#fff"/>
      <circle id="Ellipse_12" data-name="Ellipse 12" cx="2.5" cy="2.5" r="2.5" transform="translate(3 2.903)" fill="#fff"/>
      <path id="Path_68" data-name="Path 68" d="M17.336,8.25a4.971,4.971,0,0,0-3.89,1.893V9.084H9V21.311h4.446V13.53a2.223,2.223,0,1,1,4.446,0v7.781h4.446V13.252A5,5,0,0,0,17.336,8.25Z" transform="translate(0.669 0.593)" fill="#fff"/>
    </g>
    <path id="iconfinder_038_008_youtube_video_social_network_android_material_1646914" d="M21.807,7.8a2.8,2.8,0,0,0-2.549-2.539C17.691,5.136,15.367,5,12.5,5c-3.453,0-6.059.141-7.744.273A2.8,2.8,0,0,0,2.192,7.815C2.089,8.9,2,10.333,2,12.042c0,1.666.089,3.074.191,4.146a2.8,2.8,0,0,0,2.564,2.538C6.44,18.859,9.047,19,12.5,19c2.867,0,5.19-.136,6.758-.266a2.8,2.8,0,0,0,2.549-2.539c.1-1.08.193-2.5.193-4.195S21.911,8.885,21.807,7.8ZM9.776,14.939V9.061L15.574,12Z" transform="translate(586 363.595)" fill="#fff"/>
  </g>
</svg>
