<svg id="Group_249719" data-name="Group 249719" xmlns="http://www.w3.org/2000/svg" xmlns:xlink="http://www.w3.org/1999/xlink" width="160.07" height="42" viewBox="0 0 160.07 42">
  <defs>
    <clipPath id="clip-path">
      <rect id="Rectangle_33539" data-name="Rectangle 33539" width="160.07" height="42" fill="none"/>
    </clipPath>
  </defs>
  <path id="Path_234460" data-name="Path 234460" d="M5.661,119.075,2.147,132.2H147.692l3.514-13.122Z" transform="translate(-1.627 -90.198)" fill="#253858"/>
  <g id="Group_249720" data-name="Group 249720">
    <g id="Group_249719-2" data-name="Group 249719" clip-path="url(#clip-path)">
      <path id="Path_234461" data-name="Path 234461" d="M0,35.367c.389,0,.779.012,1.168.013.91,0,1.82,0,2.729,0,.162,0,.211.047.209.209-.009.563,0,1.126,0,1.69v.232l.054.024c.042-.056.088-.11.127-.169A4.779,4.779,0,0,1,6.75,35.346a3.816,3.816,0,0,1,5.026,2.487,8.762,8.762,0,0,1,.463,3.727,7.952,7.952,0,0,1-.982,3.53,4.092,4.092,0,0,1-4.152,2.171,4.39,4.39,0,0,1-2.684-1.274,3.1,3.1,0,0,1-.232-.278l-.071.04V51.28H2.044c0-.057-.014-.111-.014-.166q.006-6.552.01-13.1a6.008,6.008,0,0,0-.078-.99.991.991,0,0,0-.916-.921,6.712,6.712,0,0,0-.815-.093c-.142-.009-.187-.06-.188-.2A3.857,3.857,0,0,0,0,35.41Zm4.1,6.2c0,1.047,0,2.093.006,3.14a.431.431,0,0,0,.148.3,5.6,5.6,0,0,0,2.6,1.146,2.324,2.324,0,0,0,2.024-.589,3.318,3.318,0,0,0,.871-1.569,9.92,9.92,0,0,0,.155-4.475,5.348,5.348,0,0,0-.841-2.157A2.106,2.106,0,0,0,6.6,36.45a4.485,4.485,0,0,0-2.435,1.774.479.479,0,0,0-.059.264c0,1.025,0,2.05,0,3.075" transform="translate(0 -26.597)" fill="#0065ff"/>
      <path id="Path_234462" data-name="Path 234462" d="M250.686,14.85v-.641h4.1v7.46c.287-.344.531-.682.819-.976a4.387,4.387,0,0,1,4.593-1.239,3.835,3.835,0,0,1,2.355,2.129,6.746,6.746,0,0,1,.683,2.683,9.144,9.144,0,0,1-.551,4.081,4.975,4.975,0,0,1-2.1,2.563,4.672,4.672,0,0,1-5.31-.553c-.141-.123-.27-.261-.411-.384a.271.271,0,0,0-.166-.069c-.024,0-.057.089-.068.141-.075.382-.142.765-.223,1.146-.013.059-.081.151-.125.152-.533.01-1.065.007-1.627.007V31.1q0-7.1,0-14.191a13.2,13.2,0,0,0-.1-1.354.528.528,0,0,0-.452-.489c-.388-.075-.779-.13-1.17-.192-.077-.012-.156-.015-.243-.023m4.107,10.9c0,1.047,0,2.094,0,3.141a.328.328,0,0,0,.095.235,5.848,5.848,0,0,0,2.541,1.142,2.625,2.625,0,0,0,3.176-1.838,7.505,7.505,0,0,0,.385-2.336,10.963,10.963,0,0,0-.3-3.219,3.292,3.292,0,0,0-.919-1.66,2.589,2.589,0,0,0-2.355-.529,4.318,4.318,0,0,0-2.475,1.563.624.624,0,0,0-.16.447c.008,1.018,0,2.036,0,3.054" transform="translate(-189.891 -10.763)" fill="#253858"/>
      <path id="Path_234463" data-name="Path 234463" d="M315.662,46.235c.006.079.012.156.018.234.044.559.047.575-.507.685a4.048,4.048,0,0,1-1.006.094,1.815,1.815,0,0,1-1.655-1.369c-.054-.148-.093-.3-.146-.477-.23.2-.444.4-.669.583a5.436,5.436,0,0,1-2.45,1.222,3.5,3.5,0,0,1-3.724-1.648,3.414,3.414,0,0,1,1.323-4.58,6.205,6.205,0,0,1,2.528-.765c.744-.077,1.494-.091,2.242-.132.085,0,.17,0,.28,0a10.255,10.255,0,0,0-.211-2.9,1.78,1.78,0,0,0-1.875-1.322,4.259,4.259,0,0,0-1.075.182,1.736,1.736,0,0,0-1.256,1.662c-.012.142-.02.285-.03.44h-1.444v-.271c0-.563,0-1.127.005-1.69a.279.279,0,0,1,.112-.214,9.826,9.826,0,0,1,4.643-.915,4.086,4.086,0,0,1,1.815.511,2.785,2.785,0,0,1,1.35,2.132,7.956,7.956,0,0,1,.076,1.1c.007,1.675-.008,3.35.01,5.025a10.327,10.327,0,0,0,.148,1.652.886.886,0,0,0,.864.826,3.63,3.63,0,0,0,.634-.065m-3.769-5.5a6.544,6.544,0,0,0-2.9.458,2.582,2.582,0,0,0-1.613,2.658,2.276,2.276,0,0,0,2.606,2.144,4.78,4.78,0,0,0,1.759-.743.283.283,0,0,0,.148-.279c0-1.285,0-2.569,0-3.854,0-.115,0-.23,0-.385" transform="translate(-231.126 -26.539)" fill="#253858"/>
      <path id="Path_234464" data-name="Path 234464" d="M454.078,38.158h-1.421c-.006-.061-.016-.115-.016-.17,0-.6,0-1.2,0-1.8a.277.277,0,0,1,.111-.214,9.63,9.63,0,0,1,4.643-.908,5.253,5.253,0,0,1,1.285.269,2.756,2.756,0,0,1,1.88,2.4,6.043,6.043,0,0,1,.052.862c0,1.777-.009,3.553.009,5.33a8.025,8.025,0,0,0,.153,1.5.956.956,0,0,0,1.315.833c.056-.012.112-.022.192-.037.021.237.047.463.058.689a.156.156,0,0,1-.086.119,3.311,3.311,0,0,1-1.765.18,1.8,1.8,0,0,1-1.3-1.19c-.078-.193-.133-.4-.205-.616-.219.192-.427.386-.647.566a5.12,5.12,0,0,1-2.469,1.232,3.438,3.438,0,0,1-3.587-1.424,3.385,3.385,0,0,1,1.257-4.84,6.268,6.268,0,0,1,2.454-.723c.759-.076,1.524-.091,2.286-.132.064,0,.127,0,.18,0,.019-.029.034-.04.034-.051-.015-.75.009-1.5-.059-2.248a1.961,1.961,0,0,0-1.055-1.729,2.411,2.411,0,0,0-1.9-.059c-1.085.379-1.328.916-1.407,2.01,0,.042,0,.084,0,.149m4.413,2.578a6.775,6.775,0,0,0-2.667.369A2.634,2.634,0,0,0,454,43.692a2.3,2.3,0,0,0,2.625,2.3,4.9,4.9,0,0,0,1.722-.724.3.3,0,0,0,.157-.3c-.005-1.335,0-2.67,0-4.005,0-.07-.006-.14-.01-.233" transform="translate(-342.184 -26.544)" fill="#253858"/>
      <path id="Path_234465" data-name="Path 234465" d="M409,40.071a10.117,10.117,0,0,0-.212-2.907,1.82,1.82,0,0,0-1.868-1.312,2.987,2.987,0,0,0-1.392.329,1.673,1.673,0,0,0-.909,1.337c-.031.205-.044.413-.067.631h-1.4a1.031,1.031,0,0,1-.02-.14c0-.614-.005-1.228.005-1.842a.272.272,0,0,1,.126-.2,10.326,10.326,0,0,1,3.542-.909,6.348,6.348,0,0,1,2.018.162,2.868,2.868,0,0,1,2.244,2.671c.027.323.039.648.041.972.007,1.863,0,3.726.019,5.589a4.881,4.881,0,0,0,.126.984.964.964,0,0,0,1.264.84c.071-.012.141-.029.252-.051.022.262.044.515.067.779a3.031,3.031,0,0,1-2.141.12,2.208,2.208,0,0,1-1.216-1.707c-.332.276-.642.554-.973.8a4.762,4.762,0,0,1-2.548,1.038,3.333,3.333,0,0,1-3.665-2.663,3.4,3.4,0,0,1,2.037-3.811,7.284,7.284,0,0,1,2.509-.612c.653-.055,1.31-.059,1.965-.087.056,0,.112-.006.193-.011m0,.66a6.666,6.666,0,0,0-2.816.426,2.61,2.61,0,0,0-1.692,2.571,2.285,2.285,0,0,0,2.624,2.262,4.728,4.728,0,0,0,1.7-.712.33.33,0,0,0,.184-.325c-.007-1.329,0-2.657,0-3.986Z" transform="translate(-304.691 -26.541)" fill="#253858"/>
      <path id="Path_234466" data-name="Path 234466" d="M60.118,47.283a5.32,5.32,0,0,1-5.436-4.437,6.9,6.9,0,0,1,.87-5.339,5,5,0,0,1,3.88-2.335,5.594,5.594,0,0,1,3.524.694,5.409,5.409,0,0,1,2.507,3.486,6.921,6.921,0,0,1-.679,5.367,4.989,4.989,0,0,1-3.846,2.53,2.3,2.3,0,0,1-.235.032c-.194,0-.389,0-.584,0m3.412-6.3c-.031-.295-.063-.821-.146-1.339a5.994,5.994,0,0,0-1.134-2.814,2.592,2.592,0,0,0-3.733-.55,3.913,3.913,0,0,0-1.21,1.685,8.867,8.867,0,0,0-.417,5.158,5.584,5.584,0,0,0,1.2,2.624,2.6,2.6,0,0,0,3.4.55,3.6,3.6,0,0,0,1.24-1.444,8.54,8.54,0,0,0,.8-3.871" transform="translate(-41.28 -26.612)" fill="#0065ff"/>
      <path id="Path_234467" data-name="Path 234467" d="M358.86,47.043h7.65v.79H356.319a1.436,1.436,0,0,1,.208-.977q3.576-4.939,7.117-9.9c.028-.038.053-.078.1-.151h-.264c-1.466,0-2.931,0-4.4.005-.294,0-.588.043-.882.065a.383.383,0,0,0-.376.354,5.273,5.273,0,0,0-.051.645c-.008.265,0,.53,0,.808h-1.147V36.149h9.585a1.318,1.318,0,0,1-.228.993q-3.514,4.851-6.992,9.726c-.033.046-.068.09-.131.175" transform="translate(-269.904 -27.382)" fill="#253858"/>
      <path id="Path_234468" data-name="Path 234468" d="M498.535,35.945v-.594h4.106v2.116c1.077-1.646,2.456-2.649,4.539-2.311v3.215h-1.159c-.042-.32-.072-.648-.129-.971-.092-.519-.174-.585-.7-.576a2.841,2.841,0,0,0-2.229,1.229,1.434,1.434,0,0,0-.324.967c.02,1.733,0,3.466.012,5.2,0,.431.044.863.079,1.293a.718.718,0,0,0,.65.721c.376.056.756.089,1.135.129.127.013.255.015.39.023v.65h-6.377a4.9,4.9,0,0,1,.009-.557c0-.044.115-.1.183-.111.355-.053.714-.085,1.07-.14a.709.709,0,0,0,.666-.7c.031-.4.075-.805.077-1.208q.012-3.13,0-6.259c0-.445-.057-.891-.1-1.335a.56.56,0,0,0-.472-.525c-.463-.093-.93-.168-1.42-.254" transform="translate(-377.624 -26.58)" fill="#253858"/>
      <path id="Path_234469" data-name="Path 234469" d="M100.144,14.819v-.573c.082,0,.152-.011.223-.011,1.191,0,2.382.005,3.573-.006.212,0,.248.073.248.262q0,3.908.019,7.817.012,4.287.024,8.575c0,.32,0,.32-.317.32h-1.925c0-.085-.012-.154-.012-.223.009-1.574.016-3.147.029-4.721.01-1.126.033-2.252.046-3.377.024-2.107.048-4.214.062-6.321a3.77,3.77,0,0,0-.09-.793.936.936,0,0,0-.756-.772c-.364-.079-.736-.118-1.122-.178" transform="translate(-75.858 -10.779)" fill="#0065ff"/>
      <path id="Path_234470" data-name="Path 234470" d="M206.395,36.2c-.235.449-.478.865-.678,1.3q-1.744,3.812-3.472,7.632c-.84,1.85-1.672,3.7-2.519,5.55a1.993,1.993,0,0,1-1.549,1.333,6.913,6.913,0,0,1-.929.049c-.614,0-1.227-.022-1.84-.038-.129,0-.257-.021-.382-.031-.08-.338-.057-.378.257-.368.4.013.807.034,1.21.061a3.685,3.685,0,0,0,1.893-.334,1.643,1.643,0,0,0,.835-.813c.237-.547.438-1.111.654-1.667.107-.275.2-.556.33-.821a.419.419,0,0,0,.005-.384q-1.822-4.355-3.639-8.713c-.158-.379-.3-.765-.476-1.135a1.6,1.6,0,0,0-1.331-1.008c-.045,0-.083-.086-.121-.134-.007-.009,0-.028,0-.043.008-.537-.066-.435.426-.438.989-.006,1.979,0,2.968,0h.268c0,.264.015.508,0,.749a2.882,2.882,0,0,0,.267,1.343q1.426,3.4,2.842,6.8c.027.064.058.126.1.215a.851.851,0,0,0,.086-.121c.968-2.187,1.951-4.367,2.892-6.565.308-.719.515-1.482.756-2.229a.233.233,0,0,1,.275-.192c.286.012.572,0,.876,0" transform="translate(-147.437 -27.42)" fill="#0065ff"/>
      <path id="Path_234471" data-name="Path 234471" d="M161.567,45.807c0,.258.008.489-.005.719a.229.229,0,0,1-.109.171,7.544,7.544,0,0,1-4.932.358,5.181,5.181,0,0,1-3.485-3.377A6.761,6.761,0,0,1,153.6,37.5a4.955,4.955,0,0,1,3.867-2.317,12.071,12.071,0,0,1,3.955.438c.114.026.147.089.146.2q0,1.2,0,2.4c0,.141-.051.191-.191.187-.289-.008-.578-.011-.866,0-.168.007-.218-.046-.231-.218a5.2,5.2,0,0,0-.143-.938,1.86,1.86,0,0,0-2.182-1.461,2.984,2.984,0,0,0-2.589,1.853,6.479,6.479,0,0,0-.615,2.369,8.788,8.788,0,0,0,.4,3.562,3.676,3.676,0,0,0,2.963,2.681,5.876,5.876,0,0,0,3.183-.348l.269-.1" transform="translate(-115.55 -26.619)" fill="#0065ff"/>
      <path id="Path_234472" data-name="Path 234472" d="M128.721,36.872v-.591h4.036c.034,3.869.068,7.728.1,11.608h-2.233c0-.171,0-.35,0-.528q.023-2.479.047-4.959c.011-1.242.026-2.483.029-3.725a4.155,4.155,0,0,0-.073-.773,1.016,1.016,0,0,0-.939-.924c-.155-.029-.313-.052-.47-.069s-.314-.025-.5-.039" transform="translate(-97.504 -27.482)" fill="#0065ff"/>
      <rect id="Rectangle_33538" data-name="Rectangle 33538" width="2.032" height="2.024" transform="translate(33.221 4.551)" fill="#0065ff"/>
      <path id="Path_234473" data-name="Path 234473" d="M571.477,18.761A12.753,12.753,0,1,1,558.724,6.008a12.753,12.753,0,0,1,12.753,12.753" transform="translate(-413.565 -4.551)" fill="#0065ff"/>
      <path id="Path_234474" data-name="Path 234474" d="M567.028,62.822l.863-.231a2.3,2.3,0,0,1-.141,1.609,2.166,2.166,0,0,1-1.161,1.038,2.282,2.282,0,0,1-1.894.009,2.9,2.9,0,0,1-1.392-1.639,3.7,3.7,0,0,1-.31-1.5,1.991,1.991,0,0,1,.434-1.227,2.58,2.58,0,0,1,1.05-.782,2.208,2.208,0,0,1,1.477-.134,2.009,2.009,0,0,1,1.126.882l-.758.459a1.457,1.457,0,0,0-.717-.576,1.147,1.147,0,0,0-.814.042,1.4,1.4,0,0,0-.837.873,2.313,2.313,0,0,0,.195,1.59,2.394,2.394,0,0,0,.972,1.283,1.337,1.337,0,0,0,1.176.041,1.262,1.262,0,0,0,.7-.638,1.613,1.613,0,0,0,.036-1.1" transform="translate(-426.457 -45.367)" fill="#fff"/>
      <path id="Path_234475" data-name="Path 234475" d="M582.619,55.532a2.742,2.742,0,0,1-.074-2.336,2.473,2.473,0,0,1,1.321-1.183,2.387,2.387,0,0,1,1.931-.018,2.733,2.733,0,0,1,1.4,1.571,3.516,3.516,0,0,1,.33,1.61,2.181,2.181,0,0,1-.481,1.186,2.614,2.614,0,0,1-1.064.79,2.391,2.391,0,0,1-1.941.025,2.861,2.861,0,0,1-1.422-1.645m.857-.353a2.263,2.263,0,0,0,.994,1.245,1.483,1.483,0,0,0,2.068-.855,2.317,2.317,0,0,0-.181-1.609,2.2,2.2,0,0,0-.984-1.211,1.485,1.485,0,0,0-2.068.849,2.255,2.255,0,0,0,.169,1.581" transform="translate(-441.097 -39.237)" fill="#fff"/>
      <path id="Path_234476" data-name="Path 234476" d="M604.431,45.005l-2.025-4.916.745-.307.284.69a1.892,1.892,0,0,1,.376-.834,1.871,1.871,0,0,1,.784-.58,1.751,1.751,0,0,1,.989-.142,1.314,1.314,0,0,1,.754.431A1.91,1.91,0,0,1,607.5,37.86,1.619,1.619,0,0,1,608.8,37.8a1.873,1.873,0,0,1,.907,1.086l1.39,3.375-.829.341-1.275-3.1a2.472,2.472,0,0,0-.378-.687.755.755,0,0,0-.44-.233.989.989,0,0,0-.555.072,1.257,1.257,0,0,0-.719.7,1.643,1.643,0,0,0,.112,1.245l1.176,2.856-.833.343-1.315-3.194a1.518,1.518,0,0,0-.547-.749.833.833,0,0,0-.781,0,1.309,1.309,0,0,0-.574.453,1.136,1.136,0,0,0-.21.72,3.3,3.3,0,0,0,.289,1.083l1.05,2.551Z" transform="translate(-456.314 -28.552)" fill="#fff"/>
      <path id="Path_234477" data-name="Path 234477" d="M635.47,3.313V.391h-1.091V0H637V.391h-1.1V3.313Z" transform="translate(-480.532 0)"/>
      <path id="Path_234478" data-name="Path 234478" d="M647.005,3.314V0h.66l.784,2.346q.109.328.158.49.056-.18.176-.531l.793-2.3h.59V3.314h-.422V.541l-.963,2.773h-.4l-.958-2.82v2.82Z" transform="translate(-490.097 -0.001)"/>
      <path id="Path_234479" data-name="Path 234479" d="M35.78,131.868h1.484l-.627,2.669h2.736L40,131.868h1.484L39.9,138.613H38.416l.636-2.708H36.315l-.636,2.708H34.2Z" transform="translate(-25.903 -99.888)" fill="#fff"/>
      <path id="Path_234480" data-name="Path 234480" d="M65.341,131.669h1.369L68,138.462H66.452l-.261-1.513H63.339l-.972,1.513H60.854Zm.628,3.97-.382-2.187-1.41,2.187Z" transform="translate(-46.096 -99.737)" fill="#fff"/>
      <path id="Path_234481" data-name="Path 234481" d="M95.06,131.868h3.083a2.139,2.139,0,0,1,1.805.684,1.771,1.771,0,0,1,.216,1.542l0,.019a2.7,2.7,0,0,1-.713,1.335,3.185,3.185,0,0,1-1.223.756l1.082,2.409H97.57l-.938-2.159H95.466l-.507,2.159H93.475Zm2.217,3.276a1.491,1.491,0,0,0,.9-.26,1.164,1.164,0,0,0,.457-.694l0-.019a.715.715,0,0,0-.138-.723,1.13,1.13,0,0,0-.8-.241H96.229l-.455,1.936Z" transform="translate(-70.806 -99.888)" fill="#fff"/>
      <path id="Path_234482" data-name="Path 234482" d="M135.669,131.868H140.8l-.315,1.339h-3.652l-.342,1.455h3.218L139.4,136h-3.219l-.613,2.611h-1.484Z" transform="translate(-101.567 -99.888)" fill="#fff"/>
      <path id="Path_234483" data-name="Path 234483" d="M158.831,131.669H160.2l1.295,6.793h-1.552l-.261-1.513h-2.852l-.972,1.513h-1.513Zm.628,3.97-.382-2.187-1.41,2.187Z" transform="translate(-116.913 -99.737)" fill="#fff"/>
      <path id="Path_234484" data-name="Path 234484" d="M188.551,131.868h1.6l1.1,2.852,2.443-2.852h1.6l-1.585,6.745h-1.465l1.035-4.4-2.575,2.881h-.038l-1.209-2.852-1.028,4.374h-1.465Z" transform="translate(-141.624 -99.888)" fill="#fff"/>
      <path id="Path_234485" data-name="Path 234485" d="M222.163,131.868h1.484l-1.585,6.745h-1.484Z" transform="translate(-167.085 -99.888)" fill="#fff"/>
      <path id="Path_234486" data-name="Path 234486" d="M234.083,131.868h1.484l-1.27,5.406h3.363l-.315,1.339H232.5Z" transform="translate(-176.114 -99.888)" fill="#fff"/>
      <path id="Path_234487" data-name="Path 234487" d="M255.575,135.954l-1.632-4.086h1.734l.973,2.707,2.274-2.707h1.686l-3.545,4.057-.632,2.689h-1.484Z" transform="translate(-192.358 -99.888)" fill="#fff"/>
      <path id="Path_234488" data-name="Path 234488" d="M292.185,131.868h1.484l-.627,2.669h2.736l.627-2.669h1.484l-1.585,6.745h-1.484l.636-2.708H292.72l-.636,2.708H290.6Z" transform="translate(-220.126 -99.888)" fill="#fff"/>
      <path id="Path_234489" data-name="Path 234489" d="M324.106,138.368a3.22,3.22,0,0,1-1.371-.275,2.571,2.571,0,0,1-.958-.742,2.476,2.476,0,0,1-.484-1.1,3.278,3.278,0,0,1,.053-1.354l0-.019a4.152,4.152,0,0,1,.588-1.354,4.886,4.886,0,0,1,1.007-1.108,4.735,4.735,0,0,1,1.314-.752,4.208,4.208,0,0,1,1.5-.275,3.222,3.222,0,0,1,1.371.275,2.574,2.574,0,0,1,.958.742,2.476,2.476,0,0,1,.484,1.1,3.277,3.277,0,0,1-.053,1.354l0,.019a4.161,4.161,0,0,1-.588,1.354,4.893,4.893,0,0,1-1.007,1.108,4.737,4.737,0,0,1-1.314.752,4.212,4.212,0,0,1-1.505.275m.34-1.369a2.316,2.316,0,0,0,.858-.164,2.573,2.573,0,0,0,.747-.453,2.98,2.98,0,0,0,.572-.67,2.675,2.675,0,0,0,.34-.814l0-.019a2.15,2.15,0,0,0,.043-.819,1.54,1.54,0,0,0-.266-.675,1.461,1.461,0,0,0-.543-.458,1.718,1.718,0,0,0-.779-.169,2.3,2.3,0,0,0-.862.164,2.6,2.6,0,0,0-.742.453,2.965,2.965,0,0,0-.572.67,2.666,2.666,0,0,0-.341.814l0,.019a2.152,2.152,0,0,0-.043.819,1.541,1.541,0,0,0,.266.674,1.461,1.461,0,0,0,.538.458,1.7,1.7,0,0,0,.784.169" transform="translate(-243.338 -99.527)" fill="#fff"/>
      <path id="Path_234490" data-name="Path 234490" d="M356.673,138.367a3.392,3.392,0,0,1-1.379-.26,2.4,2.4,0,0,1-.948-.723,2.442,2.442,0,0,1-.469-1.1,3.448,3.448,0,0,1,.066-1.387l0-.019a4.212,4.212,0,0,1,.583-1.354,4.856,4.856,0,0,1,1-1.108,4.724,4.724,0,0,1,1.294-.752,4.069,4.069,0,0,1,1.481-.275,4.688,4.688,0,0,1,.809.063,3.288,3.288,0,0,1,.647.178,2.407,2.407,0,0,1,.529.289,3.181,3.181,0,0,1,.447.4l-1.2,1.127a2.676,2.676,0,0,0-.318-.289,1.889,1.889,0,0,0-.35-.212,1.957,1.957,0,0,0-.416-.135,2.544,2.544,0,0,0-.519-.048,1.991,1.991,0,0,0-.8.169,2.821,2.821,0,0,0-.723.454,2.91,2.91,0,0,0-.571.666,2.681,2.681,0,0,0-.341.816l0,.019a2.282,2.282,0,0,0-.051.855,1.54,1.54,0,0,0,.264.681,1.385,1.385,0,0,0,.54.449,1.8,1.8,0,0,0,.786.16,2.8,2.8,0,0,0,1.493-.408l.228-.97h-1.494l.3-1.282h2.929l-.688,2.929a6.672,6.672,0,0,1-1.416.756,4.63,4.63,0,0,1-1.717.313" transform="translate(-268.024 -99.527)" fill="#fff"/>
      <path id="Path_234491" data-name="Path 234491" d="M384.125,131.868h1.484l-1.585,6.745H382.54Z" transform="translate(-289.768 -99.888)" fill="#fff"/>
      <path id="Path_234492" data-name="Path 234492" d="M409.473,131.868h1.484l-1.585,6.745h-1.484Z" transform="translate(-308.97 -99.888)" fill="#fff"/>
      <path id="Path_234493" data-name="Path 234493" d="M421.393,131.868h1.368l2.185,4.153.976-4.153h1.465l-1.585,6.745H424.54l-2.259-4.288-1.007,4.288h-1.465Z" transform="translate(-317.999 -99.888)" fill="#fff"/>
      <path id="Path_234494" data-name="Path 234494" d="M451.737,138.409a3.955,3.955,0,0,1-1.451-.265,2.912,2.912,0,0,1-1.158-.814l1.124-1.05a3.185,3.185,0,0,0,.809.6,2.2,2.2,0,0,0,1.013.222,1.516,1.516,0,0,0,.758-.169.715.715,0,0,0,.365-.467l0-.019a.546.546,0,0,0,.007-.256.387.387,0,0,0-.154-.207,1.627,1.627,0,0,0-.37-.193,6.023,6.023,0,0,0-.643-.2,6.846,6.846,0,0,1-.862-.279,1.93,1.93,0,0,1-.616-.381,1.119,1.119,0,0,1-.317-.564,1.854,1.854,0,0,1,.038-.838l0-.019a2.39,2.39,0,0,1,.368-.833,2.678,2.678,0,0,1,.634-.641,2.912,2.912,0,0,1,.841-.414,3.312,3.312,0,0,1,.986-.144,3.594,3.594,0,0,1,1.311.222,2.909,2.909,0,0,1,.992.636l-1.033,1.118a3.623,3.623,0,0,0-.772-.487,1.974,1.974,0,0,0-.825-.178,1.237,1.237,0,0,0-.69.169.688.688,0,0,0-.316.419l0,.019a.561.561,0,0,0,0,.284.4.4,0,0,0,.176.217,1.654,1.654,0,0,0,.406.183q.264.087.672.2a5.59,5.59,0,0,1,.842.3,1.862,1.862,0,0,1,.581.4,1.134,1.134,0,0,1,.285.554,1.791,1.791,0,0,1-.039.761l0,.019a2.552,2.552,0,0,1-.391.891,2.58,2.58,0,0,1-.662.655,3.019,3.019,0,0,1-.872.4,3.713,3.713,0,0,1-1.034.14" transform="translate(-340.208 -99.587)" fill="#fff"/>
      <path id="Path_234495" data-name="Path 234495" d="M478.5,138.719a2.372,2.372,0,0,1-1.963-.752,2.559,2.559,0,0,1-.253-2.245l.906-3.854h1.484l-.9,3.816a1.565,1.565,0,0,0,.092,1.248,1.091,1.091,0,0,0,.971.419,1.747,1.747,0,0,0,1.165-.4,2.185,2.185,0,0,0,.671-1.214l.908-3.864h1.484l-.894,3.806a4.674,4.674,0,0,1-.522,1.339,3.52,3.52,0,0,1-.816.949,3.272,3.272,0,0,1-1.068.568,4.18,4.18,0,0,1-1.268.188" transform="translate(-360.678 -99.888)" fill="#fff"/>
      <path id="Path_234496" data-name="Path 234496" d="M504.791,131.868h3.083a2.139,2.139,0,0,1,1.805.684,1.771,1.771,0,0,1,.216,1.542l0,.019a2.7,2.7,0,0,1-.713,1.335,3.185,3.185,0,0,1-1.223.756l1.082,2.409H507.3l-.938-2.159H505.2l-.507,2.159h-1.484Zm2.217,3.276a1.491,1.491,0,0,0,.9-.26,1.164,1.164,0,0,0,.457-.694l.005-.019a.715.715,0,0,0-.139-.723,1.129,1.129,0,0,0-.8-.241H505.96l-.455,1.936Z" transform="translate(-381.171 -99.888)" fill="#fff"/>
      <path id="Path_234497" data-name="Path 234497" d="M532.366,131.868h5.078l-.31,1.32H533.52l-.322,1.368h3.18l-.31,1.32h-3.18l-.333,1.417h3.662l-.31,1.32h-5.126Z" transform="translate(-402.059 -99.888)" fill="#fff"/>
      <path id="Path_234498" data-name="Path 234498" d="M557.834,131.868h2.63a3.531,3.531,0,0,1,1.39.255,2.481,2.481,0,0,1,.97.708,2.341,2.341,0,0,1,.487,1.064,3.168,3.168,0,0,1-.051,1.325l0,.019a4.128,4.128,0,0,1-.573,1.33,4.415,4.415,0,0,1-.988,1.07,4.737,4.737,0,0,1-1.3.713,4.421,4.421,0,0,1-1.511.26h-2.63Zm1.361,5.406a2.571,2.571,0,0,0,.863-.145,2.417,2.417,0,0,0,.738-.414,2.73,2.73,0,0,0,.564-.636,2.6,2.6,0,0,0,.342-.819l0-.019a2.1,2.1,0,0,0,.043-.819,1.452,1.452,0,0,0-.262-.646,1.332,1.332,0,0,0-.543-.419,1.964,1.964,0,0,0-.794-.149H559l-.955,4.066Z" transform="translate(-421.35 -99.888)" fill="#fff"/>
    </g>
  </g>
</svg>
