<svg width="119" height="20" viewBox="0 0 119 20" fill="none" xmlns="http://www.w3.org/2000/svg">
<g clip-path="url(#clip0_1_273)">
<path fill-rule="evenodd" clip-rule="evenodd" d="M9.74773 17.214L5.23461 19.5873C4.64879 19.8954 3.92421 19.6701 3.61622 19.0841C3.49358 18.8508 3.45126 18.5835 3.49581 18.3236L4.35774 13.2968C4.42442 12.908 4.29553 12.5112 4.01309 12.2358L0.3619 8.67581C-0.112043 8.2137 -0.121741 7.45478 0.34024 6.9807C0.524203 6.79193 0.765249 6.66907 1.02606 6.63116L6.07188 5.89776C6.46221 5.84103 6.79963 5.59581 6.97419 5.24201L9.23075 0.668474C9.52366 0.0748044 10.2422 -0.168942 10.8358 0.124052C11.0721 0.240723 11.2634 0.432072 11.38 0.668474L13.6366 5.24201C13.8111 5.59581 14.1486 5.84103 14.5389 5.89776L19.5847 6.63116C20.2397 6.72636 20.6935 7.33464 20.5983 7.9898C20.5604 8.25068 20.4376 8.4918 20.2489 8.67581L16.5977 12.2358C16.3152 12.5112 16.1864 12.908 16.253 13.2968L17.115 18.3236C17.2268 18.9762 16.7887 19.5958 16.1364 19.7077C15.8766 19.7523 15.6094 19.71 15.3762 19.5873L10.863 17.214C10.5139 17.0304 10.0968 17.0304 9.74773 17.214ZM34.3147 17.214L29.8016 19.5873C29.2158 19.8954 28.4912 19.6701 28.1832 19.0841C28.0605 18.8508 28.0182 18.5835 28.0628 18.3236L28.9247 13.2968C28.9914 12.908 28.8625 12.5112 28.5801 12.2358L24.9289 8.67581C24.4549 8.2137 24.4452 7.45478 24.9072 6.9807C25.0912 6.79193 25.3322 6.66907 25.593 6.63116L30.6388 5.89776C31.0292 5.84103 31.3666 5.59581 31.5412 5.24201L33.7977 0.668474C34.0906 0.0748044 34.8092 -0.168942 35.4027 0.124052C35.6391 0.240723 35.8304 0.432072 35.947 0.668474L38.2036 5.24201C38.3781 5.59581 38.7155 5.84103 39.1059 5.89776L44.1517 6.63116C44.8067 6.72636 45.2605 7.33464 45.1653 7.9898C45.1274 8.25068 45.0046 8.4918 44.8158 8.67581L41.1647 12.2358C40.8822 12.5112 40.7533 12.908 40.82 13.2968L41.6819 18.3236C41.7938 18.9762 41.3557 19.5958 40.7034 19.7077C40.4436 19.7523 40.1764 19.71 39.9431 19.5873L35.43 17.214C35.0809 17.0304 34.6638 17.0304 34.3147 17.214ZM83.4486 17.214L78.9355 19.5873C78.3497 19.8954 77.6251 19.6701 77.3171 19.0841C77.1945 18.8508 77.1522 18.5835 77.1967 18.3236L78.0586 13.2968C78.1253 12.908 77.9964 12.5112 77.714 12.2358L74.0628 8.67581C73.5889 8.2137 73.5792 7.45478 74.0412 6.9807C74.2251 6.79193 74.4662 6.66907 74.727 6.63116L79.7728 5.89776C80.1631 5.84103 80.5005 5.59581 80.6751 5.24201L82.9317 0.668474C83.2246 0.0748044 83.9432 -0.168942 84.5367 0.124052C84.773 0.240723 84.9643 0.432072 85.0809 0.668474L87.3375 5.24201C87.5121 5.59581 87.8495 5.84103 88.2398 5.89776L93.2856 6.63116C93.9406 6.72636 94.3944 7.33464 94.2992 7.9898C94.2613 8.25068 94.1385 8.4918 93.9498 8.67581L90.2986 12.2358C90.0162 12.5112 89.8873 12.908 89.9539 13.2968L90.8159 18.3236C90.9278 18.9762 90.4896 19.5958 89.8373 19.7077C89.5775 19.7523 89.3104 19.71 89.0771 19.5873L84.564 17.214C84.2148 17.0304 83.7978 17.0304 83.4486 17.214ZM58.8817 17.214L54.3686 19.5873C53.7827 19.8954 53.0581 19.6701 52.7502 19.0841C52.6275 18.8508 52.5852 18.5835 52.6298 18.3236L53.4917 13.2968C53.5584 12.908 53.4295 12.5112 53.147 12.2358L49.4958 8.67581C49.0219 8.2137 49.0122 7.45478 49.4742 6.9807C49.6581 6.79193 49.8992 6.66907 50.16 6.63116L55.2058 5.89776C55.5961 5.84103 55.9336 5.59581 56.1081 5.24201L58.3647 0.668474C58.6576 0.0748044 59.3762 -0.168942 59.9697 0.124052C60.206 0.240723 60.3973 0.432072 60.514 0.668474L62.7705 5.24201C62.9451 5.59581 63.2825 5.84103 63.6728 5.89776L68.7187 6.63116C69.3736 6.72636 69.8274 7.33464 69.7323 7.9898C69.6944 8.25068 69.5715 8.4918 69.3828 8.67581L65.7316 12.2358C65.4492 12.5112 65.3203 12.908 65.387 13.2968L66.2489 18.3236C66.3608 18.9762 65.9227 19.5958 65.2703 19.7077C65.0106 19.7523 64.7434 19.71 64.5101 19.5873L59.997 17.214C59.6479 17.0304 59.2308 17.0304 58.8817 17.214Z" fill="#FFAB00"/>
<path d="M103.503 19.5873L108.016 17.214C108.365 17.0304 108.782 17.0304 109.131 17.214L113.644 19.5873C113.878 19.71 114.145 19.7523 114.405 19.7077C115.057 19.5958 115.495 18.9762 115.383 18.3236L114.521 13.2968C114.455 12.908 114.583 12.5112 114.866 12.2358L118.517 8.67581C118.706 8.4918 118.829 8.25068 118.866 7.9898C118.962 7.33464 118.508 6.72636 117.853 6.63116L112.807 5.89776C112.417 5.84103 112.079 5.59581 111.905 5.24201L109.648 0.668474C109.532 0.432072 109.34 0.240723 109.104 0.124052C108.51 -0.168942 107.792 0.0748044 107.499 0.668474L105.242 5.24201C105.068 5.59581 104.73 5.84103 104.34 5.89776L99.2942 6.63116C99.0334 6.66907 98.7924 6.79193 98.6084 6.9807C98.1464 7.45478 98.1561 8.2137 98.63 8.67581L102.281 12.2358C102.564 12.5112 102.693 12.908 102.626 13.2968L101.764 18.3236C101.719 18.5835 101.762 18.8508 101.884 19.0841C102.192 19.6701 102.917 19.8954 103.503 19.5873Z" fill="#FFAB00"/>
<mask id="mask0_1_273" style="mask-type:alpha" maskUnits="userSpaceOnUse" x="109" y="-4" width="17" height="35">
<rect x="109" y="-4" width="17" height="35" fill="#D9D9D9"/>
</mask>
<g mask="url(#mask0_1_273)">
<path d="M103.503 19.5873L108.016 17.214C108.365 17.0304 108.782 17.0304 109.131 17.214L113.644 19.5873C113.878 19.71 114.145 19.7523 114.405 19.7077C115.057 19.5958 115.495 18.9762 115.383 18.3236L114.521 13.2968C114.455 12.908 114.583 12.5112 114.866 12.2358L118.517 8.67581C118.706 8.4918 118.829 8.25068 118.866 7.9898C118.962 7.33464 118.508 6.72636 117.853 6.63116L112.807 5.89776C112.417 5.84103 112.079 5.59581 111.905 5.24201L109.648 0.668474C109.532 0.432072 109.34 0.240723 109.104 0.124052C108.51 -0.168942 107.792 0.0748044 107.499 0.668474L105.242 5.24201C105.068 5.59581 104.73 5.84103 104.34 5.89776L99.2942 6.63116C99.0334 6.66907 98.7924 6.79193 98.6084 6.9807C98.1464 7.45478 98.1561 8.2137 98.6301 8.67581L102.281 12.2358C102.564 12.5112 102.693 12.908 102.626 13.2968L101.764 18.3236C101.719 18.5835 101.762 18.8508 101.884 19.0841C102.192 19.6701 102.917 19.8954 103.503 19.5873Z" fill="#DFE1E6"/>
</g>
</g>
<defs>
<clipPath id="clip0_1_273">
<rect width="119" height="19.8333" fill="white"/>
</clipPath>
</defs>
</svg>
