<svg id="term_sprite" xmlns="http://www.w3.org/2000/svg" width="600" height="600" viewBox="0 0 600 600">
  <rect id="Rectangle_1" data-name="Rectangle 1" width="600" height="600" fill="#969696" opacity="0"/>
  <g id="man_icon_new" transform="translate(30 34)">
    <path id="Path_1" data-name="Path 1" d="M16.857,37.632,9.7,41.538a6.466,6.466,0,0,0-1.15.818,23.987,23.987,0,0,0,30.818.08A6.353,6.353,0,0,0,38.1,41.59l-7.668-3.834a2.924,2.924,0,0,1-1.617-2.615v-3.01a11.509,11.509,0,0,0,.726-.932,17.645,17.645,0,0,0,2.383-4.8,2.409,2.409,0,0,0,1.709-2.29V20.893a2.4,2.4,0,0,0-.8-1.78V14.471S33.785,7.246,24,7.246s-8.83,7.225-8.83,7.225v4.642a2.394,2.394,0,0,0-.8,1.78V24.1a2.408,2.408,0,0,0,1.11,2.02,15.942,15.942,0,0,0,2.9,6.008v2.934a2.927,2.927,0,0,1-1.525,2.566Z" fill="#fff"/>
    <path id="Path_2" data-name="Path 2" d="M24.41,0A23.985,23.985,0,0,0,8.557,42.349a6.377,6.377,0,0,1,1.138-.81l7.161-3.906a2.925,2.925,0,0,0,1.524-2.568V32.131a15.916,15.916,0,0,1-2.9-6.007,2.409,2.409,0,0,1-1.11-2.02V20.892a2.4,2.4,0,0,1,.8-1.78V14.47S14.215,7.245,24,7.245s8.83,7.225,8.83,7.225v4.642a2.391,2.391,0,0,1,.8,1.78V24.1a2.41,2.41,0,0,1-1.706,2.3,17.645,17.645,0,0,1-2.384,4.8,11.543,11.543,0,0,1-.726.933V35.14a2.924,2.924,0,0,0,1.616,2.615L38.1,41.59a6.39,6.39,0,0,1,1.26.844A24,24,0,0,0,24.41,0Z" fill="#bdc3cd"/>
  </g>
  <path id="quotes" d="M14.4,0V1.879a3.005,3.005,0,0,0-1.333,1.74,10.17,10.17,0,0,0-.444,3.313v.584h2.412v5.636H9.4V8.938a12.506,12.506,0,0,1,1.244-6.069A5.729,5.729,0,0,1,14.4,0ZM5,0V1.879a3,3,0,0,0-1.333,1.74,10.17,10.17,0,0,0-.444,3.313v.584H5.637v5.636H0V8.938A12.518,12.518,0,0,1,1.244,2.869,5.731,5.731,0,0,1,5,0Z" transform="translate(108 51)" fill="#7a869a" opacity="0.5"/>
  <g id="edit_icon" transform="translate(153 34)">
    <g id="Group_1" data-name="Group 1">
      <path id="Path_3" data-name="Path 3" d="M42,16.607V42a6,6,0,0,1-6,6H6a6,6,0,0,1-6-6V12A6,6,0,0,1,6,6H31.392l-6,6H6V42H36V22.608ZM37.4,4.242,35.273,6.363l6.363,6.365,2.121-2.121ZM41.637,0,39.516,2.121l6.363,6.365L48,6.363ZM14.063,27.58l6.363,6.363L39.516,14.85,33.152,8.486ZM12,36h6l-6-6Z" fill="#fff"/>
    </g>
  </g>
  <g id="Page-1" transform="translate(230 47)">
    <g id="Step-2-SEO" transform="translate(1 1)">
      <g id="Group-11">
        <g id="Group-6">
          <path id="Female" d="M.607,82H15.393a.268.268,0,0,0,.263-.219c.081-.419.765-4.126-.054-5.156-.445-.56-1.667-.958-3.633-1.187V73.705a5.2,5.2,0,0,1,.642-2.5,5.353,5.353,0,0,0-1.9-7.14,2.805,2.805,0,0,0-5.413,0,5.353,5.353,0,0,0-1.9,7.14,5.2,5.2,0,0,1,.642,2.5v1.733c-1.974.23-3.2.628-3.64,1.187-.819,1.03-.135,4.737-.054,5.156A.268.268,0,0,0,.607,82ZM3.858,70.945a4.808,4.808,0,0,1,1.8-6.466.27.27,0,0,0,.128-.172,2.272,2.272,0,0,1,4.43,0,.27.27,0,0,0,.128.172,4.808,4.808,0,0,1,1.8,6.466,5.749,5.749,0,0,0-.709,2.761v1.676l-.2-.019a1.4,1.4,0,0,1-.457-.122,2.846,2.846,0,0,0-.692-.675,1.444,1.444,0,0,1-.141-.5l-.054-.606a5.031,5.031,0,0,0,2.121-4.391.269.269,0,0,0-.259-.27,5.04,5.04,0,0,1-3.57-1.763.268.268,0,0,0-.195-.1.265.265,0,0,0-.206.078c-.017.017-1.749,1.739-3.42,1.789a.268.268,0,0,0-.254.216,4.507,4.507,0,0,0,2,4.489l-.05.562a1.444,1.444,0,0,1-.141.5,2.846,2.846,0,0,0-.692.675,1.4,1.4,0,0,1-.457.122l-.2.019V73.705a5.749,5.749,0,0,0-.71-2.76Zm6.709,5.239a1.968,1.968,0,0,1-.6,1.338L8.73,76.806a2.015,2.015,0,0,0,1.3-1.424,1.952,1.952,0,0,0,.372.274A1.188,1.188,0,0,1,10.567,76.184ZM8,76.413a1.619,1.619,0,0,1-1.587-1.638,1.992,1.992,0,0,0,.178-.664l.029-.323q.084.042.171.08a2.954,2.954,0,0,0,.3.115c.031.01.063.016.094.025.07.02.14.041.211.056.038.008.076.012.115.018.065.011.13.022.2.029a.737.737,0,0,1,.124.007,1.1,1.1,0,0,0,.158.008H8.02c.059,0,.118-.006.177-.01a.9.9,0,0,0,.146-.011c.046-.011.123-.021.185-.032.045-.009.09-.014.135-.025.068-.016.135-.039.2-.06.037-.012.074-.02.111-.034a2.9,2.9,0,0,0,.3-.13l.106-.054.031.344a1.992,1.992,0,0,0,.178.665A1.608,1.608,0,0,1,8,76.413Zm-2.4-.757a1.951,1.951,0,0,0,.372-.274,2.015,2.015,0,0,0,1.3,1.424l-1.234.716a1.968,1.968,0,0,1-.6-1.338,1.188,1.188,0,0,1,.162-.528Zm3.866-2.564h0a4.715,4.715,0,0,1-.429.244,2.342,2.342,0,0,1-1.006.248,2.374,2.374,0,0,1-1.019-.211h0c-.135-.061-.259-.126-.379-.192l-.09-.05A3.852,3.852,0,0,1,4.6,69.32a6.667,6.667,0,0,0,3.347-1.735,5.519,5.519,0,0,0,3.521,1.734,4.384,4.384,0,0,1-2,3.773ZM.816,76.964c.386-.486,1.844-.873,4-1.063a.831.831,0,0,0,.122-.016,1.684,1.684,0,0,0-.04.271,2.663,2.663,0,0,0,.923,1.908.266.266,0,0,0,.307.028L8,77.006l1.872,1.086a.266.266,0,0,0,.307-.028,2.663,2.663,0,0,0,.923-1.908,1.684,1.684,0,0,0-.04-.271c.04.006.081.013.122.016,2.156.19,3.613.577,4,1.063.477.6.256,2.984-.014,4.5H.83C.56,79.948.339,77.563.816,76.964Z" transform="translate(0 -62)" fill="#979797" stroke="#979797" stroke-width="0.5"/>
        </g>
      </g>
    </g>
  </g>
  <g id="Page-1-2" data-name="Page-1" transform="translate(276 47)">
    <g id="Step-2-SEO-2" data-name="Step-2-SEO" transform="translate(1 1)">
      <g id="Group-11-2" data-name="Group-11">
        <g id="Group-6-2" data-name="Group-6">
          <path id="Female-2" data-name="Female" d="M.607,82H15.393a.268.268,0,0,0,.263-.219c.081-.419.765-4.126-.054-5.156-.445-.56-1.667-.958-3.633-1.187V73.705a5.2,5.2,0,0,1,.642-2.5,5.353,5.353,0,0,0-1.9-7.14,2.805,2.805,0,0,0-5.413,0,5.353,5.353,0,0,0-1.9,7.14,5.2,5.2,0,0,1,.642,2.5v1.733c-1.974.23-3.2.628-3.64,1.187-.819,1.03-.135,4.737-.054,5.156A.268.268,0,0,0,.607,82ZM3.858,70.945a4.808,4.808,0,0,1,1.8-6.466.27.27,0,0,0,.128-.172,2.272,2.272,0,0,1,4.43,0,.27.27,0,0,0,.128.172,4.808,4.808,0,0,1,1.8,6.466,5.749,5.749,0,0,0-.709,2.761v1.676l-.2-.019a1.4,1.4,0,0,1-.457-.122,2.846,2.846,0,0,0-.692-.675,1.444,1.444,0,0,1-.141-.5l-.054-.606a5.031,5.031,0,0,0,2.121-4.391.269.269,0,0,0-.259-.27,5.04,5.04,0,0,1-3.57-1.763.268.268,0,0,0-.195-.1.265.265,0,0,0-.206.078c-.017.017-1.749,1.739-3.42,1.789a.268.268,0,0,0-.254.216,4.507,4.507,0,0,0,2,4.489l-.05.562a1.444,1.444,0,0,1-.141.5,2.846,2.846,0,0,0-.692.675,1.4,1.4,0,0,1-.457.122l-.2.019V73.705a5.749,5.749,0,0,0-.71-2.76Zm6.709,5.239a1.968,1.968,0,0,1-.6,1.338L8.73,76.806a2.015,2.015,0,0,0,1.3-1.424,1.952,1.952,0,0,0,.372.274A1.188,1.188,0,0,1,10.567,76.184ZM8,76.413a1.619,1.619,0,0,1-1.587-1.638,1.992,1.992,0,0,0,.178-.664l.029-.323q.084.042.171.08a2.954,2.954,0,0,0,.3.115c.031.01.063.016.094.025.07.02.14.041.211.056.038.008.076.012.115.018.065.011.13.022.2.029a.737.737,0,0,1,.124.007,1.1,1.1,0,0,0,.158.008H8.02c.059,0,.118-.006.177-.01a.9.9,0,0,0,.146-.011c.046-.011.123-.021.185-.032.045-.009.09-.014.135-.025.068-.016.135-.039.2-.06.037-.012.074-.02.111-.034a2.9,2.9,0,0,0,.3-.13l.106-.054.031.344a1.992,1.992,0,0,0,.178.665A1.608,1.608,0,0,1,8,76.413Zm-2.4-.757a1.951,1.951,0,0,0,.372-.274,2.015,2.015,0,0,0,1.3,1.424l-1.234.716a1.968,1.968,0,0,1-.6-1.338,1.188,1.188,0,0,1,.162-.528Zm3.866-2.564h0a4.715,4.715,0,0,1-.429.244,2.342,2.342,0,0,1-1.006.248,2.374,2.374,0,0,1-1.019-.211h0c-.135-.061-.259-.126-.379-.192l-.09-.05A3.852,3.852,0,0,1,4.6,69.32a6.667,6.667,0,0,0,3.347-1.735,5.519,5.519,0,0,0,3.521,1.734,4.384,4.384,0,0,1-2,3.773ZM.816,76.964c.386-.486,1.844-.873,4-1.063a.831.831,0,0,0,.122-.016,1.684,1.684,0,0,0-.04.271,2.663,2.663,0,0,0,.923,1.908.266.266,0,0,0,.307.028L8,77.006l1.872,1.086a.266.266,0,0,0,.307-.028,2.663,2.663,0,0,0,.923-1.908,1.684,1.684,0,0,0-.04-.271c.04.006.081.013.122.016,2.156.19,3.613.577,4,1.063.477.6.256,2.984-.014,4.5H.83C.56,79.948.339,77.563.816,76.964Z" transform="translate(0 -62)" fill="#0463f6" stroke="#0462f6" stroke-width="0.5"/>
        </g>
      </g>
    </g>
  </g>
  <g id="Page-1-3" data-name="Page-1" transform="translate(368 47)">
    <g id="Step-2-SEO-3" data-name="Step-2-SEO" transform="translate(-377 -407)">
      <g id="Group-12" transform="translate(378 406)">
        <path id="Male" d="M.387,22H15.613l.043-.219c.081-.41.765-4.037-.055-5.046-.5-.614-1.97-1.03-4.371-1.237a1.411,1.411,0,0,1-.836-.37.269.269,0,0,0-.064-.065h0a1.384,1.384,0,0,1-.379-.828l-.071-.774a4.585,4.585,0,0,0,2.083-2.841.266.266,0,0,0,.066.013A1.07,1.07,0,0,0,13.1,9.567a1.04,1.04,0,0,0-.11-.458A.269.269,0,0,0,13.067,9a5.22,5.22,0,0,0,.286-1.708,5.353,5.353,0,0,0-10.7,0,5.219,5.219,0,0,0,.266,1.643,1.044,1.044,0,0,0-.18.713,1.072,1.072,0,0,0,1.067.939h.017a4.554,4.554,0,0,0,2.3,2.984l-.061.665a1.384,1.384,0,0,1-.379.828h0a.269.269,0,0,0-.064.065,1.411,1.411,0,0,1-.836.37C2.369,15.7.9,16.121.4,16.735c-.82,1.009-.136,4.636-.055,5.046Zm7.287-.541V17.347L8,17.073l.326.274v4.112Zm-.986-3.992-.411-1.558,1.26.844Zm1.776-.715,1.26-.844-.411,1.558Zm6.711.32c.474.584.255,2.909-.014,4.386H8.873v-3.65l.416.351a.276.276,0,0,0,.26.052.271.271,0,0,0,.183-.19l.6-2.264a1.967,1.967,0,0,0,.853.279c2.149.186,3.6.564,3.989,1.037Zm-3.112-6.988a5.045,5.045,0,0,0,.053-.677l.093-.328a.518.518,0,0,1-.147,1ZM8,2.541a4.782,4.782,0,0,1,4.805,4.747,4.7,4.7,0,0,1-.151,1.183,1.381,1.381,0,0,0-.663-.056.272.272,0,0,0-.216.193l-.141.5-.182-1.032a.272.272,0,0,0-.227-.221c-.21-.033-.475-.537-.585-.889a.272.272,0,0,0-.194-.182.276.276,0,0,0-.258.068,3.106,3.106,0,0,1-2.009.83c.068-.157.115-.292.124-.319a.268.268,0,0,0-.085-.3.276.276,0,0,0-.31-.027,6.83,6.83,0,0,1-3.341.837.272.272,0,0,0-.3.241L4.161,9.1l-.194-.54A.272.272,0,0,0,3.81,8.4a.276.276,0,0,0-.23.016l-.217.119a4.691,4.691,0,0,1-.169-1.25A4.782,4.782,0,0,1,8,2.541ZM3.474,9.93a.517.517,0,0,1,.092-.874l.106.3V9.38a5.048,5.048,0,0,0,.048.657.526.526,0,0,1-.246-.107Zm.8.165h.007a.412.412,0,0,0,.365-.365l.139-1.3a6.823,6.823,0,0,0,2.69-.585.267.267,0,0,0,0,.2.273.273,0,0,0,.215.163A3.739,3.739,0,0,0,10.262,7.5a1.679,1.679,0,0,0,.679.823l.253,1.434a.407.407,0,0,0,.317.324,4.058,4.058,0,0,1-2.063,2.992,3.5,3.5,0,0,1-.334.152l-.018.007a3.4,3.4,0,0,1-.337.11l-.031.009a3.174,3.174,0,0,1-.317.065l-.063.011c-.094.013-.188.02-.282.025-.034,0-.068.005-.1.006-.086,0-.173,0-.259-.007a.679.679,0,0,1-.119-.007c-.088-.008-.176-.022-.263-.037-.035-.006-.07-.011-.1-.018-.093-.019-.186-.044-.278-.072-.027-.008-.055-.015-.082-.024a3.009,3.009,0,0,1-.293-.112L6.5,13.15l-.04-.018A4.041,4.041,0,0,1,4.275,10.1Zm2.463,3.726c.088.027.175.054.264.075.053.012.106.021.159.031.075.014.15.028.225.038.056.007.112.013.169.018.077.007.153.011.23.013.036,0,.071.006.107.006h.06c.081,0,.162-.007.243-.013s.168-.016.251-.028.166-.024.249-.042.148-.037.221-.057c.047-.013.094-.025.141-.04.079-.025.157-.053.234-.083l.059-.021.052.566a1.921,1.921,0,0,0,.357.952L8,16.41,6.242,15.233a1.921,1.921,0,0,0,.357-.952l.044-.485c.031.01.063.016.095.026ZM.826,17.073c.385-.474,1.84-.852,3.992-1.037a1.967,1.967,0,0,0,.853-.279l.6,2.264a.271.271,0,0,0,.183.19.276.276,0,0,0,.26-.052l.416-.351v3.651H.84C.571,19.982.352,17.657.826,17.073Z" fill="#0463f6" stroke="#0463f6" stroke-width="0.5"/>
      </g>
    </g>
  </g>
  <g id="Page-1-4" data-name="Page-1" transform="translate(322 47)">
    <g id="Step-2-SEO-4" data-name="Step-2-SEO" transform="translate(-377 -407)">
      <g id="Group-12-2" data-name="Group-12" transform="translate(378 406)">
        <path id="Male-2" data-name="Male" d="M.387,22H15.613l.043-.219c.081-.41.765-4.037-.055-5.046-.5-.614-1.97-1.03-4.371-1.237a1.411,1.411,0,0,1-.836-.37.269.269,0,0,0-.064-.065h0a1.384,1.384,0,0,1-.379-.828l-.071-.774a4.585,4.585,0,0,0,2.083-2.841.266.266,0,0,0,.066.013A1.07,1.07,0,0,0,13.1,9.567a1.04,1.04,0,0,0-.11-.458A.269.269,0,0,0,13.067,9a5.22,5.22,0,0,0,.286-1.708,5.353,5.353,0,0,0-10.7,0,5.219,5.219,0,0,0,.266,1.643,1.044,1.044,0,0,0-.18.713,1.072,1.072,0,0,0,1.067.939h.017a4.554,4.554,0,0,0,2.3,2.984l-.061.665a1.384,1.384,0,0,1-.379.828h0a.269.269,0,0,0-.064.065,1.411,1.411,0,0,1-.836.37C2.369,15.7.9,16.121.4,16.735c-.82,1.009-.136,4.636-.055,5.046Zm7.287-.541V17.347L8,17.073l.326.274v4.112Zm-.986-3.992-.411-1.558,1.26.844Zm1.776-.715,1.26-.844-.411,1.558Zm6.711.32c.474.584.255,2.909-.014,4.386H8.873v-3.65l.416.351a.276.276,0,0,0,.26.052.271.271,0,0,0,.183-.19l.6-2.264a1.967,1.967,0,0,0,.853.279c2.149.186,3.6.564,3.989,1.037Zm-3.112-6.988a5.045,5.045,0,0,0,.053-.677l.093-.328a.518.518,0,0,1-.147,1ZM8,2.541a4.782,4.782,0,0,1,4.805,4.747,4.7,4.7,0,0,1-.151,1.183,1.381,1.381,0,0,0-.663-.056.272.272,0,0,0-.216.193l-.141.5-.182-1.032a.272.272,0,0,0-.227-.221c-.21-.033-.475-.537-.585-.889a.272.272,0,0,0-.194-.182.276.276,0,0,0-.258.068,3.106,3.106,0,0,1-2.009.83c.068-.157.115-.292.124-.319a.268.268,0,0,0-.085-.3.276.276,0,0,0-.31-.027,6.83,6.83,0,0,1-3.341.837.272.272,0,0,0-.3.241L4.161,9.1l-.194-.54A.272.272,0,0,0,3.81,8.4a.276.276,0,0,0-.23.016l-.217.119a4.691,4.691,0,0,1-.169-1.25A4.782,4.782,0,0,1,8,2.541ZM3.474,9.93a.517.517,0,0,1,.092-.874l.106.3V9.38a5.048,5.048,0,0,0,.048.657.526.526,0,0,1-.246-.107Zm.8.165h.007a.412.412,0,0,0,.365-.365l.139-1.3a6.823,6.823,0,0,0,2.69-.585.267.267,0,0,0,0,.2.273.273,0,0,0,.215.163A3.739,3.739,0,0,0,10.262,7.5a1.679,1.679,0,0,0,.679.823l.253,1.434a.407.407,0,0,0,.317.324,4.058,4.058,0,0,1-2.063,2.992,3.5,3.5,0,0,1-.334.152l-.018.007a3.4,3.4,0,0,1-.337.11l-.031.009a3.174,3.174,0,0,1-.317.065l-.063.011c-.094.013-.188.02-.282.025-.034,0-.068.005-.1.006-.086,0-.173,0-.259-.007a.679.679,0,0,1-.119-.007c-.088-.008-.176-.022-.263-.037-.035-.006-.07-.011-.1-.018-.093-.019-.186-.044-.278-.072-.027-.008-.055-.015-.082-.024a3.009,3.009,0,0,1-.293-.112L6.5,13.15l-.04-.018A4.041,4.041,0,0,1,4.275,10.1Zm2.463,3.726c.088.027.175.054.264.075.053.012.106.021.159.031.075.014.15.028.225.038.056.007.112.013.169.018.077.007.153.011.23.013.036,0,.071.006.107.006h.06c.081,0,.162-.007.243-.013s.168-.016.251-.028.166-.024.249-.042.148-.037.221-.057c.047-.013.094-.025.141-.04.079-.025.157-.053.234-.083l.059-.021.052.566a1.921,1.921,0,0,0,.357.952L8,16.41,6.242,15.233a1.921,1.921,0,0,0,.357-.952l.044-.485c.031.01.063.016.095.026ZM.826,17.073c.385-.474,1.84-.852,3.992-1.037a1.967,1.967,0,0,0,.853-.279l.6,2.264a.271.271,0,0,0,.183.19.276.276,0,0,0,.26-.052l.416-.351v3.651H.84C.571,19.982.352,17.657.826,17.073Z" fill="#969696" stroke="#979797" stroke-width="0.5"/>
      </g>
    </g>
  </g>
  <g id="Page-1-5" data-name="Page-1" transform="translate(414.982 39)">
    <g id="Desktop-Copy-45">
      <g id="Group-5">
        <g id="Group-27">
          <g id="Group-34">
            <path id="Path" d="M23.241,14.732a.83.83,0,1,0,0-1.66H15.956a.83.83,0,0,0,0,1.66h2.085a2.22,2.22,0,0,1,2.113,1.349h-4.2a.83.83,0,0,0,0,1.66h4.2a2.311,2.311,0,0,1-2.113,1.452H15.956a.835.835,0,0,0-.788.511.806.806,0,0,0,.2.9l5.211,4.818a.86.86,0,0,0,1.2-.036.818.818,0,0,0-.033-1.172l-3.661-3.4A3.941,3.941,0,0,0,21.92,17.74h1.319a.83.83,0,1,0,0-1.66H21.922a3.549,3.549,0,0,0-.629-1.349Z" transform="translate(0.061)" fill="#172b4d"/>
            <path id="Shape" d="M19.553,5.4A13.822,13.822,0,0,0,5.576,19.02,13.738,13.738,0,0,0,17,32.416a21.277,21.277,0,0,0,2.617.207,24.8,24.8,0,0,0,2.809-.268A13.785,13.785,0,0,0,33.53,19.02,13.821,13.821,0,0,0,19.553,5.4Zm0,25.582A12.117,12.117,0,0,1,7.287,19.02,12.116,12.116,0,0,1,19.553,7.06,12.116,12.116,0,0,1,31.819,19.02,12.131,12.131,0,0,1,19.553,30.981Z" fill="#172b4d"/>
            <path id="Path-2" data-name="Path" d="M18.645.83V3.009a.85.85,0,1,0,1.7,0V.83a.85.85,0,1,0-1.7,0Z" transform="translate(0.06)" fill="#172b4d"/>
            <path id="Path-3" data-name="Path" d="M18.72,35.1v2.179a.85.85,0,0,0,1.7,0V35.1a.85.85,0,0,0-1.7,0Z" transform="translate(0.06)" fill="#172b4d"/>
            <path id="Path-4" data-name="Path" d="M38.032,18.26H35.808a.83.83,0,1,0,0,1.66h2.225a.83.83,0,1,0,0-1.66Z" transform="translate(0.12)" fill="#172b4d"/>
            <path id="Path-5" data-name="Path" d="M3.072,18.26H.848a.83.83,0,0,0,0,1.66H3.072a.83.83,0,1,0,0-1.66Z" fill="#172b4d"/>
            <path id="Path-6" data-name="Path" d="M32.025,5.647l-1.573,1.54a.818.818,0,0,0,0,1.174.861.861,0,0,0,1.2,0L33.225,6.82a.818.818,0,0,0,.223-.8.838.838,0,0,0-.6-.589.859.859,0,0,0-.821.219Z" transform="translate(0.12)" fill="#172b4d"/>
            <path id="Path-7" data-name="Path" d="M7.3,29.856,5.732,31.4a.817.817,0,0,0-.223.8.839.839,0,0,0,.6.589.861.861,0,0,0,.821-.219L8.5,31.03a.818.818,0,0,0,0-1.17.86.86,0,0,0-1.2,0Z" fill="#172b4d"/>
            <path id="Path-8" data-name="Path" d="M31.576,29.856a.86.86,0,0,0-1.195,0,.818.818,0,0,0,0,1.17l1.573,1.54a.861.861,0,0,0,.821.219.839.839,0,0,0,.6-.589.817.817,0,0,0-.223-.8Z" transform="translate(0.12)" fill="#172b4d"/>
            <path id="Path-9" data-name="Path" d="M7.23,8.362a.86.86,0,0,0,.821.218.838.838,0,0,0,.6-.589.818.818,0,0,0-.223-.8L6.855,5.647a.86.86,0,0,0-1.2,0,.818.818,0,0,0,0,1.17Z" fill="#172b4d"/>
          </g>
        </g>
      </g>
    </g>
  </g>
  <g id="Page-1-6" data-name="Page-1" transform="translate(484 43)">
    <g id="Desktop-Copy-45-2" data-name="Desktop-Copy-45">
      <g id="Group-5-2" data-name="Group-5">
        <g id="Group-6-3" data-name="Group-6">
          <g id="Group-38">
            <path id="Shape-2" data-name="Shape" d="M29.168,13.443H28.093L19.561,4.9a3.492,3.492,0,1,0-6.391,0L4.638,13.443H2.832A2.837,2.837,0,0,0,0,16.279v9.979a2.837,2.837,0,0,0,2.832,2.835H29.168A2.837,2.837,0,0,0,32,26.258V16.279a2.837,2.837,0,0,0-2.832-2.836ZM16.366,1.93a1.566,1.566,0,1,1-1.109.46,1.566,1.566,0,0,1,1.109-.46ZM14.41,6.39a3.484,3.484,0,0,0,3.912,0l7.045,7.054h-18ZM30.072,26.258a.906.906,0,0,1-.9.905H2.832a.906.906,0,0,1-.9-.905V16.279a.906.906,0,0,1,.9-.906H29.168a.906.906,0,0,1,.9.906Z" fill="#172b4d"/>
            <path id="Path-10" data-name="Path" d="M5.362,19.065H8.3a.965.965,0,0,0,0-1.93H5.362a2.55,2.55,0,0,0,0,5.1H6.7a.62.62,0,1,1,0,1.239H3.76a.965.965,0,1,0,0,1.93H6.7a2.55,2.55,0,1,0,0-5.1H5.362a.62.62,0,0,1,0-1.239Z" fill="#172b4d"/>
            <path id="Path-11" data-name="Path" d="M21.538,23.473h-2.42V18.1a.976.976,0,0,0-1.952,0v6.338a.97.97,0,0,0,.976.965h3.4a.965.965,0,0,0,0-1.93Z" transform="translate(-0.254)" fill="#172b4d"/>
            <path id="Shape-3" data-name="Shape" d="M25.435,17.135H24.1a.97.97,0,0,0-.976.965v6.337a.97.97,0,0,0,.976.965h1.337a4.134,4.134,0,1,0,0-8.267Zm0,6.337h-.361V19.065h.361a2.2,2.2,0,0,1,0,4.407Z" transform="translate(-0.4)" fill="#172b4d"/>
            <path id="Shape-4" data-name="Shape" d="M13.058,17.135a3.232,3.232,0,0,0-3.246,3.21v1.847a3.247,3.247,0,0,0,6.494,0V20.345a3.232,3.232,0,0,0-3.247-3.21Zm1.3,5.057a1.295,1.295,0,0,1-2.589,0V20.345a1.3,1.3,0,0,1,2.589,0Z" transform="translate(-0.152)" fill="#172b4d"/>
          </g>
        </g>
      </g>
    </g>
  </g>
  <g id="Page-1-7" data-name="Page-1" transform="translate(40 112)">
    <g id="Desktop-Copy-45-3" data-name="Desktop-Copy-45">
      <g id="Group-5-3" data-name="Group-5">
        <g id="Group-32">
          <path id="Shape-5" data-name="Shape" d="M27.6,15.727a.91.91,0,0,1,0-.794l1.127-2.339A2.68,2.68,0,0,0,27.6,9.059l-2.27-1.22a.9.9,0,0,1-.46-.642l-.443-2.565a2.629,2.629,0,0,0-2.964-2.184l-2.541.365a.878.878,0,0,1-.745-.245L16.332.756a2.6,2.6,0,0,0-3.663,0L10.824,2.567a.878.878,0,0,1-.745.245L7.538,2.447A2.628,2.628,0,0,0,4.574,4.632L4.131,7.2a.9.9,0,0,1-.46.643L1.4,9.059A2.68,2.68,0,0,0,.271,12.594L1.4,14.933a.91.91,0,0,1,0,.794L.271,18.067A2.68,2.68,0,0,0,1.4,21.6l2.267,1.22a.9.9,0,0,1,.46.642l.443,2.565a2.62,2.62,0,0,0,2.964,2.184l2.541-.365a.878.878,0,0,1,.745.245l1.845,1.81a2.6,2.6,0,0,0,3.663,0l1.845-1.81a.879.879,0,0,1,.745-.245l2.541.365a2.628,2.628,0,0,0,2.964-2.184l.443-2.565a.9.9,0,0,1,.46-.643L27.6,21.6a2.68,2.68,0,0,0,1.132-3.535Zm-.822,4.312-2.267,1.22a2.653,2.653,0,0,0-1.36,1.9l-.443,2.565a.889.889,0,0,1-1,.739L19.165,26.1a2.594,2.594,0,0,0-2.2.725l-1.845,1.81a.879.879,0,0,1-1.239,0l-1.845-1.81a2.6,2.6,0,0,0-1.826-.752,2.638,2.638,0,0,0-.375.027l-2.541.365a.89.89,0,0,1-1-.739l-.443-2.565a2.653,2.653,0,0,0-1.36-1.9L2.22,20.039a.907.907,0,0,1-.383-1.2L2.964,16.5a2.69,2.69,0,0,0,0-2.347L1.837,11.817a.907.907,0,0,1,.383-1.2L4.487,9.4a2.653,2.653,0,0,0,1.36-1.9L6.29,4.935a.889.889,0,0,1,1-.739l2.541.365a2.594,2.594,0,0,0,2.2-.725l1.845-1.81a.879.879,0,0,1,1.239,0l1.845,1.81a2.594,2.594,0,0,0,2.2.725L21.706,4.2a.889.889,0,0,1,1,.739L23.152,7.5a2.653,2.653,0,0,0,1.36,1.9l2.267,1.22a.907.907,0,0,1,.383,1.2l-1.127,2.339a2.69,2.69,0,0,0,0,2.347l1.127,2.339a.907.907,0,0,1-.382,1.194Z" fill="#172b4d"/>
          <path id="Path-12" data-name="Path" d="M20.953,8.87a.869.869,0,0,0-1.238,0L8.165,20.54a.891.891,0,0,0,0,1.25.869.869,0,0,0,1.238,0l11.55-11.67a.891.891,0,0,0,0-1.25Z" transform="translate(-0.059)" fill="#172b4d"/>
          <path id="Shape-6" data-name="Shape" d="M11.058,7.373a3.242,3.242,0,1,0,3.209,3.242,3.242,3.242,0,0,0-3.209-3.242Zm0,4.716a1.474,1.474,0,1,1,1.459-1.474,1.474,1.474,0,0,1-1.459,1.474Z" transform="translate(-0.041)" fill="#172b4d"/>
          <path id="Shape-7" data-name="Shape" d="M18.059,16.8a3.242,3.242,0,1,0,3.209,3.242A3.242,3.242,0,0,0,18.059,16.8Zm0,4.716a1.474,1.474,0,1,1,1.458-1.474,1.474,1.474,0,0,1-1.458,1.474Z" transform="translate(-0.077)" fill="#172b4d"/>
        </g>
      </g>
    </g>
  </g>
  <path id="Icon_ionic-ios-arrow-back" data-name="Icon ionic-ios-arrow-back" d="M14.445,10.193,11.418,7.168a.572.572,0,0,1,.81-.807l3.429,3.427a.571.571,0,0,1,.017.788L12.23,14.027a.572.572,0,1,1-.81-.807Z" transform="translate(113.48 113.749) rotate(90)" fill="#02557f"/>
  <path id="Icon_ionic-ios-arrow-down" data-name="Icon ionic-ios-arrow-down" d="M10.189,14.442l3.025-3.027a.569.569,0,0,1,.807,0,.577.577,0,0,1,0,.81l-3.427,3.43a.571.571,0,0,1-.788.017L6.354,12.227a.572.572,0,1,1,.807-.81Z" transform="translate(132.027 113.754)" fill="#2c3e50"/>
  <g id="Group_3" data-name="Group 3" transform="translate(-143.772 -192.44)">
    <g id="Speech_Bubble_48_" transform="translate(320.772 275.904)">
      <g id="Group_2" data-name="Group 2" transform="translate(0 30.536)">
        <path id="Path_4" data-name="Path 4" d="M4.556,58.1H2.338l1.568-1.568a5.307,5.307,0,0,0,1.516-3.139A11.953,11.953,0,0,1,.738,47.851,10.846,10.846,0,0,1,.424,40.9a13.607,13.607,0,0,1,5.214-7.279A17.036,17.036,0,0,1,15.7,30.536c4.773,0,8.8,1.371,11.633,3.965A11.9,11.9,0,0,1,30.3,48.137a12.244,12.244,0,0,1-2.976,4.141c-2.842,2.6-6.862,3.981-11.626,3.981a21.154,21.154,0,0,1-5.262-.669,8.218,8.218,0,0,1-5.88,2.51ZM15.7,32.373c-7.6,0-12.258,4.53-13.508,9.02-1.181,4.243.56,8.252,4.657,10.725l.458.276-.014.534a7.235,7.235,0,0,1-.732,3,6.508,6.508,0,0,0,2.878-1.969L9.83,53.5l.576.172a19,19,0,0,0,5.3.75c9.454,0,13.761-5.725,13.761-11.044a10.1,10.1,0,0,0-3.367-7.52C23.6,33.578,20.008,32.373,15.7,32.373Z" transform="translate(0 -30.536)" fill="#fff"/>
      </g>
    </g>
    <path id="Path_5" data-name="Path 5" d="M-.375,1.091s1.627-4.44,4.613-6.84,7.5-2.421,7.5-2.421" transform="translate(325.5 318.5)" fill="none" stroke="#fff" stroke-width="1.7"/>
  </g>
  <path id="car" d="M29.588,10.419,27.344,2.876A3.98,3.98,0,0,0,23.512,0H8.488A3.98,3.98,0,0,0,4.656,2.876L2.412,10.419A4.037,4.037,0,0,0,0,14.118v8.067A2.009,2.009,0,0,0,2,24.2H2v2.017a2.009,2.009,0,0,0,2,2.017H6a2.009,2.009,0,0,0,2-2.017V24.2H24v2.017a2.009,2.009,0,0,0,2,2.017h2a2.008,2.008,0,0,0,2-2.017V24.2h0a2.009,2.009,0,0,0,2-2.017V14.118a4.037,4.037,0,0,0-2.412-3.7ZM8.488,4.034H23.512l1.8,6.05H6.688l1.8-6.05ZM8,19.16a2.017,2.017,0,1,1,2-2.017A2.017,2.017,0,0,1,8,19.16Zm16,0a2.017,2.017,0,1,1,2-2.017,2.017,2.017,0,0,1-2,2.017Z" transform="translate(239 113.5)" fill="#2dcc70" stroke="#fff" stroke-width="1"/>
  <g id="news" transform="translate(301.829 113)">
    <g id="Group_5" data-name="Group 5" transform="translate(8.596 3.438)">
      <g id="Group_4" data-name="Group 4">
        <path id="Path_6" data-name="Path 6" d="M60.86,60H76.446a.86.86,0,0,1,.86.86v6.991a.86.86,0,0,1-.86.86H60.86a.86.86,0,0,1-.86-.86V60.86A.86.86,0,0,1,60.86,60Zm.86,6.991H75.587V61.719H61.719Z" transform="translate(-60 -60)" fill="#fff"/>
      </g>
    </g>
    <g id="Group_7" data-name="Group 7" transform="translate(17.191 13.868)">
      <g id="Group_6" data-name="Group 6">
        <path id="Path_7" data-name="Path 7" d="M60.86,242h6.991a.86.86,0,1,1,0,1.719H60.86a.86.86,0,1,1,0-1.719Z" transform="translate(-60 -242)" fill="#fff"/>
      </g>
    </g>
    <g id="Group_9" data-name="Group 9" transform="translate(17.191 17.306)">
      <g id="Group_8" data-name="Group 8">
        <path id="Path_8" data-name="Path 8" d="M60.86,302h6.991a.86.86,0,1,1,0,1.719H60.86a.86.86,0,1,1,0-1.719Z" transform="translate(-60 -302)" fill="#fff"/>
      </g>
    </g>
    <g id="Group_11" data-name="Group 11" transform="translate(17.191 20.744)">
      <g id="Group_10" data-name="Group 10">
        <path id="Path_9" data-name="Path 9" d="M60.86,362h6.991a.86.86,0,1,1,0,1.719H60.86a.86.86,0,1,1,0-1.719Z" transform="translate(-60 -362)" fill="#fff"/>
      </g>
    </g>
    <g id="Group_13" data-name="Group 13" transform="translate(17.191 24.183)">
      <g id="Group_12" data-name="Group 12">
        <path id="Path_10" data-name="Path 10" d="M60.86,422h6.991a.86.86,0,0,1,0,1.719H60.86a.86.86,0,1,1,0-1.719Z" transform="translate(-60 -422)" fill="#fff"/>
      </g>
    </g>
    <g id="Group_15" data-name="Group 15" transform="translate(8.596 20.744)">
      <g id="Group_14" data-name="Group 14">
        <path id="Path_11" data-name="Path 11" d="M242.86,362h5.157a.86.86,0,0,1,.86.86v3.44a.86.86,0,0,1-.86.86H242.86a.86.86,0,0,1-.86-.86v-3.44a.86.86,0,0,1,.86-.86Zm.86,3.438h3.438v-1.719H243.72Z" transform="translate(-242 -362)" fill="#fff"/>
      </g>
    </g>
    <g id="Group_17" data-name="Group 17" transform="translate(8.596 13.868)">
      <g id="Group_16" data-name="Group 16">
        <path id="Path_12" data-name="Path 12" d="M242.86,242h5.157a.86.86,0,1,1,0,1.719H242.86a.86.86,0,1,1,0-1.719Z" transform="translate(-242 -242)" fill="#fff"/>
      </g>
    </g>
    <g id="Group_19" data-name="Group 19" transform="translate(8.596 17.306)">
      <g id="Group_18" data-name="Group 18">
        <path id="Path_13" data-name="Path 13" d="M242.86,302h5.157a.86.86,0,1,1,0,1.719H242.86a.86.86,0,1,1,0-1.719Z" transform="translate(-242 -302)" fill="#fff"/>
      </g>
    </g>
    <g id="Group_21" data-name="Group 21">
      <g id="Group_20" data-name="Group 20">
        <path id="Path_14" data-name="Path 14" d="M.86,3.438h4.3V.86A.86.86,0,0,1,6.017,0H28.48a.86.86,0,0,1,.86.86V25.042a4.3,4.3,0,0,1-4.3,4.3H3.438A3.442,3.442,0,0,1,0,25.9V4.3a.86.86,0,0,1,.86-.862ZM25.042,27.621a2.582,2.582,0,0,0,2.579-2.579V1.719H6.877V25.9a3.416,3.416,0,0,1-.463,1.719ZM1.719,25.9a1.719,1.719,0,0,0,3.438,0V5.157H1.719Z" fill="#fff"/>
      </g>
    </g>
  </g>
  <g id="left-quote" transform="translate(362 106.142)">
    <g id="Group_22" data-name="Group 22" transform="translate(0 7.858)">
      <path id="Path_15" data-name="Path 15" d="M10.133,19.84a8.389,8.389,0,0,0-2.318-.34,7.285,7.285,0,0,0-2.907.6c.731-2.675,2.486-7.29,5.982-7.81a.831.831,0,0,0,.677-.6l.764-2.733a.83.83,0,0,0-.687-1.046,5.8,5.8,0,0,0-.782-.053c-4.2,0-8.353,4.38-10.107,10.652-1.03,3.68-1.331,9.212,1.2,12.694a7.571,7.571,0,0,0,6.16,3.1h.033a7.366,7.366,0,0,0,1.985-14.46Z" transform="translate(0 -7.858)" fill="#ccc"/>
      <path id="Path_16" data-name="Path 16" d="M63.187,23.319a7.383,7.383,0,0,0-4.428-3.478,8.388,8.388,0,0,0-2.318-.338,7.286,7.286,0,0,0-2.907.6c.731-2.675,2.486-7.29,5.982-7.81a.831.831,0,0,0,.677-.6l.764-2.733a.83.83,0,0,0-.687-1.046,5.8,5.8,0,0,0-.782-.053c-4.2,0-8.353,4.38-10.107,10.652-1.029,3.68-1.331,9.212,1.205,12.694A7.57,7.57,0,0,0,56.741,34.3h.033a7.366,7.366,0,0,0,6.413-10.979Z" transform="translate(-32.478 -7.858)" fill="#ccc"/>
    </g>
  </g>
  <g id="Group_24" data-name="Group 24" transform="translate(134)">
    <circle id="Ellipse_1" data-name="Ellipse 1" cx="15" cy="15" r="15" transform="translate(285 112)" fill="#e8e8e8" opacity="0"/>
    <g id="Group">
      <text id="No" transform="translate(294.001 124)" fill="#ccc" font-size="9" font-family="SFProText-Regular, SF Pro Text"><tspan x="0" y="0">No</tspan></text>
      <text id="Image" transform="translate(287.084 135)" fill="#ccc" font-size="9" font-family="SFProText-Regular, SF Pro Text"><tspan x="0" y="0">Image</tspan></text>
    </g>
  </g>
  <g id="Group_5014" transform="translate(146.604 177.724)">
    <path id="Path_7549" d="M7.042,11c.731,3.658,3.12,6.108,5.97,6.108s5.23-2.442,5.965-6.088a2.645,2.645,0,0,0,.75-1.9c.159-1.258-.059-2.118-.6-2.417a5.8,5.8,0,0,0-1.189-4.6C16.58.487,14.3-.108,11.773.524A4.125,4.125,0,0,0,8.3,1.839,6.428,6.428,0,0,0,6.912,6.678c-.551.3-.785,1.177-.629,2.424A2.71,2.71,0,0,0,7.042,11ZM8.661,2.175A3.588,3.588,0,0,1,11.373,1c.131,0,.264.006.4.019a.231.231,0,0,0,.084-.007c2.381-.6,4.449-.087,5.7,1.407a5.331,5.331,0,0,1,1.059,4.31l-.177.159-.377-.618a.248.248,0,0,0-.319-.1,6.468,6.468,0,0,1-3.434.171,13.8,13.8,0,0,1-2.676-.7A6.76,6.76,0,0,0,9.571,5.16,2.146,2.146,0,0,0,7.562,6.837l-.148-.122A5.989,5.989,0,0,1,8.661,2.173ZM7.135,7.132l.41.337a.248.248,0,0,0,.4-.144c.014-.07.363-1.7,1.606-1.659a6.305,6.305,0,0,1,1.919.454,14.183,14.183,0,0,0,2.764.721,7.589,7.589,0,0,0,3.513-.132l.425.7a.247.247,0,0,0,.176.117h.036a.249.249,0,0,0,.166-.064l.35-.312c.322.206.459.937.337,1.906-.088.708-.223,1.39-.6,1.594a.248.248,0,0,0-.125.171c-.663,3.464-2.872,5.792-5.5,5.792s-4.843-2.335-5.5-5.811a.247.247,0,0,0-.123-.171c-.388-.214-.525-.924-.609-1.59-.122-.976.023-1.71.36-1.912Z" fill="#253858" stroke="#253858" stroke-width="0.5"/>
    <path id="Path_7550" d="M25.581,26.472c-.35-4.417-3.388-7.813-8.134-9.116a.2.2,0,0,0-.05-.015c-.035-.009-.068-.022-.1-.031a.243.243,0,0,0-.284.127A4.715,4.715,0,0,1,13,19.814h0a5.126,5.126,0,0,1-4.119-2.36l-.012-.009a.24.24,0,0,0-.1-.091H8.748a.245.245,0,0,0-.068-.018.207.207,0,0,0-.073.009H8.6l-.021.006c-4.753,1.3-7.8,4.709-8.148,9.125l-.034.5a.639.639,0,0,0,.647.677,105.035,105.035,0,0,0,11.774.619h.388a104.824,104.824,0,0,0,11.763-.619.643.643,0,0,0,.647-.694Zm-8.452-8.3.169,3.159-3.2-1.138a5.159,5.159,0,0,0,3.025-2.025Zm-4.122,9.61h-.012L10.147,21.4a.227.227,0,0,0-.029-.041l2.888-1.029L15.9,21.357a.246.246,0,0,0-.03.041l-2.848,6.384Zm-1.1-7.588L8.715,21.331,8.877,18.3a5.564,5.564,0,0,0,3.029,1.9ZM.893,27l.033-.485c.325-4.1,3.112-7.288,7.475-8.591l-.2,3.753a.248.248,0,0,0,.247.261.245.245,0,0,0,.083-.014l1.144-.408a.245.245,0,0,0,.019.086l2.756,6.179a103.2,103.2,0,0,1-11.343-.613C.892,27.135.892,27.086.891,27Zm24.014.167a103.231,103.231,0,0,1-11.343.613L16.32,21.6a.231.231,0,0,0,.019-.086l1.145.408a.248.248,0,0,0,.331-.247l-.2-3.752c4.364,1.3,7.149,4.483,7.474,8.588l.033.469c0,.1,0,.154-.217.182Z" fill="#253858" stroke="#253858" stroke-width="0.5"/>
  </g>
  <g id="Group_5014-2" data-name="Group_5014" transform="translate(202.604 177.724)">
    <path id="Path_7549-2" data-name="Path_7549" d="M7.042,11c.731,3.658,3.12,6.108,5.97,6.108s5.23-2.442,5.965-6.088a2.645,2.645,0,0,0,.75-1.9c.159-1.258-.059-2.118-.6-2.417a5.8,5.8,0,0,0-1.189-4.6C16.58.487,14.3-.108,11.773.524A4.125,4.125,0,0,0,8.3,1.839,6.428,6.428,0,0,0,6.912,6.678c-.551.3-.785,1.177-.629,2.424A2.71,2.71,0,0,0,7.042,11ZM8.661,2.175A3.588,3.588,0,0,1,11.373,1c.131,0,.264.006.4.019a.231.231,0,0,0,.084-.007c2.381-.6,4.449-.087,5.7,1.407a5.331,5.331,0,0,1,1.059,4.31l-.177.159-.377-.618a.248.248,0,0,0-.319-.1,6.468,6.468,0,0,1-3.434.171,13.8,13.8,0,0,1-2.676-.7A6.76,6.76,0,0,0,9.571,5.16,2.146,2.146,0,0,0,7.562,6.837l-.148-.122A5.989,5.989,0,0,1,8.661,2.173ZM7.135,7.132l.41.337a.248.248,0,0,0,.4-.144c.014-.07.363-1.7,1.606-1.659a6.305,6.305,0,0,1,1.919.454,14.183,14.183,0,0,0,2.764.721,7.589,7.589,0,0,0,3.513-.132l.425.7a.247.247,0,0,0,.176.117h.036a.249.249,0,0,0,.166-.064l.35-.312c.322.206.459.937.337,1.906-.088.708-.223,1.39-.6,1.594a.248.248,0,0,0-.125.171c-.663,3.464-2.872,5.792-5.5,5.792s-4.843-2.335-5.5-5.811a.247.247,0,0,0-.123-.171c-.388-.214-.525-.924-.609-1.59-.122-.976.023-1.71.36-1.912Z" fill="#0065ff" stroke="#0065ff" stroke-width="0.5"/>
    <path id="Path_7550-2" data-name="Path_7550" d="M25.581,26.472c-.35-4.417-3.388-7.813-8.134-9.116a.2.2,0,0,0-.05-.015c-.035-.009-.068-.022-.1-.031a.243.243,0,0,0-.284.127A4.715,4.715,0,0,1,13,19.814h0a5.126,5.126,0,0,1-4.119-2.36l-.012-.009a.24.24,0,0,0-.1-.091H8.748a.245.245,0,0,0-.068-.018.207.207,0,0,0-.073.009H8.6l-.021.006c-4.753,1.3-7.8,4.709-8.148,9.125l-.034.5a.639.639,0,0,0,.647.677,105.035,105.035,0,0,0,11.774.619h.388a104.824,104.824,0,0,0,11.763-.619.643.643,0,0,0,.647-.694Zm-8.452-8.3.169,3.159-3.2-1.138a5.159,5.159,0,0,0,3.025-2.025Zm-4.122,9.61h-.012L10.147,21.4a.227.227,0,0,0-.029-.041l2.888-1.029L15.9,21.357a.246.246,0,0,0-.03.041l-2.848,6.384Zm-1.1-7.588L8.715,21.331,8.877,18.3a5.564,5.564,0,0,0,3.029,1.9ZM.893,27l.033-.485c.325-4.1,3.112-7.288,7.475-8.591l-.2,3.753a.248.248,0,0,0,.247.261.245.245,0,0,0,.083-.014l1.144-.408a.245.245,0,0,0,.019.086l2.756,6.179a103.2,103.2,0,0,1-11.343-.613C.892,27.135.892,27.086.891,27Zm24.014.167a103.231,103.231,0,0,1-11.343.613L16.32,21.6a.231.231,0,0,0,.019-.086l1.145.408a.248.248,0,0,0,.331-.247l-.2-3.752c4.364,1.3,7.149,4.483,7.474,8.588l.033.469c0,.1,0,.154-.217.182Z" fill="#0065ff" stroke="#0065ff" stroke-width="0.5"/>
  </g>
  <path id="Path_7592" d="M23.288,154.5c-.246-3.251-1.065-5.272-2.7-6.72a53.54,53.54,0,0,0-.055-8.714c-.637-6.966-3.719-10.79-8.664-10.79-5.026,0-7.949,3.633-8.659,10.79a52.877,52.877,0,0,0-.055,8.71c-1.639,1.45-2.455,3.472-2.732,6.75l-.027.491a.623.623,0,0,0,.628.656,84.1,84.1,0,0,0,10.818.6,89.009,89.009,0,0,0,10.818-.6.616.616,0,0,0,.628-.683ZM3.674,139.119c.71-6.884,3.442-10.353,8.2-10.353,6.31,0,7.84,6.474,8.168,10.353.219,2.513.464,8.5-.273,10.08a5.626,5.626,0,0,1-4.726.082,7.27,7.27,0,0,0,1.366-3.934.246.246,0,0,0-.492,0,5.693,5.693,0,0,1-.574,2.431,8.779,8.779,0,0,1-.246-3.387,9.449,9.449,0,0,0,2.677-5.136,3.858,3.858,0,0,0,.71-2.185.465.465,0,0,0,.191-.027.248.248,0,0,0-.055-.492c-3.469.464-6.5-4.617-6.556-4.671a.221.221,0,0,0-.246-.109,5.713,5.713,0,0,0-4.2,3.114,15.926,15.926,0,0,0-.82,2.431,6.632,6.632,0,0,1-1.912,3.606.255.255,0,0,0-.027.352.248.248,0,0,0,.191.082.388.388,0,0,0,.15-.056,4.782,4.782,0,0,0,.983-1.147,9.085,9.085,0,0,0,2.431,4.21v.027a9.427,9.427,0,0,1-.191,3.333,3.014,3.014,0,0,1-.055-1.229.236.236,0,0,0-.464-.082,3.582,3.582,0,0,0,.792,2.9,5.933,5.933,0,0,1-4.726-.082,4.689,4.689,0,0,1-.3-1.257.2.2,0,0,0-.027-.137,51.217,51.217,0,0,1,.027-8.718Zm5.573,10.055a3.142,3.142,0,0,1-.6-.847l.027-.027a7.421,7.421,0,0,0,.463-3.526,4.587,4.587,0,0,0,2.732.983,4.483,4.483,0,0,0,2.677-.929,7.125,7.125,0,0,0,.464,3.469h0a6.029,6.029,0,0,1-.574.874.294.294,0,0,0-.055.219c.027.082.055.137.137.164a3.706,3.706,0,0,0,.628.246,4.644,4.644,0,0,1-3.305,1.311h-.027A4.627,4.627,0,0,1,8.536,149.8a6.247,6.247,0,0,0,.628-.273.2.2,0,0,0,.137-.191c.055-.028.028-.11-.054-.162Zm2.622-3.906c-2.349,0-4.535-2.349-5.327-5.737a14.23,14.23,0,0,0,.738-2.076,17.638,17.638,0,0,1,.816-2.381,5.247,5.247,0,0,1,3.66-2.814c.519.82,3.087,4.671,6.228,4.78-.082.656-.246,1.666-.546,1.83a.4.4,0,0,0-.137.164c-.7,3.691-2.946,6.231-5.432,6.231Zm-3.824,4.723a5.168,5.168,0,0,0,3.8,1.639h.027a5.244,5.244,0,0,0,3.852-1.639,6.674,6.674,0,0,0,1.393.219,7.2,7.2,0,0,1-5.245,2.158h-.027a7.056,7.056,0,0,1-5.163-2.158,7.358,7.358,0,0,0,1.363-.219Zm14.587,5.19a83.2,83.2,0,0,1-10.763.6,88.391,88.391,0,0,1-10.763-.6c-.219-.027-.219-.082-.219-.164l.027-.492c.246-2.95.929-4.835,2.322-6.2a3.729,3.729,0,0,0,.328,1.093c.027.027.055.082.082.109A5.709,5.709,0,0,0,6,150.155a.142.142,0,0,0,.055.109,7.531,7.531,0,0,0,5.737,2.54h.055a7.661,7.661,0,0,0,5.846-2.568c.027-.027.027-.055.055-.082a4.9,4.9,0,0,0,2.322-.656l.082-.082a4.015,4.015,0,0,0,.328-1.093c1.366,1.339,2.076,3.223,2.322,6.174l.027.464c.027.166.027.193-.192.22Z" transform="translate(40.105 50.224)" fill="#253858" stroke="#253758" stroke-width="0.5"/>
  <path id="Path_7592-2" data-name="Path_7592" d="M23.288,228.5c-.246-3.251-1.065-5.272-2.7-6.72a53.54,53.54,0,0,0-.055-8.714c-.637-6.966-3.719-10.79-8.664-10.79-5.026,0-7.949,3.633-8.659,10.79a52.877,52.877,0,0,0-.055,8.71c-1.639,1.45-2.455,3.472-2.732,6.75l-.027.491a.623.623,0,0,0,.628.656,84.1,84.1,0,0,0,10.818.6,89.012,89.012,0,0,0,10.818-.6.616.616,0,0,0,.628-.683ZM3.674,213.119c.71-6.884,3.442-10.353,8.2-10.353,6.31,0,7.84,6.474,8.168,10.353.219,2.513.464,8.5-.273,10.08a5.626,5.626,0,0,1-4.726.082,7.27,7.27,0,0,0,1.366-3.934.246.246,0,0,0-.492,0,5.693,5.693,0,0,1-.574,2.431,8.779,8.779,0,0,1-.246-3.387,9.449,9.449,0,0,0,2.677-5.136,3.858,3.858,0,0,0,.71-2.185.465.465,0,0,0,.191-.027.248.248,0,0,0-.055-.492c-3.469.464-6.5-4.617-6.556-4.671a.221.221,0,0,0-.246-.109,5.713,5.713,0,0,0-4.2,3.114,15.925,15.925,0,0,0-.82,2.431,6.632,6.632,0,0,1-1.912,3.606.255.255,0,0,0-.027.352.248.248,0,0,0,.191.082.388.388,0,0,0,.15-.056,4.782,4.782,0,0,0,.983-1.147,9.085,9.085,0,0,0,2.431,4.21v.027a9.427,9.427,0,0,1-.191,3.333,3.014,3.014,0,0,1-.055-1.229.236.236,0,0,0-.464-.082,3.582,3.582,0,0,0,.792,2.9,5.933,5.933,0,0,1-4.726-.082,4.689,4.689,0,0,1-.3-1.257.2.2,0,0,0-.027-.137,51.217,51.217,0,0,1,.027-8.718Zm5.573,10.055a3.142,3.142,0,0,1-.6-.847l.027-.027a7.421,7.421,0,0,0,.463-3.526,4.587,4.587,0,0,0,2.732.983,4.483,4.483,0,0,0,2.677-.929,7.125,7.125,0,0,0,.464,3.469h0a6.03,6.03,0,0,1-.574.874.294.294,0,0,0-.055.219c.027.082.055.137.137.164a3.7,3.7,0,0,0,.628.246,4.644,4.644,0,0,1-3.3,1.311h-.027A4.627,4.627,0,0,1,8.536,223.8a6.25,6.25,0,0,0,.628-.273.2.2,0,0,0,.137-.191c.055-.028.028-.11-.054-.162Zm2.622-3.906c-2.349,0-4.535-2.349-5.327-5.737a14.23,14.23,0,0,0,.738-2.076,17.639,17.639,0,0,1,.816-2.381,5.247,5.247,0,0,1,3.66-2.814c.519.82,3.087,4.671,6.228,4.78-.082.656-.246,1.666-.546,1.83a.4.4,0,0,0-.137.164c-.7,3.691-2.946,6.231-5.432,6.231Zm-3.824,4.723a5.168,5.168,0,0,0,3.8,1.639h.027a5.244,5.244,0,0,0,3.852-1.639,6.675,6.675,0,0,0,1.393.219,7.2,7.2,0,0,1-5.245,2.158h-.027a7.056,7.056,0,0,1-5.163-2.158A7.358,7.358,0,0,0,8.045,223.991Zm14.587,5.19a83.2,83.2,0,0,1-10.763.6,88.388,88.388,0,0,1-10.763-.6c-.219-.027-.219-.082-.219-.164l.027-.492c.246-2.95.929-4.835,2.322-6.2a3.729,3.729,0,0,0,.328,1.093c.027.027.055.082.082.109A5.709,5.709,0,0,0,6,224.155a.142.142,0,0,0,.055.109,7.531,7.531,0,0,0,5.737,2.54h.055a7.661,7.661,0,0,0,5.846-2.568c.027-.027.027-.055.055-.082a4.9,4.9,0,0,0,2.322-.656l.082-.082a4.015,4.015,0,0,0,.328-1.093c1.366,1.339,2.076,3.223,2.322,6.174l.027.464c.027.166.027.193-.192.22Z" transform="translate(93.105 -23.776)" fill="#0065ff" stroke="#0065ff" stroke-width="0.5"/>
  <g id="lakh-bu" transform="translate(258 179)">
    <circle id="Oval" cx="13" cy="13" r="13" fill="none" stroke="#253858" stroke-width="1.44"/>
    <path id="Path-13" data-name="Path" d="M16.667,8.888a.844.844,0,0,0,0-1.688h-7.4a.844.844,0,0,0,0,1.688h2.12a2.257,2.257,0,0,1,2.147,1.37H9.262a.844.844,0,1,0,0,1.687h4.266a2.346,2.346,0,0,1-2.147,1.477H9.262a.848.848,0,0,0-.8.52.819.819,0,0,0,.209.919l5.3,4.9a.874.874,0,0,0,1.217-.036.831.831,0,0,0-.034-1.192L11.428,15.07a4.007,4.007,0,0,0,3.9-3.125h1.34a.844.844,0,0,0,0-1.687h-1.34a3.608,3.608,0,0,0-.639-1.37Z" transform="translate(0.7 0.6)" fill="#253858"/>
  </g>
  <g id="plans-bu" transform="translate(314.998 179.001)">
    <path id="Path-14" data-name="Path" d="M17.238,23.478c2.53-2.762,5.748-8.054,5.748-17.26,0-.46-.227-.69-.683-.92,0,0-6.9-1.151-10.35-5.063a.844.844,0,0,0-.684-.23c-.228,0-.456,0-.456.231a15.411,15.411,0,0,1-9.659,4.6H.7a.6.6,0,0,0-.513.173.615.615,0,0,0-.172.517A29.066,29.066,0,0,0,1.153,14.5,16.951,16.951,0,0,0,11.5,27.16h.456a14.394,14.394,0,0,0,5.282-3.682Z" fill="none" stroke="#20385b" stroke-width="1.584" fill-rule="evenodd"/>
    <path id="Path-15" data-name="Path" d="M15.353,8.84a.677.677,0,0,0-.891,0l-4.9,4.82L7.328,11.688a.639.639,0,0,0-.877.015.613.613,0,0,0-.014.862l2.675,2.41c.222.22.222.22.445.22s.446,0,.446-.22l5.35-5.259A.65.65,0,0,0,15.353,8.84Z" transform="translate(0.883 0.932)" fill="#253858" stroke="#253858" stroke-width="0.785"/>
  </g>
  <g id="customer-bu" transform="translate(369.001 178.004)">
    <path id="Path-16" data-name="Path" d="M24.58,4.212a14.4,14.4,0,1,0,0,20.367,14.4,14.4,0,0,0,0-20.367Z" fill="none" stroke="#253858" stroke-width="1.44" fill-rule="evenodd"/>
    <path id="Shape-8" data-name="Shape" d="M6.89,7.61a1.6,1.6,0,1,1,.465,1.138A1.6,1.6,0,0,1,6.89,7.61Zm7.26,0a1.6,1.6,0,1,1,.465,1.138A1.6,1.6,0,0,1,14.15,7.61Zm3.786,6.59a6.389,6.389,0,0,1-5.92,3.8A6.347,6.347,0,0,1,6.06,14.183a.78.78,0,0,1,.715-1.077.772.772,0,0,1,.715.48,4.806,4.806,0,0,0,4.526,2.857,4.844,4.844,0,0,0,4.5-2.859.775.775,0,0,1,1.422.618Z" transform="translate(2.545 2.545)" fill="#253858"/>
  </g>
  <g id="Group_2-2" data-name="Group 2" transform="translate(0)">
    <g id="customer-bu-2" data-name="customer-bu" transform="translate(420.001 178.005)">
      <path id="Path-17" data-name="Path" d="M24.58,4.212a14.4,14.4,0,1,0,0,20.367,14.4,14.4,0,0,0,0-20.367Z" fill="none" stroke="#253858" stroke-width="1.2" fill-rule="evenodd"/>
    </g>
    <g id="umbrella" transform="translate(424 182)">
      <g id="Group_1-2" data-name="Group 1">
        <path id="Path_1-2" data-name="Path 1" d="M10.586,1.19v-.6a.586.586,0,1,0-1.172,0v.6A10.023,10.023,0,0,0,0,11.172a.586.586,0,1,0,1.172,0c.021-.137.622-.587,1.8-.587,1.141,0,1.758.448,1.758.586a.586.586,0,0,0,1.172,0c0-.13.6-.586,1.758-.586,1.141,0,1.758.448,1.758.586v6.484a2.344,2.344,0,1,0,4.687,0,.586.586,0,0,0-1.172,0,1.172,1.172,0,1,1-2.344,0V11.172c0-.13.6-.586,1.758-.586a2.472,2.472,0,0,1,1.715.512.587.587,0,0,0,.536.655h.022a.592.592,0,0,0,.07,0,.586.586,0,0,0,.586-.586c0-.13.6-.586,1.758-.586s1.776.45,1.8.586a.586.586,0,1,0,1.172,0A10.022,10.022,0,0,0,10.586,1.19ZM4.729,9.746a4.53,4.53,0,0,0-1.76-.332A4.648,4.648,0,0,0,1.295,9.7,8.857,8.857,0,0,1,6.812,2.94,11.62,11.62,0,0,0,4.729,9.746Zm4.685,0a4.533,4.533,0,0,0-1.758-.331A4.536,4.536,0,0,0,5.9,9.743C5.976,6,7.52,2.964,9.414,2.427Zm2.93-.331a4.533,4.533,0,0,0-1.758.331V2.427c1.858.527,3.438,3.506,3.512,7.316A4.536,4.536,0,0,0,12.344,9.414Zm4.687,0a4.531,4.531,0,0,0-1.761.332A11.631,11.631,0,0,0,13.19,2.94,8.857,8.857,0,0,1,18.705,9.7,4.648,4.648,0,0,0,17.031,9.414Z" fill="#253858"/>
      </g>
    </g>
  </g>
</svg>
